  0
SECTION
  2
HEADER
  9
$ACADVER
  1
AC1014
  9
$HANDSEED
  5
FFFF
  9
$MEASUREMENT
 70
     1
  0
ENDSEC
  0
SECTION
  2
TABLES
  0
TABLE
  2
VPORT
  5
8
330
0
100
AcDbSymbolTable
 70
     4
  0
VPORT
  5
2E
330
8
100
AcDbSymbolTableRecord
100
AcDbViewportTableRecord
  2
*ACTIVE
 70
     0
 10
0.0
 20
0.0
 11
1.0
 21
1.0
 12
210.0
 22
148.5
 13
0.0
 23
0.0
 14
10.0
 24
10.0
 15
10.0
 25
10.0
 16
0.0
 26
0.0
 36
1.0
 17
0.0
 27
0.0
 37
0.0
 40
341.0
 41
1.24
 42
50.0
 43
0.0
 44
0.0
 50
0.0
 51
0.0
 71
     0
 72
   100
 73
     1
 74
     3
 75
     0
 76
     0
 77
     0
 78
     0
  0
ENDTAB
  0
TABLE
  2
LTYPE
  5
5
330
0
100
AcDbSymbolTable
 70
     1
  0
LTYPE
  5
14
330
5
100
AcDbSymbolTableRecord
100
AcDbLinetypeTableRecord
  2
BYBLOCK
 70
     0
  3

 72
    65
 73
     0
 40
0.0
  0
LTYPE
  5
15
330
5
100
AcDbSymbolTableRecord
100
AcDbLinetypeTableRecord
  2
BYLAYER
 70
     0
  3

 72
    65
 73
     0
 40
0.0
  0
LTYPE
  5
16
330
5
100
AcDbSymbolTableRecord
100
AcDbLinetypeTableRecord
  2
CONTINUOUS
 70
     0
  3
Solid line
 72
    65
 73
     0
 40
0.0
  0
ENDTAB
  0
TABLE
  2
LAYER
  5
2
100
AcDbSymbolTable
 70
5
  0
LAYER
  5
50
100
AcDbSymbolTableRecord
100
AcDbLayerTableRecord
  2
0
 70
0
  6
CONTINUOUS
  0
LAYER
  5
51
100
AcDbSymbolTableRecord
100
AcDbLayerTableRecord
  2
mfos_vco_VI_panel_2
 70
0
  6
CONTINUOUS
  0
LAYER
  5
52
100
AcDbSymbolTableRecord
100
AcDbLayerTableRecord
  2
holes
 70
0
  6
CONTINUOUS
  0
LAYER
  5
53
100
AcDbSymbolTableRecord
100
AcDbLayerTableRecord
  2
text
 70
0
  6
CONTINUOUS
  0
LAYER
  5
54
100
AcDbSymbolTableRecord
100
AcDbLayerTableRecord
  2
overlay#1
 70
0
  6
CONTINUOUS
  0
ENDTAB
  0
TABLE
  2
STYLE
  5
3
330
0
100
AcDbSymbolTable
 70
     1
  0
STYLE
  5
11
330
3
100
AcDbSymbolTableRecord
100
AcDbTextStyleTableRecord
  2
STANDARD
 70
     0
 40
0.0
 41
1.0
 50
0.0
 71
     0
 42
2.5
  3
txt
  4

  0
ENDTAB
  0
TABLE
  2
VIEW
  5
6
330
0
100
AcDbSymbolTable
 70
     0
  0
ENDTAB
  0
TABLE
  2
UCS
  5
7
330
0
100
AcDbSymbolTable
 70
     0
  0
ENDTAB
  0
TABLE
  2
APPID
  5
9
330
0
100
AcDbSymbolTable
 70
     2
  0
APPID
  5
12
330
9
100
AcDbSymbolTableRecord
100
AcDbRegAppTableRecord
  2
ACAD
 70
     0
  0
ENDTAB
  0
TABLE
  2
DIMSTYLE
  5
A
330
0
100
AcDbSymbolTable
 70
     1
  0
DIMSTYLE
105
27
330
A
100
AcDbSymbolTableRecord
100
AcDbDimStyleTableRecord
  2
ISO-25
 70
     0
  3

  4

  5

  6

  7

 40
1.0
 41
2.5
 42
0.625
 43
3.75
 44
1.25
 45
0.0
 46
0.0
 47
0.0
 48
0.0
140
2.5
141
2.5
142
0.0
143
0.03937007874016
144
1.0
145
0.0
146
1.0
147
0.625
 71
     0
 72
     0
 73
     0
 74
     0
 75
     0
 76
     0
 77
     1
 78
     8
170
     0
171
     3
172
     1
173
     0
174
     0
175
     0
176
     0
177
     0
178
     0
270
     2
271
     2
272
     2
273
     2
274
     3
340
11
275
     0
280
     0
281
     0
282
     0
283
     0
284
     8
285
     0
286
     0
287
     3
288
     0
  0
ENDTAB
  0
TABLE
  2
BLOCK_RECORD
  5
1
330
0
100
AcDbSymbolTable
 70
     1
  0
BLOCK_RECORD
  5
1F
330
1
100
AcDbSymbolTableRecord
100
AcDbBlockTableRecord
  2
*MODEL_SPACE
  0
BLOCK_RECORD
  5
1B
330
1
100
AcDbSymbolTableRecord
100
AcDbBlockTableRecord
  2
*PAPER_SPACE
  0
ENDTAB
  0
ENDSEC
  0
SECTION
  2
BLOCKS
  0
BLOCK
  5
20
330
1F
100
AcDbEntity
  8
0
100
AcDbBlockBegin
  2
*MODEL_SPACE
 70
     0
 10
0.0
 20
0.0
 30
0.0
  3
*MODEL_SPACE
  1

  0
ENDBLK
  5
21
330
1F
100
AcDbEntity
  8
0
100
AcDbBlockEnd
  0
BLOCK
  5
1C
330
1B
100
AcDbEntity
 67
     1
  8
0
100
AcDbBlockBegin
  2
*PAPER_SPACE
  1

  0
ENDBLK
  5
1D
330
1B
100
AcDbEntity
 67
     1
  8
0
100
AcDbBlockEnd
  0
ENDSEC
  0
SECTION
  2
ENTITIES
  0
LINE
  5
100
100
AcDbEntity
  8
text
 62
5
100
AcDbLine
 10
0.072268
 20
10.767032
 30
0.0
 11
8.072621
 21
10.767032
 31
0.0
  0
LINE
  5
101
100
AcDbEntity
  8
text
 62
5
100
AcDbLine
 10
8.072621
 20
10.767032
 30
0.0
 11
8.072621
 21
0.247634
 31
0.0
  0
LINE
  5
102
100
AcDbEntity
  8
text
 62
5
100
AcDbLine
 10
8.072621
 20
0.247634
 30
0.0
 11
0.072268
 21
0.247634
 31
0.0
  0
LINE
  5
103
100
AcDbEntity
  8
text
 62
5
100
AcDbLine
 10
0.072268
 20
0.247634
 30
0.0
 11
0.072268
 21
10.767032
 31
0.0
  0
LINE
  5
104
100
AcDbEntity
  8
text
 62
1
100
AcDbLine
 10
0.531369
 20
5.545851
 30
0.0
 11
0.248845
 21
5.545851
 31
0.0
  0
LINE
  5
105
100
AcDbEntity
  8
text
 62
1
100
AcDbLine
 10
0.248845
 20
5.545851
 30
0.0
 11
0.248845
 21
10.602180
 31
0.0
  0
LINE
  5
106
100
AcDbEntity
  8
text
 62
1
100
AcDbLine
 10
0.248845
 20
10.602180
 30
0.0
 11
1.031185
 21
10.602180
 31
0.0
  0
LINE
  5
107
100
AcDbEntity
  8
text
 62
1
100
AcDbLine
 10
1.031185
 20
10.602180
 30
0.0
 11
1.031185
 21
5.545851
 31
0.0
  0
LINE
  5
108
100
AcDbEntity
  8
text
 62
1
100
AcDbLine
 10
1.031185
 20
5.545851
 30
0.0
 11
0.248845
 21
5.545851
 31
0.0
  0
LINE
  5
109
100
AcDbEntity
  8
text
 62
1
100
AcDbLine
 10
0.904392
 20
10.477043
 30
0.0
 11
0.904392
 21
10.477043
 31
0.0
  0
SPLINE
  5
10a
100
AcDbEntity
  8
text
 62
1
100
AcDbSpline
 70
0
 71
3
 72
19
 73
15
 74
13
 40
0.000000
 40
0.000000
 40
0.000000
 40
0.000000
 40
0.004968
 40
0.010009
 40
0.015421
 40
0.020828
 40
0.025852
 40
0.030816
 40
0.035784
 40
0.040812
 40
0.046220
 40
0.051633
 40
0.056679
 40
0.061650
 40
0.061650
 40
0.061650
 40
0.061650
 10
0.904392
 20
10.477043
 30
0.0
 10
0.904092
 20
10.475368
 30
0.0
 10
0.903489
 20
10.471993
 30
0.0
 10
0.899276
 20
10.468451
 30
0.0
 10
0.893989
 20
10.467179
 30
0.0
 10
0.888636
 20
10.468446
 30
0.0
 10
0.884626
 20
10.472000
 30
0.0
 10
0.883090
 20
10.477044
 30
0.0
 10
0.884627
 20
10.482089
 30
0.0
 10
0.888634
 20
10.485649
 30
0.0
 10
0.893989
 20
10.486922
 30
0.0
 10
0.899278
 20
10.485644
 30
0.0
 10
0.903489
 20
10.482096
 30
0.0
 10
0.904092
 20
10.478719
 30
0.0
 10
0.904392
 20
10.477043
 30
0.0
 11
0.904392
 21
10.477043
 31
0.0
 11
0.902969
 21
10.472283
 31
0.0
 11
0.899231
 21
10.468900
 31
0.0
 11
0.893975
 21
10.467612
 31
0.0
 11
0.888723
 21
10.468900
 31
0.0
 11
0.885009
 21
10.472283
 31
0.0
 11
0.883600
 21
10.477043
 31
0.0
 11
0.885009
 21
10.481806
 31
0.0
 11
0.888723
 21
10.485196
 31
0.0
 11
0.893975
 21
10.486487
 31
0.0
 11
0.899231
 21
10.485196
 31
0.0
 11
0.902969
 21
10.481806
 31
0.0
 11
0.904392
 21
10.477043
 31
0.0
  0
LINE
  5
10b
100
AcDbEntity
  8
text
 62
1
100
AcDbLine
 10
0.460386
 20
5.665662
 30
0.0
 11
0.460386
 21
5.665662
 31
0.0
  0
SPLINE
  5
10c
100
AcDbEntity
  8
text
 62
1
100
AcDbSpline
 70
0
 71
3
 72
19
 73
15
 74
13
 40
0.000000
 40
0.000000
 40
0.000000
 40
0.000000
 40
0.003531
 40
0.007403
 40
0.011798
 40
0.016178
 40
0.020063
 40
0.023598
 40
0.027124
 40
0.031006
 40
0.035387
 40
0.039781
 40
0.043651
 40
0.047173
 40
0.047173
 40
0.047173
 40
0.047173
 10
0.460386
 20
5.665662
 30
0.0
 10
0.460123
 20
5.664476
 30
0.0
 10
0.459573
 20
5.661989
 30
0.0
 10
0.456082
 20
5.659595
 30
0.0
 10
0.451889
 20
5.658740
 30
0.0
 10
0.447624
 20
5.659602
 30
0.0
 10
0.444310
 20
5.661985
 30
0.0
 10
0.442884
 20
5.665660
 30
0.0
 10
0.444312
 20
5.669332
 30
0.0
 10
0.447626
 20
5.671709
 30
0.0
 10
0.451889
 20
5.672571
 30
0.0
 10
0.456081
 20
5.671716
 30
0.0
 10
0.459571
 20
5.669328
 30
0.0
 10
0.460123
 20
5.666845
 30
0.0
 10
0.460386
 20
5.665662
 30
0.0
 11
0.460386
 21
5.665662
 31
0.0
 11
0.459225
 21
5.662328
 31
0.0
 11
0.456172
 21
5.659946
 31
0.0
 11
0.451872
 21
5.659037
 31
0.0
 11
0.447587
 21
5.659946
 31
0.0
 11
0.444518
 21
5.662328
 31
0.0
 11
0.443344
 21
5.665662
 31
0.0
 11
0.444518
 21
5.668987
 31
0.0
 11
0.447587
 21
5.671365
 31
0.0
 11
0.451872
 21
5.672273
 31
0.0
 11
0.456172
 21
5.671365
 31
0.0
 11
0.459225
 21
5.668987
 31
0.0
 11
0.460386
 21
5.665662
 31
0.0
  0
LINE
  5
10d
100
AcDbEntity
  8
text
 62
1
100
AcDbLine
 10
0.587369
 20
8.325939
 30
0.0
 11
0.680299
 21
8.325939
 31
0.0
  0
LINE
  5
10e
100
AcDbEntity
  8
text
 62
1
100
AcDbLine
 10
0.633855
 20
8.279452
 30
0.0
 11
0.633855
 21
8.372439
 31
0.0
  0
SPLINE
  5
10f
100
AcDbEntity
  8
text
 62
1
100
AcDbSpline
 70
0
 71
3
 72
19
 73
15
 74
13
 40
0.000000
 40
0.000000
 40
0.000000
 40
0.000000
 40
0.062845
 40
0.120074
 40
0.182949
 40
0.245779
 40
0.302976
 40
0.365816
 40
0.428650
 40
0.485850
 40
0.548681
 40
0.611557
 40
0.668788
 40
0.731627
 40
0.731627
 40
0.731627
 40
0.731627
 10
0.517591
 20
8.325939
 30
0.0
 10
0.520080
 20
8.347293
 30
0.0
 10
0.524834
 20
8.388093
 30
0.0
 10
0.571980
 20
8.433868
 30
0.0
 10
0.633755
 20
8.446480
 30
0.0
 10
0.696010
 20
8.433869
 30
0.0
 10
0.741735
 20
8.388077
 30
0.0
 10
0.754339
 20
8.325940
 30
0.0
 10
0.741733
 20
8.263804
 30
0.0
 10
0.696011
 20
8.218012
 30
0.0
 10
0.633755
 20
8.205395
 30
0.0
 10
0.571979
 20
8.218013
 30
0.0
 10
0.524837
 20
8.263789
 30
0.0
 10
0.520080
 20
8.304587
 30
0.0
 10
0.517591
 20
8.325939
 30
0.0
 11
0.517591
 21
8.325939
 31
0.0
 11
0.532230
 21
8.387054
 31
0.0
 11
0.572706
 21
8.427513
 31
0.0
 11
0.633855
 21
8.442147
 31
0.0
 11
0.694956
 21
8.427513
 31
0.0
 11
0.735388
 21
8.387054
 31
0.0
 11
0.750008
 21
8.325939
 31
0.0
 11
0.735388
 21
8.264829
 31
0.0
 11
0.694956
 21
8.224368
 31
0.0
 11
0.633855
 21
8.209730
 31
0.0
 11
0.572706
 21
8.224368
 31
0.0
 11
0.532230
 21
8.264829
 31
0.0
 11
0.517591
 21
8.325939
 31
0.0
  0
LINE
  5
110
100
AcDbEntity
  8
text
 62
1
100
AcDbLine
 10
0.587369
 20
7.625230
 30
0.0
 11
0.680299
 21
7.625230
 31
0.0
  0
LINE
  5
111
100
AcDbEntity
  8
text
 62
1
100
AcDbLine
 10
0.633855
 20
7.578744
 30
0.0
 11
0.633855
 21
7.671730
 31
0.0
  0
SPLINE
  5
112
100
AcDbEntity
  8
text
 62
1
100
AcDbSpline
 70
0
 71
3
 72
19
 73
15
 74
13
 40
0.000000
 40
0.000000
 40
0.000000
 40
0.000000
 40
0.062845
 40
0.120074
 40
0.182949
 40
0.245779
 40
0.302976
 40
0.365816
 40
0.428650
 40
0.485850
 40
0.548681
 40
0.611557
 40
0.668788
 40
0.731627
 40
0.731627
 40
0.731627
 40
0.731627
 10
0.517591
 20
7.625230
 30
0.0
 10
0.520080
 20
7.646584
 30
0.0
 10
0.524834
 20
7.687384
 30
0.0
 10
0.571980
 20
7.733160
 30
0.0
 10
0.633755
 20
7.745772
 30
0.0
 10
0.696010
 20
7.733160
 30
0.0
 10
0.741735
 20
7.687369
 30
0.0
 10
0.754339
 20
7.625232
 30
0.0
 10
0.741733
 20
7.563095
 30
0.0
 10
0.696011
 20
7.517304
 30
0.0
 10
0.633755
 20
7.504686
 30
0.0
 10
0.571979
 20
7.517304
 30
0.0
 10
0.524837
 20
7.563080
 30
0.0
 10
0.520080
 20
7.603878
 30
0.0
 10
0.517591
 20
7.625230
 30
0.0
 11
0.517591
 21
7.625230
 31
0.0
 11
0.532230
 21
7.686346
 31
0.0
 11
0.572706
 21
7.726804
 31
0.0
 11
0.633855
 21
7.741438
 31
0.0
 11
0.694956
 21
7.726804
 31
0.0
 11
0.735388
 21
7.686346
 31
0.0
 11
0.750008
 21
7.625230
 31
0.0
 11
0.735388
 21
7.564120
 31
0.0
 11
0.694956
 21
7.523659
 31
0.0
 11
0.633855
 21
7.509022
 31
0.0
 11
0.572706
 21
7.523659
 31
0.0
 11
0.532230
 21
7.564120
 31
0.0
 11
0.517591
 21
7.625230
 31
0.0
  0
LINE
  5
113
100
AcDbEntity
  8
text
 62
1
100
AcDbLine
 10
0.587369
 20
6.920387
 30
0.0
 11
0.680299
 21
6.920387
 31
0.0
  0
LINE
  5
114
100
AcDbEntity
  8
text
 62
1
100
AcDbLine
 10
0.633855
 20
6.873901
 30
0.0
 11
0.633855
 21
6.966887
 31
0.0
  0
SPLINE
  5
115
100
AcDbEntity
  8
text
 62
1
100
AcDbSpline
 70
0
 71
3
 72
19
 73
15
 74
13
 40
0.000000
 40
0.000000
 40
0.000000
 40
0.000000
 40
0.062845
 40
0.120074
 40
0.182949
 40
0.245779
 40
0.302976
 40
0.365816
 40
0.428650
 40
0.485850
 40
0.548681
 40
0.611557
 40
0.668788
 40
0.731627
 40
0.731627
 40
0.731627
 40
0.731627
 10
0.517591
 20
6.920387
 30
0.0
 10
0.520080
 20
6.941742
 30
0.0
 10
0.524834
 20
6.982542
 30
0.0
 10
0.571980
 20
7.028317
 30
0.0
 10
0.633755
 20
7.040929
 30
0.0
 10
0.696010
 20
7.028318
 30
0.0
 10
0.741735
 20
6.982526
 30
0.0
 10
0.754339
 20
6.920389
 30
0.0
 10
0.741733
 20
6.858253
 30
0.0
 10
0.696011
 20
6.812461
 30
0.0
 10
0.633755
 20
6.799844
 30
0.0
 10
0.571979
 20
6.812461
 30
0.0
 10
0.524837
 20
6.858238
 30
0.0
 10
0.520080
 20
6.899036
 30
0.0
 10
0.517591
 20
6.920387
 30
0.0
 11
0.517591
 21
6.920387
 31
0.0
 11
0.532230
 21
6.981503
 31
0.0
 11
0.572706
 21
7.021962
 31
0.0
 11
0.633855
 21
7.036596
 31
0.0
 11
0.694956
 21
7.021962
 31
0.0
 11
0.735388
 21
6.981503
 31
0.0
 11
0.750008
 21
6.920387
 31
0.0
 11
0.735388
 21
6.859278
 31
0.0
 11
0.694956
 21
6.818817
 31
0.0
 11
0.633855
 21
6.804179
 31
0.0
 11
0.572706
 21
6.818817
 31
0.0
 11
0.532230
 21
6.859278
 31
0.0
 11
0.517591
 21
6.920387
 31
0.0
  0
LINE
  5
116
100
AcDbEntity
  8
text
 62
4
100
AcDbLine
 10
0.626810
 20
9.953337
 30
0.0
 11
0.626810
 21
9.953337
 31
0.0
  0
SPLINE
  5
117
100
AcDbEntity
  8
text
 62
4
100
AcDbSpline
 70
0
 71
3
 72
31
 73
27
 74
25
 40
0.000000
 40
0.000000
 40
0.000000
 40
0.000000
 40
0.002231
 40
0.004476
 40
0.006796
 40
0.009181
 40
0.011600
 40
0.014069
 40
0.016538
 40
0.018957
 40
0.021342
 40
0.023662
 40
0.025908
 40
0.028138
 40
0.030369
 40
0.032614
 40
0.034935
 40
0.037319
 40
0.039738
 40
0.042207
 40
0.044677
 40
0.047095
 40
0.049480
 40
0.051801
 40
0.054046
 40
0.056276
 40
0.056276
 40
0.056276
 40
0.056276
 10
0.626810
 20
9.953337
 30
0.0
 10
0.626064
 20
9.953401
 30
0.0
 10
0.624567
 20
9.953529
 30
0.0
 10
0.622484
 20
9.954533
 30
0.0
 10
0.620705
 20
9.956049
 30
0.0
 10
0.619349
 20
9.958032
 30
0.0
 10
0.618499
 20
9.960327
 30
0.0
 10
0.618209
 20
9.962785
 30
0.0
 10
0.618499
 20
9.965244
 30
0.0
 10
0.619349
 20
9.967539
 30
0.0
 10
0.620705
 20
9.969519
 30
0.0
 10
0.622484
 20
9.971046
 30
0.0
 10
0.624567
 20
9.972012
 30
0.0
 10
0.626810
 20
9.972344
 30
0.0
 10
0.629053
 20
9.972012
 30
0.0
 10
0.631135
 20
9.971046
 30
0.0
 10
0.632914
 20
9.969519
 30
0.0
 10
0.634271
 20
9.967539
 30
0.0
 10
0.635120
 20
9.965244
 30
0.0
 10
0.635411
 20
9.962785
 30
0.0
 10
0.635120
 20
9.960327
 30
0.0
 10
0.634271
 20
9.958032
 30
0.0
 10
0.632914
 20
9.956049
 30
0.0
 10
0.631135
 20
9.954533
 30
0.0
 10
0.629053
 20
9.953529
 30
0.0
 10
0.627556
 20
9.953401
 30
0.0
 10
0.626810
 20
9.953337
 30
0.0
 11
0.626810
 21
9.953337
 31
0.0
 11
0.624603
 21
9.953661
 31
0.0
 11
0.622563
 21
9.954599
 31
0.0
 11
0.620797
 21
9.956104
 31
0.0
 11
0.619442
 21
9.958067
 31
0.0
 11
0.618597
 21
9.960333
 31
0.0
 11
0.618306
 21
9.962785
 31
0.0
 11
0.618597
 21
9.965237
 31
0.0
 11
0.619442
 21
9.967504
 31
0.0
 11
0.620797
 21
9.969466
 31
0.0
 11
0.622563
 21
9.970971
 31
0.0
 11
0.624603
 21
9.971910
 31
0.0
 11
0.626810
 21
9.972234
 31
0.0
 11
0.629016
 21
9.971910
 31
0.0
 11
0.631056
 21
9.970971
 31
0.0
 11
0.632823
 21
9.969466
 31
0.0
 11
0.634177
 21
9.967504
 31
0.0
 11
0.635022
 21
9.965237
 31
0.0
 11
0.635313
 21
9.962785
 31
0.0
 11
0.635022
 21
9.960333
 31
0.0
 11
0.634177
 21
9.958067
 31
0.0
 11
0.632823
 21
9.956104
 31
0.0
 11
0.631056
 21
9.954599
 31
0.0
 11
0.629016
 21
9.953661
 31
0.0
 11
0.626810
 21
9.953337
 31
0.0
  0
LINE
  5
118
100
AcDbEntity
  8
text
 62
4
100
AcDbLine
 10
0.626810
 20
9.078217
 30
0.0
 11
0.626810
 21
9.078217
 31
0.0
  0
SPLINE
  5
119
100
AcDbEntity
  8
text
 62
4
100
AcDbSpline
 70
0
 71
3
 72
31
 73
27
 74
25
 40
0.000000
 40
0.000000
 40
0.000000
 40
0.000000
 40
0.002231
 40
0.004476
 40
0.006796
 40
0.009181
 40
0.011600
 40
0.014069
 40
0.016538
 40
0.018957
 40
0.021342
 40
0.023662
 40
0.025908
 40
0.028138
 40
0.030369
 40
0.032614
 40
0.034935
 40
0.037319
 40
0.039738
 40
0.042207
 40
0.044677
 40
0.047095
 40
0.049480
 40
0.051801
 40
0.054046
 40
0.056276
 40
0.056276
 40
0.056276
 40
0.056276
 10
0.626810
 20
9.078217
 30
0.0
 10
0.626064
 20
9.078280
 30
0.0
 10
0.624567
 20
9.078408
 30
0.0
 10
0.622484
 20
9.079412
 30
0.0
 10
0.620705
 20
9.080929
 30
0.0
 10
0.619349
 20
9.082912
 30
0.0
 10
0.618499
 20
9.085207
 30
0.0
 10
0.618209
 20
9.087665
 30
0.0
 10
0.618499
 20
9.090123
 30
0.0
 10
0.619349
 20
9.092419
 30
0.0
 10
0.620705
 20
9.094399
 30
0.0
 10
0.622484
 20
9.095926
 30
0.0
 10
0.624567
 20
9.096892
 30
0.0
 10
0.626810
 20
9.097224
 30
0.0
 10
0.629053
 20
9.096892
 30
0.0
 10
0.631135
 20
9.095926
 30
0.0
 10
0.632914
 20
9.094399
 30
0.0
 10
0.634271
 20
9.092419
 30
0.0
 10
0.635120
 20
9.090123
 30
0.0
 10
0.635411
 20
9.087665
 30
0.0
 10
0.635120
 20
9.085207
 30
0.0
 10
0.634271
 20
9.082912
 30
0.0
 10
0.632914
 20
9.080929
 30
0.0
 10
0.631135
 20
9.079412
 30
0.0
 10
0.629053
 20
9.078408
 30
0.0
 10
0.627556
 20
9.078280
 30
0.0
 10
0.626810
 20
9.078217
 30
0.0
 11
0.626810
 21
9.078217
 31
0.0
 11
0.624603
 21
9.078540
 31
0.0
 11
0.622563
 21
9.079479
 31
0.0
 11
0.620797
 21
9.080984
 31
0.0
 11
0.619442
 21
9.082947
 31
0.0
 11
0.618597
 21
9.085213
 31
0.0
 11
0.618306
 21
9.087665
 31
0.0
 11
0.618597
 21
9.090117
 31
0.0
 11
0.619442
 21
9.092384
 31
0.0
 11
0.620797
 21
9.094346
 31
0.0
 11
0.622563
 21
9.095851
 31
0.0
 11
0.624603
 21
9.096790
 31
0.0
 11
0.626810
 21
9.097114
 31
0.0
 11
0.629016
 21
9.096790
 31
0.0
 11
0.631056
 21
9.095851
 31
0.0
 11
0.632823
 21
9.094346
 31
0.0
 11
0.634177
 21
9.092384
 31
0.0
 11
0.635022
 21
9.090117
 31
0.0
 11
0.635313
 21
9.087665
 31
0.0
 11
0.635022
 21
9.085213
 31
0.0
 11
0.634177
 21
9.082947
 31
0.0
 11
0.632823
 21
9.080984
 31
0.0
 11
0.631056
 21
9.079479
 31
0.0
 11
0.629016
 21
9.078540
 31
0.0
 11
0.626810
 21
9.078217
 31
0.0
  0
LINE
  5
11a
100
AcDbEntity
  8
text
 62
4
100
AcDbLine
 10
0.626810
 20
9.520164
 30
0.0
 11
0.626810
 21
9.520164
 31
0.0
  0
LINE
  5
11b
100
AcDbEntity
  8
text
 62
7
100
AcDbLine
 10
0.652372
 20
10.561266
 30
0.0
 11
0.582368
 21
10.561266
 31
0.0
  0
LINE
  5
11c
100
AcDbEntity
  8
text
 62
7
100
AcDbLine
 10
0.582368
 20
10.561266
 30
0.0
 11
0.582368
 21
10.300005
 31
0.0
  0
LINE
  5
11d
100
AcDbEntity
  8
text
 62
7
100
AcDbLine
 10
0.582368
 20
10.300005
 30
0.0
 11
0.652372
 21
10.300005
 31
0.0
  0
LINE
  5
11e
100
AcDbEntity
  8
text
 62
7
100
AcDbLine
 10
0.652372
 20
10.300005
 30
0.0
 11
0.652372
 21
10.561266
 31
0.0
  0
LINE
  5
11f
100
AcDbEntity
  8
text
 62
7
100
AcDbLine
 10
0.652372
 20
10.561266
 30
0.0
 11
0.652372
 21
10.561266
 31
0.0
  0
LINE
  5
120
100
AcDbEntity
  8
text
 62
7
100
AcDbLine
 10
1.009882
 20
10.561266
 30
0.0
 11
0.939849
 21
10.561266
 31
0.0
  0
LINE
  5
121
100
AcDbEntity
  8
text
 62
7
100
AcDbLine
 10
0.939849
 20
10.561266
 30
0.0
 11
0.939849
 21
10.300005
 31
0.0
  0
LINE
  5
122
100
AcDbEntity
  8
text
 62
7
100
AcDbLine
 10
0.939849
 20
10.300005
 30
0.0
 11
1.009882
 21
10.300005
 31
0.0
  0
LINE
  5
123
100
AcDbEntity
  8
text
 62
7
100
AcDbLine
 10
1.009882
 20
10.300005
 30
0.0
 11
1.009882
 21
10.561266
 31
0.0
  0
LINE
  5
124
100
AcDbEntity
  8
text
 62
7
100
AcDbLine
 10
1.009882
 20
10.561266
 30
0.0
 11
1.009882
 21
10.561266
 31
0.0
  0
LINE
  5
125
100
AcDbEntity
  8
text
 62
7
100
AcDbLine
 10
0.749859
 20
10.362710
 30
0.0
 11
0.842333
 21
10.362710
 31
0.0
  0
LINE
  5
126
100
AcDbEntity
  8
text
 62
7
100
AcDbLine
 10
0.842333
 20
10.362710
 30
0.0
 11
0.842333
 21
10.498502
 31
0.0
  0
LINE
  5
127
100
AcDbEntity
  8
text
 62
7
100
AcDbLine
 10
0.842333
 20
10.498502
 30
0.0
 11
0.679855
 21
10.498502
 31
0.0
  0
LINE
  5
128
100
AcDbEntity
  8
text
 62
7
100
AcDbLine
 10
0.679855
 20
10.498502
 30
0.0
 11
0.679855
 21
10.561266
 31
0.0
  0
LINE
  5
129
100
AcDbEntity
  8
text
 62
7
100
AcDbLine
 10
0.679855
 20
10.561266
 30
0.0
 11
0.887914
 21
10.561325
 31
0.0
  0
SPLINE
  5
12a
100
AcDbEntity
  8
text
 62
4
100
AcDbSpline
 70
0
 71
3
 72
31
 73
27
 74
25
 40
0.000000
 40
0.000000
 40
0.000000
 40
0.000000
 40
0.002231
 40
0.004476
 40
0.006796
 40
0.009181
 40
0.011600
 40
0.014069
 40
0.016538
 40
0.018957
 40
0.021342
 40
0.023662
 40
0.025908
 40
0.028138
 40
0.030369
 40
0.032614
 40
0.034935
 40
0.037319
 40
0.039738
 40
0.042207
 40
0.044677
 40
0.047095
 40
0.049480
 40
0.051801
 40
0.054046
 40
0.056276
 40
0.056276
 40
0.056276
 40
0.056276
 10
0.626810
 20
9.520164
 30
0.0
 10
0.626064
 20
9.520227
 30
0.0
 10
0.624567
 20
9.520355
 30
0.0
 10
0.622484
 20
9.521359
 30
0.0
 10
0.620705
 20
9.522876
 30
0.0
 10
0.619349
 20
9.524859
 30
0.0
 10
0.618499
 20
9.527154
 30
0.0
 10
0.618209
 20
9.529612
 30
0.0
 10
0.618499
 20
9.532070
 30
0.0
 10
0.619349
 20
9.534366
 30
0.0
 10
0.620705
 20
9.536346
 30
0.0
 10
0.622484
 20
9.537873
 30
0.0
 10
0.624567
 20
9.538839
 30
0.0
 10
0.626810
 20
9.539171
 30
0.0
 10
0.629053
 20
9.538839
 30
0.0
 10
0.631135
 20
9.537873
 30
0.0
 10
0.632914
 20
9.536346
 30
0.0
 10
0.634271
 20
9.534366
 30
0.0
 10
0.635120
 20
9.532070
 30
0.0
 10
0.635411
 20
9.529612
 30
0.0
 10
0.635120
 20
9.527154
 30
0.0
 10
0.634271
 20
9.524859
 30
0.0
 10
0.632914
 20
9.522876
 30
0.0
 10
0.631135
 20
9.521359
 30
0.0
 10
0.629053
 20
9.520355
 30
0.0
 10
0.627556
 20
9.520227
 30
0.0
 10
0.626810
 20
9.520164
 30
0.0
 11
0.626810
 21
9.520164
 31
0.0
 11
0.624603
 21
9.520487
 31
0.0
 11
0.622563
 21
9.521426
 31
0.0
 11
0.620797
 21
9.522931
 31
0.0
 11
0.619442
 21
9.524894
 31
0.0
 11
0.618597
 21
9.527160
 31
0.0
 11
0.618306
 21
9.529612
 31
0.0
 11
0.618597
 21
9.532064
 31
0.0
 11
0.619442
 21
9.534331
 31
0.0
 11
0.620797
 21
9.536293
 31
0.0
 11
0.622563
 21
9.537798
 31
0.0
 11
0.624603
 21
9.538737
 31
0.0
 11
0.626810
 21
9.539061
 31
0.0
 11
0.629016
 21
9.538737
 31
0.0
 11
0.631056
 21
9.537798
 31
0.0
 11
0.632823
 21
9.536293
 31
0.0
 11
0.634177
 21
9.534331
 31
0.0
 11
0.635022
 21
9.532064
 31
0.0
 11
0.635313
 21
9.529612
 31
0.0
 11
0.635022
 21
9.527160
 31
0.0
 11
0.634177
 21
9.524894
 31
0.0
 11
0.632823
 21
9.522931
 31
0.0
 11
0.631056
 21
9.521426
 31
0.0
 11
0.629016
 21
9.520487
 31
0.0
 11
0.626810
 21
9.520164
 31
0.0
  0
LINE
  5
12b
100
AcDbEntity
  8
text
 62
7
100
AcDbLine
 10
0.912395
 20
10.536421
 30
0.0
 11
0.912337
 21
10.324821
 31
0.0
  0
SPLINE
  5
12c
100
AcDbEntity
  8
text
 62
7
100
AcDbSpline
 70
0
 71
3
 72
10
 73
6
 74
4
 40
0.000000
 40
0.000000
 40
0.000000
 40
0.000000
 40
0.012804
 40
0.025337
 40
0.038344
 40
0.038344
 40
0.038344
 40
0.038344
 10
0.887914
 20
10.561325
 30
0.0
 10
0.892205
 20
10.560634
 30
0.0
 10
0.900697
 20
10.559266
 30
0.0
 10
0.910407
 20
10.549335
 30
0.0
 10
0.911724
 20
10.540778
 30
0.0
 10
0.912395
 20
10.536421
 30
0.0
 11
0.887914
 21
10.561325
 31
0.0
 11
0.900258
 21
10.557925
 31
0.0
 11
0.909047
 21
10.548990
 31
0.0
 11
0.912395
 21
10.536421
 31
0.0
  0
LINE
  5
12d
100
AcDbEntity
  8
text
 62
7
100
AcDbLine
 10
0.887797
 20
10.299975
 30
0.0
 11
0.679855
 21
10.299975
 31
0.0
  0
LINE
  5
12e
100
AcDbEntity
  8
text
 62
7
100
AcDbLine
 10
0.679855
 20
10.299975
 30
0.0
 11
0.679855
 21
10.462624
 31
0.0
  0
LINE
  5
12f
100
AcDbEntity
  8
text
 62
7
100
AcDbLine
 10
0.679855
 20
10.462624
 30
0.0
 11
0.749859
 21
10.462624
 31
0.0
  0
LINE
  5
130
100
AcDbEntity
  8
text
 62
7
100
AcDbLine
 10
0.749859
 20
10.462624
 30
0.0
 11
0.749859
 21
10.362710
 31
0.0
  0
LINE
  5
131
100
AcDbEntity
  8
text
 62
7
100
AcDbLine
 10
0.749859
 20
10.362710
 30
0.0
 11
0.749859
 21
10.362710
 31
0.0
  0
LINE
  5
132
100
AcDbEntity
  8
text
 62
7
100
AcDbLine
 10
0.530375
 20
10.561325
 30
0.0
 11
0.484823
 21
10.561266
 31
0.0
  0
LINE
  5
133
100
AcDbEntity
  8
text
 62
7
100
AcDbLine
 10
0.484823
 20
10.561266
 30
0.0
 11
0.274229
 21
10.561266
 31
0.0
  0
LINE
  5
134
100
AcDbEntity
  8
text
 62
7
100
AcDbLine
 10
0.274229
 20
10.561266
 30
0.0
 11
0.274229
 21
10.299975
 31
0.0
  0
LINE
  5
135
100
AcDbEntity
  8
text
 62
7
100
AcDbLine
 10
0.274229
 20
10.299975
 30
0.0
 11
0.344203
 21
10.299975
 31
0.0
  0
LINE
  5
136
100
AcDbEntity
  8
text
 62
7
100
AcDbLine
 10
0.344203
 20
10.299975
 30
0.0
 11
0.344203
 21
10.498502
 31
0.0
  0
LINE
  5
137
100
AcDbEntity
  8
text
 62
7
100
AcDbLine
 10
0.344203
 20
10.498502
 30
0.0
 11
0.379526
 21
10.498502
 31
0.0
  0
LINE
  5
138
100
AcDbEntity
  8
text
 62
7
100
AcDbLine
 10
0.379526
 20
10.498502
 30
0.0
 11
0.379526
 21
10.299975
 31
0.0
  0
LINE
  5
139
100
AcDbEntity
  8
text
 62
7
100
AcDbLine
 10
0.379526
 20
10.299975
 30
0.0
 11
0.449559
 21
10.299975
 31
0.0
  0
LINE
  5
13a
100
AcDbEntity
  8
text
 62
7
100
AcDbLine
 10
0.449559
 20
10.299975
 30
0.0
 11
0.449559
 21
10.498502
 31
0.0
  0
LINE
  5
13b
100
AcDbEntity
  8
text
 62
7
100
AcDbLine
 10
0.449559
 20
10.498502
 30
0.0
 11
0.484823
 21
10.498502
 31
0.0
  0
LINE
  5
13c
100
AcDbEntity
  8
text
 62
7
100
AcDbLine
 10
0.484823
 20
10.498502
 30
0.0
 11
0.484823
 21
10.299975
 31
0.0
  0
LINE
  5
13d
100
AcDbEntity
  8
text
 62
7
100
AcDbLine
 10
0.484823
 20
10.299975
 30
0.0
 11
0.554885
 21
10.299975
 31
0.0
  0
LINE
  5
13e
100
AcDbEntity
  8
text
 62
7
100
AcDbLine
 10
0.554885
 20
10.299975
 30
0.0
 11
0.554944
 21
10.536421
 31
0.0
  0
SPLINE
  5
13f
100
AcDbEntity
  8
text
 62
7
100
AcDbSpline
 70
0
 71
3
 72
10
 73
6
 74
4
 40
0.000000
 40
0.000000
 40
0.000000
 40
0.000000
 40
0.012990
 40
0.025504
 40
0.038368
 40
0.038368
 40
0.038368
 40
0.038368
 10
0.912337
 20
10.324821
 30
0.0
 10
0.911671
 20
10.320467
 30
0.0
 10
0.910365
 20
10.311919
 30
0.0
 10
0.900622
 20
10.302002
 30
0.0
 10
0.892111
 20
10.300657
 30
0.0
 10
0.887797
 20
10.299975
 30
0.0
 11
0.912337
 21
10.324821
 31
0.0
 11
0.908999
 21
10.312267
 31
0.0
 11
0.900209
 21
10.303360
 31
0.0
 11
0.887797
 21
10.299975
 31
0.0
  0
LINE
  5
140
100
AcDbEntity
  8
text
 62
5
100
AcDbLine
 10
0.072046
 20
5.448588
 30
0.0
 11
8.072398
 21
5.448588
 31
0.0
  0
LINE
  5
141
100
AcDbEntity
  8
text
 62
5
100
AcDbLine
 10
8.072398
 20
5.448588
 30
0.0
 11
8.072398
 21
-5.070811
 31
0.0
  0
LINE
  5
142
100
AcDbEntity
  8
text
 62
5
100
AcDbLine
 10
8.072398
 20
-5.070811
 30
0.0
 11
0.072046
 21
-5.070811
 31
0.0
  0
LINE
  5
143
100
AcDbEntity
  8
text
 62
5
100
AcDbLine
 10
0.072046
 20
-5.070811
 30
0.0
 11
0.072046
 21
5.448588
 31
0.0
  0
LINE
  5
144
100
AcDbEntity
  8
text
 62
1
100
AcDbLine
 10
0.952294
 20
0.294622
 30
0.0
 11
0.327960
 21
0.294622
 31
0.0
  0
LINE
  5
145
100
AcDbEntity
  8
text
 62
1
100
AcDbLine
 10
0.327960
 20
0.294622
 30
0.0
 11
0.327960
 21
5.349854
 31
0.0
  0
LINE
  5
146
100
AcDbEntity
  8
text
 62
1
100
AcDbLine
 10
0.327960
 20
5.349854
 30
0.0
 11
2.056811
 21
5.349854
 31
0.0
  0
LINE
  5
147
100
AcDbEntity
  8
text
 62
1
100
AcDbLine
 10
2.056811
 20
5.349854
 30
0.0
 11
2.056811
 21
0.294622
 31
0.0
  0
LINE
  5
148
100
AcDbEntity
  8
text
 62
1
100
AcDbLine
 10
2.056811
 20
0.294622
 30
0.0
 11
0.327960
 21
0.294622
 31
0.0
  0
SPLINE
  5
149
100
AcDbEntity
  8
text
 62
7
100
AcDbSpline
 70
0
 71
3
 72
10
 73
6
 74
4
 40
0.000000
 40
0.000000
 40
0.000000
 40
0.000000
 40
0.013009
 40
0.025557
 40
0.038420
 40
0.038420
 40
0.038420
 40
0.038420
 10
0.554944
 20
10.536421
 30
0.0
 10
0.554273
 20
10.540780
 30
0.0
 10
0.552954
 20
10.549343
 30
0.0
 10
0.543206
 20
10.559277
 30
0.0
 10
0.534687
 20
10.560637
 30
0.0
 10
0.530375
 20
10.561325
 30
0.0
 11
0.554944
 21
10.536421
 31
0.0
 11
0.551592
 21
10.548990
 31
0.0
 11
0.542781
 21
10.557925
 31
0.0
 11
0.530375
 21
10.561325
 31
0.0
  0
LINE
  5
14a
100
AcDbEntity
  8
text
 62
1
100
AcDbLine
 10
1.881947
 20
5.225265
 30
0.0
 11
1.881947
 21
5.225265
 31
0.0
  0
SPLINE
  5
14b
100
AcDbEntity
  8
text
 62
1
100
AcDbSpline
 70
0
 71
3
 72
19
 73
15
 74
13
 40
0.000000
 40
0.000000
 40
0.000000
 40
0.000000
 40
0.004968
 40
0.010009
 40
0.015421
 40
0.020828
 40
0.025852
 40
0.030816
 40
0.035784
 40
0.040812
 40
0.046220
 40
0.051633
 40
0.056679
 40
0.061650
 40
0.061650
 40
0.061650
 40
0.061650
 10
1.881947
 20
5.225265
 30
0.0
 10
1.881648
 20
5.223590
 30
0.0
 10
1.881045
 20
5.220215
 30
0.0
 10
1.876832
 20
5.216674
 30
0.0
 10
1.871544
 20
5.215401
 30
0.0
 10
1.866191
 20
5.216669
 30
0.0
 10
1.862181
 20
5.220222
 30
0.0
 10
1.860645
 20
5.225266
 30
0.0
 10
1.862182
 20
5.230311
 30
0.0
 10
1.866189
 20
5.233871
 30
0.0
 10
1.871544
 20
5.235145
 30
0.0
 10
1.876834
 20
5.233866
 30
0.0
 10
1.881044
 20
5.230318
 30
0.0
 10
1.881648
 20
5.226941
 30
0.0
 10
1.881947
 20
5.225265
 30
0.0
 11
1.881947
 21
5.225265
 31
0.0
 11
1.880524
 21
5.220505
 31
0.0
 11
1.876786
 21
5.217122
 31
0.0
 11
1.871530
 21
5.215834
 31
0.0
 11
1.866279
 21
5.217122
 31
0.0
 11
1.862564
 21
5.220505
 31
0.0
 11
1.861155
 21
5.225265
 31
0.0
 11
1.862564
 21
5.230028
 31
0.0
 11
1.866279
 21
5.233418
 31
0.0
 11
1.871530
 21
5.234709
 31
0.0
 11
1.876786
 21
5.233418
 31
0.0
 11
1.880524
 21
5.230028
 31
0.0
 11
1.881947
 21
5.225265
 31
0.0
  0
LINE
  5
14c
100
AcDbEntity
  8
text
 62
1
100
AcDbLine
 10
0.615719
 20
0.413885
 30
0.0
 11
0.615719
 21
0.413885
 31
0.0
  0
SPLINE
  5
14d
100
AcDbEntity
  8
text
 62
1
100
AcDbSpline
 70
0
 71
3
 72
19
 73
15
 74
13
 40
0.000000
 40
0.000000
 40
0.000000
 40
0.000000
 40
0.003531
 40
0.007403
 40
0.011798
 40
0.016178
 40
0.020063
 40
0.023598
 40
0.027124
 40
0.031006
 40
0.035387
 40
0.039781
 40
0.043651
 40
0.047173
 40
0.047173
 40
0.047173
 40
0.047173
 10
0.615719
 20
0.413885
 30
0.0
 10
0.615457
 20
0.412698
 30
0.0
 10
0.614906
 20
0.410211
 30
0.0
 10
0.611415
 20
0.407817
 30
0.0
 10
0.607222
 20
0.406962
 30
0.0
 10
0.602957
 20
0.407824
 30
0.0
 10
0.599643
 20
0.410207
 30
0.0
 10
0.598217
 20
0.413882
 30
0.0
 10
0.599645
 20
0.417554
 30
0.0
 10
0.602959
 20
0.419931
 30
0.0
 10
0.607222
 20
0.420794
 30
0.0
 10
0.611414
 20
0.419938
 30
0.0
 10
0.614904
 20
0.417550
 30
0.0
 10
0.615456
 20
0.415068
 30
0.0
 10
0.615719
 20
0.413885
 30
0.0
 11
0.615719
 21
0.413885
 31
0.0
 11
0.614558
 21
0.410550
 31
0.0
 11
0.611505
 21
0.408169
 31
0.0
 11
0.607205
 21
0.407260
 31
0.0
 11
0.602920
 21
0.408169
 31
0.0
 11
0.599851
 21
0.410550
 31
0.0
 11
0.598678
 21
0.413885
 31
0.0
 11
0.599851
 21
0.417210
 31
0.0
 11
0.602920
 21
0.419587
 31
0.0
 11
0.607205
 21
0.420496
 31
0.0
 11
0.611505
 21
0.419587
 31
0.0
 11
0.614558
 21
0.417210
 31
0.0
 11
0.615719
 21
0.413885
 31
0.0
  0
LINE
  5
14e
100
AcDbEntity
  8
text
 62
1
100
AcDbLine
 10
1.589804
 20
4.331841
 30
0.0
 11
1.682734
 21
4.331841
 31
0.0
  0
LINE
  5
14f
100
AcDbEntity
  8
text
 62
1
100
AcDbLine
 10
1.636290
 20
4.285355
 30
0.0
 11
1.636290
 21
4.378341
 31
0.0
  0
SPLINE
  5
150
100
AcDbEntity
  8
text
 62
1
100
AcDbSpline
 70
0
 71
3
 72
19
 73
15
 74
13
 40
0.000000
 40
0.000000
 40
0.000000
 40
0.000000
 40
0.062845
 40
0.120074
 40
0.182949
 40
0.245779
 40
0.302976
 40
0.365816
 40
0.428650
 40
0.485850
 40
0.548681
 40
0.611557
 40
0.668788
 40
0.731627
 40
0.731627
 40
0.731627
 40
0.731627
 10
1.520026
 20
4.331841
 30
0.0
 10
1.522515
 20
4.353195
 30
0.0
 10
1.527269
 20
4.393995
 30
0.0
 10
1.574415
 20
4.439771
 30
0.0
 10
1.636190
 20
4.452383
 30
0.0
 10
1.698445
 20
4.439771
 30
0.0
 10
1.744170
 20
4.393980
 30
0.0
 10
1.756774
 20
4.331843
 30
0.0
 10
1.744168
 20
4.269706
 30
0.0
 10
1.698446
 20
4.223915
 30
0.0
 10
1.636190
 20
4.211297
 30
0.0
 10
1.574414
 20
4.223915
 30
0.0
 10
1.527272
 20
4.269691
 30
0.0
 10
1.522515
 20
4.310489
 30
0.0
 10
1.520026
 20
4.331841
 30
0.0
 11
1.520026
 21
4.331841
 31
0.0
 11
1.534665
 21
4.392957
 31
0.0
 11
1.575141
 21
4.433415
 31
0.0
 11
1.636290
 21
4.448049
 31
0.0
 11
1.697391
 21
4.433415
 31
0.0
 11
1.737823
 21
4.392957
 31
0.0
 11
1.752443
 21
4.331841
 31
0.0
 11
1.737823
 21
4.270731
 31
0.0
 11
1.697391
 21
4.230270
 31
0.0
 11
1.636290
 21
4.215633
 31
0.0
 11
1.575141
 21
4.230270
 31
0.0
 11
1.534665
 21
4.270731
 31
0.0
 11
1.520026
 21
4.331841
 31
0.0
  0
LINE
  5
151
100
AcDbEntity
  8
text
 62
1
100
AcDbLine
 10
1.603944
 20
4.706247
 30
0.0
 11
1.696874
 21
4.706247
 31
0.0
  0
LINE
  5
152
100
AcDbEntity
  8
text
 62
1
100
AcDbLine
 10
1.650430
 20
4.659761
 30
0.0
 11
1.650430
 21
4.752747
 31
0.0
  0
SPLINE
  5
153
100
AcDbEntity
  8
text
 62
1
100
AcDbSpline
 70
0
 71
3
 72
19
 73
15
 74
13
 40
0.000000
 40
0.000000
 40
0.000000
 40
0.000000
 40
0.062845
 40
0.120074
 40
0.182949
 40
0.245779
 40
0.302976
 40
0.365816
 40
0.428650
 40
0.485850
 40
0.548681
 40
0.611557
 40
0.668788
 40
0.731627
 40
0.731627
 40
0.731627
 40
0.731627
 10
1.534166
 20
4.706247
 30
0.0
 10
1.536655
 20
4.727601
 30
0.0
 10
1.541409
 20
4.768402
 30
0.0
 10
1.588555
 20
4.814177
 30
0.0
 10
1.650330
 20
4.826789
 30
0.0
 10
1.712585
 20
4.814178
 30
0.0
 10
1.758310
 20
4.768386
 30
0.0
 10
1.770914
 20
4.706249
 30
0.0
 10
1.758308
 20
4.644113
 30
0.0
 10
1.712586
 20
4.598321
 30
0.0
 10
1.650330
 20
4.585704
 30
0.0
 10
1.588554
 20
4.598321
 30
0.0
 10
1.541412
 20
4.644097
 30
0.0
 10
1.536655
 20
4.684896
 30
0.0
 10
1.534166
 20
4.706247
 30
0.0
 11
1.534166
 21
4.706247
 31
0.0
 11
1.548805
 21
4.767363
 31
0.0
 11
1.589281
 21
4.807821
 31
0.0
 11
1.650430
 21
4.822456
 31
0.0
 11
1.711531
 21
4.807821
 31
0.0
 11
1.751963
 21
4.767363
 31
0.0
 11
1.766583
 21
4.706247
 31
0.0
 11
1.751963
 21
4.645138
 31
0.0
 11
1.711531
 21
4.604676
 31
0.0
 11
1.650430
 21
4.590039
 31
0.0
 11
1.589281
 21
4.604676
 31
0.0
 11
1.548805
 21
4.645138
 31
0.0
 11
1.534166
 21
4.706247
 31
0.0
  0
LINE
  5
154
100
AcDbEntity
  8
text
 62
1
100
AcDbLine
 10
1.589804
 20
4.002530
 30
0.0
 11
1.682734
 21
4.002530
 31
0.0
  0
LINE
  5
155
100
AcDbEntity
  8
text
 62
1
100
AcDbLine
 10
1.636290
 20
3.956044
 30
0.0
 11
1.636290
 21
4.049030
 31
0.0
  0
SPLINE
  5
156
100
AcDbEntity
  8
text
 62
1
100
AcDbSpline
 70
0
 71
3
 72
19
 73
15
 74
13
 40
0.000000
 40
0.000000
 40
0.000000
 40
0.000000
 40
0.062845
 40
0.120074
 40
0.182949
 40
0.245779
 40
0.302976
 40
0.365816
 40
0.428650
 40
0.485850
 40
0.548681
 40
0.611557
 40
0.668788
 40
0.731627
 40
0.731627
 40
0.731627
 40
0.731627
 10
1.520026
 20
4.002530
 30
0.0
 10
1.522515
 20
4.023884
 30
0.0
 10
1.527269
 20
4.064684
 30
0.0
 10
1.574415
 20
4.110460
 30
0.0
 10
1.636190
 20
4.123072
 30
0.0
 10
1.698445
 20
4.110460
 30
0.0
 10
1.744170
 20
4.064669
 30
0.0
 10
1.756774
 20
4.002532
 30
0.0
 10
1.744168
 20
3.940395
 30
0.0
 10
1.698446
 20
3.894603
 30
0.0
 10
1.636190
 20
3.881986
 30
0.0
 10
1.574414
 20
3.894604
 30
0.0
 10
1.527272
 20
3.940380
 30
0.0
 10
1.522515
 20
3.981178
 30
0.0
 10
1.520026
 20
4.002530
 30
0.0
 11
1.520026
 21
4.002530
 31
0.0
 11
1.534665
 21
4.063646
 31
0.0
 11
1.575141
 21
4.104104
 31
0.0
 11
1.636290
 21
4.118738
 31
0.0
 11
1.697391
 21
4.104104
 31
0.0
 11
1.737823
 21
4.063646
 31
0.0
 11
1.752443
 21
4.002530
 31
0.0
 11
1.737823
 21
3.941420
 31
0.0
 11
1.697391
 21
3.900959
 31
0.0
 11
1.636290
 21
3.886321
 31
0.0
 11
1.575141
 21
3.900959
 31
0.0
 11
1.534665
 21
3.941420
 31
0.0
 11
1.520026
 21
4.002530
 31
0.0
  0
LINE
  5
157
100
AcDbEntity
  8
text
 62
1
100
AcDbLine
 10
1.603944
 20
0.999318
 30
0.0
 11
1.696874
 21
0.999318
 31
0.0
  0
LINE
  5
158
100
AcDbEntity
  8
text
 62
1
100
AcDbLine
 10
1.650430
 20
0.952832
 30
0.0
 11
1.650430
 21
1.045818
 31
0.0
  0
SPLINE
  5
159
100
AcDbEntity
  8
text
 62
1
100
AcDbSpline
 70
0
 71
3
 72
19
 73
15
 74
13
 40
0.000000
 40
0.000000
 40
0.000000
 40
0.000000
 40
0.062845
 40
0.120074
 40
0.182949
 40
0.245779
 40
0.302976
 40
0.365816
 40
0.428650
 40
0.485850
 40
0.548681
 40
0.611557
 40
0.668788
 40
0.731627
 40
0.731627
 40
0.731627
 40
0.731627
 10
1.534166
 20
0.999318
 30
0.0
 10
1.536655
 20
1.020672
 30
0.0
 10
1.541409
 20
1.061473
 30
0.0
 10
1.588555
 20
1.107248
 30
0.0
 10
1.650330
 20
1.119860
 30
0.0
 10
1.712585
 20
1.107249
 30
0.0
 10
1.758310
 20
1.061457
 30
0.0
 10
1.770914
 20
0.999320
 30
0.0
 10
1.758308
 20
0.937184
 30
0.0
 10
1.712586
 20
0.891392
 30
0.0
 10
1.650330
 20
0.878775
 30
0.0
 10
1.588554
 20
0.891392
 30
0.0
 10
1.541412
 20
0.937168
 30
0.0
 10
1.536655
 20
0.977967
 30
0.0
 10
1.534166
 20
0.999318
 30
0.0
 11
1.534166
 21
0.999318
 31
0.0
 11
1.548805
 21
1.060434
 31
0.0
 11
1.589281
 21
1.100892
 31
0.0
 11
1.650430
 21
1.115527
 31
0.0
 11
1.711531
 21
1.100892
 31
0.0
 11
1.751963
 21
1.060434
 31
0.0
 11
1.766583
 21
0.999318
 31
0.0
 11
1.751963
 21
0.938209
 31
0.0
 11
1.711531
 21
0.897747
 31
0.0
 11
1.650430
 21
0.883110
 31
0.0
 11
1.589281
 21
0.897747
 31
0.0
 11
1.548805
 21
0.938209
 31
0.0
 11
1.534166
 21
0.999318
 31
0.0
  0
LINE
  5
15a
100
AcDbEntity
  8
text
 62
1
100
AcDbLine
 10
1.589804
 20
3.676484
 30
0.0
 11
1.682734
 21
3.676484
 31
0.0
  0
LINE
  5
15b
100
AcDbEntity
  8
text
 62
1
100
AcDbLine
 10
1.636290
 20
3.629998
 30
0.0
 11
1.636290
 21
3.722984
 31
0.0
  0
SPLINE
  5
15c
100
AcDbEntity
  8
text
 62
1
100
AcDbSpline
 70
0
 71
3
 72
19
 73
15
 74
13
 40
0.000000
 40
0.000000
 40
0.000000
 40
0.000000
 40
0.062845
 40
0.120074
 40
0.182949
 40
0.245779
 40
0.302976
 40
0.365816
 40
0.428650
 40
0.485850
 40
0.548681
 40
0.611557
 40
0.668788
 40
0.731627
 40
0.731627
 40
0.731627
 40
0.731627
 10
1.520026
 20
3.676484
 30
0.0
 10
1.522515
 20
3.697838
 30
0.0
 10
1.527269
 20
3.738638
 30
0.0
 10
1.574415
 20
3.784414
 30
0.0
 10
1.636190
 20
3.797026
 30
0.0
 10
1.698445
 20
3.784414
 30
0.0
 10
1.744170
 20
3.738623
 30
0.0
 10
1.756774
 20
3.676485
 30
0.0
 10
1.744168
 20
3.614349
 30
0.0
 10
1.698446
 20
3.568557
 30
0.0
 10
1.636190
 20
3.555940
 30
0.0
 10
1.574414
 20
3.568558
 30
0.0
 10
1.527272
 20
3.614334
 30
0.0
 10
1.522515
 20
3.655132
 30
0.0
 10
1.520026
 20
3.676484
 30
0.0
 11
1.520026
 21
3.676484
 31
0.0
 11
1.534665
 21
3.737599
 31
0.0
 11
1.575141
 21
3.778058
 31
0.0
 11
1.636290
 21
3.792692
 31
0.0
 11
1.697391
 21
3.778058
 31
0.0
 11
1.737823
 21
3.737599
 31
0.0
 11
1.752443
 21
3.676484
 31
0.0
 11
1.737823
 21
3.615374
 31
0.0
 11
1.697391
 21
3.574913
 31
0.0
 11
1.636290
 21
3.560275
 31
0.0
 11
1.575141
 21
3.574913
 31
0.0
 11
1.534665
 21
3.615374
 31
0.0
 11
1.520026
 21
3.676484
 31
0.0
  0
LINE
  5
15d
100
AcDbEntity
  8
text
 62
1
100
AcDbLine
 10
1.589804
 20
3.349712
 30
0.0
 11
1.682734
 21
3.349712
 31
0.0
  0
LINE
  5
15e
100
AcDbEntity
  8
text
 62
1
100
AcDbLine
 10
1.636290
 20
3.303226
 30
0.0
 11
1.636290
 21
3.396212
 31
0.0
  0
SPLINE
  5
15f
100
AcDbEntity
  8
text
 62
1
100
AcDbSpline
 70
0
 71
3
 72
19
 73
15
 74
13
 40
0.000000
 40
0.000000
 40
0.000000
 40
0.000000
 40
0.062845
 40
0.120074
 40
0.182949
 40
0.245779
 40
0.302976
 40
0.365816
 40
0.428650
 40
0.485850
 40
0.548681
 40
0.611557
 40
0.668788
 40
0.731627
 40
0.731627
 40
0.731627
 40
0.731627
 10
1.520026
 20
3.349712
 30
0.0
 10
1.522515
 20
3.371066
 30
0.0
 10
1.527269
 20
3.411866
 30
0.0
 10
1.574415
 20
3.457642
 30
0.0
 10
1.636190
 20
3.470254
 30
0.0
 10
1.698445
 20
3.457642
 30
0.0
 10
1.744170
 20
3.411851
 30
0.0
 10
1.756774
 20
3.349714
 30
0.0
 10
1.744168
 20
3.287578
 30
0.0
 10
1.698446
 20
3.241786
 30
0.0
 10
1.636190
 20
3.229168
 30
0.0
 10
1.574414
 20
3.241786
 30
0.0
 10
1.527272
 20
3.287562
 30
0.0
 10
1.522515
 20
3.328360
 30
0.0
 10
1.520026
 20
3.349712
 30
0.0
 11
1.520026
 21
3.349712
 31
0.0
 11
1.534665
 21
3.410828
 31
0.0
 11
1.575141
 21
3.451286
 31
0.0
 11
1.636290
 21
3.465920
 31
0.0
 11
1.697391
 21
3.451286
 31
0.0
 11
1.737823
 21
3.410828
 31
0.0
 11
1.752443
 21
3.349712
 31
0.0
 11
1.737823
 21
3.288602
 31
0.0
 11
1.697391
 21
3.248141
 31
0.0
 11
1.636290
 21
3.233504
 31
0.0
 11
1.575141
 21
3.248141
 31
0.0
 11
1.534665
 21
3.288602
 31
0.0
 11
1.520026
 21
3.349712
 31
0.0
  0
LINE
  5
160
100
AcDbEntity
  8
text
 62
1
100
AcDbLine
 10
1.589804
 20
3.030027
 30
0.0
 11
1.682734
 21
3.030027
 31
0.0
  0
LINE
  5
161
100
AcDbEntity
  8
text
 62
1
100
AcDbLine
 10
1.636290
 20
2.983541
 30
0.0
 11
1.636290
 21
3.076527
 31
0.0
  0
SPLINE
  5
162
100
AcDbEntity
  8
text
 62
1
100
AcDbSpline
 70
0
 71
3
 72
19
 73
15
 74
13
 40
0.000000
 40
0.000000
 40
0.000000
 40
0.000000
 40
0.062845
 40
0.120074
 40
0.182949
 40
0.245779
 40
0.302976
 40
0.365816
 40
0.428650
 40
0.485850
 40
0.548681
 40
0.611557
 40
0.668788
 40
0.731627
 40
0.731627
 40
0.731627
 40
0.731627
 10
1.520026
 20
3.030027
 30
0.0
 10
1.522515
 20
3.051381
 30
0.0
 10
1.527269
 20
3.092181
 30
0.0
 10
1.574415
 20
3.137957
 30
0.0
 10
1.636190
 20
3.150569
 30
0.0
 10
1.698445
 20
3.137957
 30
0.0
 10
1.744170
 20
3.092166
 30
0.0
 10
1.756774
 20
3.030029
 30
0.0
 10
1.744168
 20
2.967892
 30
0.0
 10
1.698446
 20
2.922101
 30
0.0
 10
1.636190
 20
2.909483
 30
0.0
 10
1.574414
 20
2.922101
 30
0.0
 10
1.527272
 20
2.967877
 30
0.0
 10
1.522515
 20
3.008675
 30
0.0
 10
1.520026
 20
3.030027
 30
0.0
 11
1.520026
 21
3.030027
 31
0.0
 11
1.534665
 21
3.091143
 31
0.0
 11
1.575141
 21
3.131601
 31
0.0
 11
1.636290
 21
3.146235
 31
0.0
 11
1.697391
 21
3.131601
 31
0.0
 11
1.737823
 21
3.091143
 31
0.0
 11
1.752443
 21
3.030027
 31
0.0
 11
1.737823
 21
2.968917
 31
0.0
 11
1.697391
 21
2.928456
 31
0.0
 11
1.636290
 21
2.913819
 31
0.0
 11
1.575141
 21
2.928456
 31
0.0
 11
1.534665
 21
2.968917
 31
0.0
 11
1.520026
 21
3.030027
 31
0.0
  0
LINE
  5
163
100
AcDbEntity
  8
text
 62
1
100
AcDbLine
 10
1.589804
 20
2.702862
 30
0.0
 11
1.682734
 21
2.702862
 31
0.0
  0
LINE
  5
164
100
AcDbEntity
  8
text
 62
1
100
AcDbLine
 10
1.636290
 20
2.656375
 30
0.0
 11
1.636290
 21
2.749362
 31
0.0
  0
SPLINE
  5
165
100
AcDbEntity
  8
text
 62
1
100
AcDbSpline
 70
0
 71
3
 72
19
 73
15
 74
13
 40
0.000000
 40
0.000000
 40
0.000000
 40
0.000000
 40
0.062845
 40
0.120074
 40
0.182949
 40
0.245779
 40
0.302976
 40
0.365816
 40
0.428650
 40
0.485850
 40
0.548681
 40
0.611557
 40
0.668788
 40
0.731627
 40
0.731627
 40
0.731627
 40
0.731627
 10
1.520026
 20
2.702862
 30
0.0
 10
1.522515
 20
2.724216
 30
0.0
 10
1.527269
 20
2.765016
 30
0.0
 10
1.574415
 20
2.810791
 30
0.0
 10
1.636190
 20
2.823403
 30
0.0
 10
1.698445
 20
2.810792
 30
0.0
 10
1.744170
 20
2.765000
 30
0.0
 10
1.756774
 20
2.702863
 30
0.0
 10
1.744168
 20
2.640727
 30
0.0
 10
1.698446
 20
2.594935
 30
0.0
 10
1.636190
 20
2.582318
 30
0.0
 10
1.574414
 20
2.594936
 30
0.0
 10
1.527272
 20
2.640712
 30
0.0
 10
1.522515
 20
2.681510
 30
0.0
 10
1.520026
 20
2.702862
 30
0.0
 11
1.520026
 21
2.702862
 31
0.0
 11
1.534665
 21
2.763977
 31
0.0
 11
1.575141
 21
2.804436
 31
0.0
 11
1.636290
 21
2.819070
 31
0.0
 11
1.697391
 21
2.804436
 31
0.0
 11
1.737823
 21
2.763977
 31
0.0
 11
1.752443
 21
2.702862
 31
0.0
 11
1.737823
 21
2.641752
 31
0.0
 11
1.697391
 21
2.601291
 31
0.0
 11
1.636290
 21
2.586653
 31
0.0
 11
1.575141
 21
2.601291
 31
0.0
 11
1.534665
 21
2.641752
 31
0.0
 11
1.520026
 21
2.702862
 31
0.0
  0
LINE
  5
166
100
AcDbEntity
  8
text
 62
1
100
AcDbLine
 10
1.589804
 20
2.379121
 30
0.0
 11
1.682734
 21
2.379121
 31
0.0
  0
LINE
  5
167
100
AcDbEntity
  8
text
 62
1
100
AcDbLine
 10
1.636290
 20
2.332635
 30
0.0
 11
1.636290
 21
2.425621
 31
0.0
  0
SPLINE
  5
168
100
AcDbEntity
  8
text
 62
1
100
AcDbSpline
 70
0
 71
3
 72
19
 73
15
 74
13
 40
0.000000
 40
0.000000
 40
0.000000
 40
0.000000
 40
0.062845
 40
0.120074
 40
0.182949
 40
0.245779
 40
0.302976
 40
0.365816
 40
0.428650
 40
0.485850
 40
0.548681
 40
0.611557
 40
0.668788
 40
0.731627
 40
0.731627
 40
0.731627
 40
0.731627
 10
1.520026
 20
2.379121
 30
0.0
 10
1.522515
 20
2.400476
 30
0.0
 10
1.527269
 20
2.441276
 30
0.0
 10
1.574415
 20
2.487051
 30
0.0
 10
1.636190
 20
2.499663
 30
0.0
 10
1.698445
 20
2.487052
 30
0.0
 10
1.744170
 20
2.441260
 30
0.0
 10
1.756774
 20
2.379123
 30
0.0
 10
1.744168
 20
2.316987
 30
0.0
 10
1.698446
 20
2.271195
 30
0.0
 10
1.636190
 20
2.258578
 30
0.0
 10
1.574414
 20
2.271195
 30
0.0
 10
1.527272
 20
2.316972
 30
0.0
 10
1.522515
 20
2.357770
 30
0.0
 10
1.520026
 20
2.379121
 30
0.0
 11
1.520026
 21
2.379121
 31
0.0
 11
1.534665
 21
2.440237
 31
0.0
 11
1.575141
 21
2.480696
 31
0.0
 11
1.636290
 21
2.495330
 31
0.0
 11
1.697391
 21
2.480696
 31
0.0
 11
1.737823
 21
2.440237
 31
0.0
 11
1.752443
 21
2.379121
 31
0.0
 11
1.737823
 21
2.318012
 31
0.0
 11
1.697391
 21
2.277551
 31
0.0
 11
1.636290
 21
2.262913
 31
0.0
 11
1.575141
 21
2.277551
 31
0.0
 11
1.534665
 21
2.318012
 31
0.0
 11
1.520026
 21
2.379121
 31
0.0
  0
LINE
  5
169
100
AcDbEntity
  8
text
 62
1
100
AcDbLine
 10
1.589804
 20
2.050499
 30
0.0
 11
1.682734
 21
2.050499
 31
0.0
  0
LINE
  5
16a
100
AcDbEntity
  8
text
 62
1
100
AcDbLine
 10
1.636290
 20
2.004013
 30
0.0
 11
1.636290
 21
2.096999
 31
0.0
  0
SPLINE
  5
16b
100
AcDbEntity
  8
text
 62
1
100
AcDbSpline
 70
0
 71
3
 72
19
 73
15
 74
13
 40
0.000000
 40
0.000000
 40
0.000000
 40
0.000000
 40
0.062845
 40
0.120074
 40
0.182949
 40
0.245779
 40
0.302976
 40
0.365816
 40
0.428650
 40
0.485850
 40
0.548681
 40
0.611557
 40
0.668788
 40
0.731627
 40
0.731627
 40
0.731627
 40
0.731627
 10
1.520026
 20
2.050499
 30
0.0
 10
1.522515
 20
2.071853
 30
0.0
 10
1.527269
 20
2.112654
 30
0.0
 10
1.574415
 20
2.158429
 30
0.0
 10
1.636190
 20
2.171041
 30
0.0
 10
1.698445
 20
2.158430
 30
0.0
 10
1.744170
 20
2.112638
 30
0.0
 10
1.756774
 20
2.050501
 30
0.0
 10
1.744168
 20
1.988365
 30
0.0
 10
1.698446
 20
1.942573
 30
0.0
 10
1.636190
 20
1.929956
 30
0.0
 10
1.574414
 20
1.942573
 30
0.0
 10
1.527272
 20
1.988349
 30
0.0
 10
1.522515
 20
2.029148
 30
0.0
 10
1.520026
 20
2.050499
 30
0.0
 11
1.520026
 21
2.050499
 31
0.0
 11
1.534665
 21
2.111615
 31
0.0
 11
1.575141
 21
2.152073
 31
0.0
 11
1.636290
 21
2.166708
 31
0.0
 11
1.697391
 21
2.152073
 31
0.0
 11
1.737823
 21
2.111615
 31
0.0
 11
1.752443
 21
2.050499
 31
0.0
 11
1.737823
 21
1.989390
 31
0.0
 11
1.697391
 21
1.948928
 31
0.0
 11
1.636290
 21
1.934291
 31
0.0
 11
1.575141
 21
1.948928
 31
0.0
 11
1.534665
 21
1.989390
 31
0.0
 11
1.520026
 21
2.050499
 31
0.0
  0
LINE
  5
16c
100
AcDbEntity
  8
text
 62
1
100
AcDbLine
 10
1.589804
 20
1.724043
 30
0.0
 11
1.682734
 21
1.724043
 31
0.0
  0
LINE
  5
16d
100
AcDbEntity
  8
text
 62
1
100
AcDbLine
 10
1.636290
 20
1.677557
 30
0.0
 11
1.636290
 21
1.770543
 31
0.0
  0
SPLINE
  5
16e
100
AcDbEntity
  8
text
 62
1
100
AcDbSpline
 70
0
 71
3
 72
19
 73
15
 74
13
 40
0.000000
 40
0.000000
 40
0.000000
 40
0.000000
 40
0.062845
 40
0.120074
 40
0.182949
 40
0.245779
 40
0.302976
 40
0.365816
 40
0.428650
 40
0.485850
 40
0.548681
 40
0.611557
 40
0.668788
 40
0.731627
 40
0.731627
 40
0.731627
 40
0.731627
 10
1.520026
 20
1.724043
 30
0.0
 10
1.522515
 20
1.745397
 30
0.0
 10
1.527269
 20
1.786197
 30
0.0
 10
1.574415
 20
1.831973
 30
0.0
 10
1.636190
 20
1.844585
 30
0.0
 10
1.698445
 20
1.831973
 30
0.0
 10
1.744170
 20
1.786182
 30
0.0
 10
1.756774
 20
1.724044
 30
0.0
 10
1.744168
 20
1.661908
 30
0.0
 10
1.698446
 20
1.616116
 30
0.0
 10
1.636190
 20
1.603499
 30
0.0
 10
1.574414
 20
1.616117
 30
0.0
 10
1.527272
 20
1.661893
 30
0.0
 10
1.522515
 20
1.702691
 30
0.0
 10
1.520026
 20
1.724043
 30
0.0
 11
1.520026
 21
1.724043
 31
0.0
 11
1.534665
 21
1.785158
 31
0.0
 11
1.575141
 21
1.825617
 31
0.0
 11
1.636290
 21
1.840251
 31
0.0
 11
1.697391
 21
1.825617
 31
0.0
 11
1.737823
 21
1.785158
 31
0.0
 11
1.752443
 21
1.724043
 31
0.0
 11
1.737823
 21
1.662933
 31
0.0
 11
1.697391
 21
1.622472
 31
0.0
 11
1.636290
 21
1.607834
 31
0.0
 11
1.575141
 21
1.622472
 31
0.0
 11
1.534665
 21
1.662933
 31
0.0
 11
1.520026
 21
1.724043
 31
0.0
  0
LINE
  5
16f
100
AcDbEntity
  8
text
 62
1
100
AcDbLine
 10
1.589804
 20
1.402530
 30
0.0
 11
1.682734
 21
1.402530
 31
0.0
  0
LINE
  5
170
100
AcDbEntity
  8
text
 62
1
100
AcDbLine
 10
1.636290
 20
1.356044
 30
0.0
 11
1.636290
 21
1.449030
 31
0.0
  0
SPLINE
  5
171
100
AcDbEntity
  8
text
 62
1
100
AcDbSpline
 70
0
 71
3
 72
19
 73
15
 74
13
 40
0.000000
 40
0.000000
 40
0.000000
 40
0.000000
 40
0.062845
 40
0.120074
 40
0.182949
 40
0.245779
 40
0.302976
 40
0.365816
 40
0.428650
 40
0.485850
 40
0.548681
 40
0.611557
 40
0.668788
 40
0.731627
 40
0.731627
 40
0.731627
 40
0.731627
 10
1.520026
 20
1.402530
 30
0.0
 10
1.522515
 20
1.423884
 30
0.0
 10
1.527269
 20
1.464684
 30
0.0
 10
1.574415
 20
1.510460
 30
0.0
 10
1.636190
 20
1.523072
 30
0.0
 10
1.698445
 20
1.510460
 30
0.0
 10
1.744170
 20
1.464669
 30
0.0
 10
1.756774
 20
1.402532
 30
0.0
 10
1.744168
 20
1.340395
 30
0.0
 10
1.698446
 20
1.294603
 30
0.0
 10
1.636190
 20
1.281986
 30
0.0
 10
1.574414
 20
1.294604
 30
0.0
 10
1.527272
 20
1.340380
 30
0.0
 10
1.522515
 20
1.381178
 30
0.0
 10
1.520026
 20
1.402530
 30
0.0
 11
1.520026
 21
1.402530
 31
0.0
 11
1.534665
 21
1.463646
 31
0.0
 11
1.575141
 21
1.504104
 31
0.0
 11
1.636290
 21
1.518738
 31
0.0
 11
1.697391
 21
1.504104
 31
0.0
 11
1.737823
 21
1.463646
 31
0.0
 11
1.752443
 21
1.402530
 31
0.0
 11
1.737823
 21
1.341420
 31
0.0
 11
1.697391
 21
1.300959
 31
0.0
 11
1.636290
 21
1.286321
 31
0.0
 11
1.575141
 21
1.300959
 31
0.0
 11
1.534665
 21
1.341420
 31
0.0
 11
1.520026
 21
1.402530
 31
0.0
  0
LINE
  5
172
100
AcDbEntity
  8
text
 62
1
100
AcDbLine
 10
1.078693
 20
4.331841
 30
0.0
 11
1.171623
 21
4.331841
 31
0.0
  0
LINE
  5
173
100
AcDbEntity
  8
text
 62
1
100
AcDbLine
 10
1.125179
 20
4.285355
 30
0.0
 11
1.125179
 21
4.378341
 31
0.0
  0
SPLINE
  5
174
100
AcDbEntity
  8
text
 62
1
100
AcDbSpline
 70
0
 71
3
 72
19
 73
15
 74
13
 40
0.000000
 40
0.000000
 40
0.000000
 40
0.000000
 40
0.062845
 40
0.120074
 40
0.182949
 40
0.245779
 40
0.302976
 40
0.365816
 40
0.428650
 40
0.485850
 40
0.548681
 40
0.611557
 40
0.668788
 40
0.731627
 40
0.731627
 40
0.731627
 40
0.731627
 10
1.008915
 20
4.331841
 30
0.0
 10
1.011404
 20
4.353195
 30
0.0
 10
1.016158
 20
4.393995
 30
0.0
 10
1.063304
 20
4.439771
 30
0.0
 10
1.125079
 20
4.452383
 30
0.0
 10
1.187334
 20
4.439771
 30
0.0
 10
1.233059
 20
4.393980
 30
0.0
 10
1.245663
 20
4.331843
 30
0.0
 10
1.233057
 20
4.269706
 30
0.0
 10
1.187335
 20
4.223915
 30
0.0
 10
1.125079
 20
4.211297
 30
0.0
 10
1.063303
 20
4.223915
 30
0.0
 10
1.016161
 20
4.269691
 30
0.0
 10
1.011404
 20
4.310489
 30
0.0
 10
1.008915
 20
4.331841
 30
0.0
 11
1.008915
 21
4.331841
 31
0.0
 11
1.023554
 21
4.392957
 31
0.0
 11
1.064030
 21
4.433415
 31
0.0
 11
1.125179
 21
4.448049
 31
0.0
 11
1.186280
 21
4.433415
 31
0.0
 11
1.226712
 21
4.392957
 31
0.0
 11
1.241332
 21
4.331841
 31
0.0
 11
1.226712
 21
4.270731
 31
0.0
 11
1.186280
 21
4.230270
 31
0.0
 11
1.125179
 21
4.215633
 31
0.0
 11
1.064030
 21
4.230270
 31
0.0
 11
1.023554
 21
4.270731
 31
0.0
 11
1.008915
 21
4.331841
 31
0.0
  0
LINE
  5
175
100
AcDbEntity
  8
text
 62
1
100
AcDbLine
 10
1.078693
 20
4.002530
 30
0.0
 11
1.171623
 21
4.002530
 31
0.0
  0
LINE
  5
176
100
AcDbEntity
  8
text
 62
1
100
AcDbLine
 10
1.125179
 20
3.956044
 30
0.0
 11
1.125179
 21
4.049030
 31
0.0
  0
SPLINE
  5
177
100
AcDbEntity
  8
text
 62
1
100
AcDbSpline
 70
0
 71
3
 72
19
 73
15
 74
13
 40
0.000000
 40
0.000000
 40
0.000000
 40
0.000000
 40
0.062845
 40
0.120074
 40
0.182949
 40
0.245779
 40
0.302976
 40
0.365816
 40
0.428650
 40
0.485850
 40
0.548681
 40
0.611557
 40
0.668788
 40
0.731627
 40
0.731627
 40
0.731627
 40
0.731627
 10
1.008915
 20
4.002530
 30
0.0
 10
1.011404
 20
4.023884
 30
0.0
 10
1.016158
 20
4.064684
 30
0.0
 10
1.063304
 20
4.110460
 30
0.0
 10
1.125079
 20
4.123072
 30
0.0
 10
1.187334
 20
4.110460
 30
0.0
 10
1.233059
 20
4.064669
 30
0.0
 10
1.245663
 20
4.002532
 30
0.0
 10
1.233057
 20
3.940395
 30
0.0
 10
1.187335
 20
3.894603
 30
0.0
 10
1.125079
 20
3.881986
 30
0.0
 10
1.063303
 20
3.894604
 30
0.0
 10
1.016161
 20
3.940380
 30
0.0
 10
1.011404
 20
3.981178
 30
0.0
 10
1.008915
 20
4.002530
 30
0.0
 11
1.008915
 21
4.002530
 31
0.0
 11
1.023554
 21
4.063646
 31
0.0
 11
1.064030
 21
4.104104
 31
0.0
 11
1.125179
 21
4.118738
 31
0.0
 11
1.186280
 21
4.104104
 31
0.0
 11
1.226712
 21
4.063646
 31
0.0
 11
1.241332
 21
4.002530
 31
0.0
 11
1.226712
 21
3.941420
 31
0.0
 11
1.186280
 21
3.900959
 31
0.0
 11
1.125179
 21
3.886321
 31
0.0
 11
1.064030
 21
3.900959
 31
0.0
 11
1.023554
 21
3.941420
 31
0.0
 11
1.008915
 21
4.002530
 31
0.0
  0
LINE
  5
178
100
AcDbEntity
  8
text
 62
1
100
AcDbLine
 10
1.078693
 20
3.676484
 30
0.0
 11
1.171623
 21
3.676484
 31
0.0
  0
LINE
  5
179
100
AcDbEntity
  8
text
 62
1
100
AcDbLine
 10
1.125179
 20
3.629998
 30
0.0
 11
1.125179
 21
3.722984
 31
0.0
  0
SPLINE
  5
17a
100
AcDbEntity
  8
text
 62
1
100
AcDbSpline
 70
0
 71
3
 72
19
 73
15
 74
13
 40
0.000000
 40
0.000000
 40
0.000000
 40
0.000000
 40
0.062845
 40
0.120074
 40
0.182949
 40
0.245779
 40
0.302976
 40
0.365816
 40
0.428650
 40
0.485850
 40
0.548681
 40
0.611557
 40
0.668788
 40
0.731627
 40
0.731627
 40
0.731627
 40
0.731627
 10
1.008915
 20
3.676484
 30
0.0
 10
1.011404
 20
3.697838
 30
0.0
 10
1.016158
 20
3.738638
 30
0.0
 10
1.063304
 20
3.784414
 30
0.0
 10
1.125079
 20
3.797026
 30
0.0
 10
1.187334
 20
3.784414
 30
0.0
 10
1.233059
 20
3.738623
 30
0.0
 10
1.245663
 20
3.676485
 30
0.0
 10
1.233057
 20
3.614349
 30
0.0
 10
1.187335
 20
3.568557
 30
0.0
 10
1.125079
 20
3.555940
 30
0.0
 10
1.063303
 20
3.568558
 30
0.0
 10
1.016161
 20
3.614334
 30
0.0
 10
1.011404
 20
3.655132
 30
0.0
 10
1.008915
 20
3.676484
 30
0.0
 11
1.008915
 21
3.676484
 31
0.0
 11
1.023554
 21
3.737599
 31
0.0
 11
1.064030
 21
3.778058
 31
0.0
 11
1.125179
 21
3.792692
 31
0.0
 11
1.186280
 21
3.778058
 31
0.0
 11
1.226712
 21
3.737599
 31
0.0
 11
1.241332
 21
3.676484
 31
0.0
 11
1.226712
 21
3.615374
 31
0.0
 11
1.186280
 21
3.574913
 31
0.0
 11
1.125179
 21
3.560275
 31
0.0
 11
1.064030
 21
3.574913
 31
0.0
 11
1.023554
 21
3.615374
 31
0.0
 11
1.008915
 21
3.676484
 31
0.0
  0
LINE
  5
17b
100
AcDbEntity
  8
text
 62
1
100
AcDbLine
 10
1.078693
 20
3.349712
 30
0.0
 11
1.171623
 21
3.349712
 31
0.0
  0
LINE
  5
17c
100
AcDbEntity
  8
text
 62
1
100
AcDbLine
 10
1.125179
 20
3.303226
 30
0.0
 11
1.125179
 21
3.396212
 31
0.0
  0
SPLINE
  5
17d
100
AcDbEntity
  8
text
 62
1
100
AcDbSpline
 70
0
 71
3
 72
19
 73
15
 74
13
 40
0.000000
 40
0.000000
 40
0.000000
 40
0.000000
 40
0.062845
 40
0.120074
 40
0.182949
 40
0.245779
 40
0.302976
 40
0.365816
 40
0.428650
 40
0.485850
 40
0.548681
 40
0.611557
 40
0.668788
 40
0.731627
 40
0.731627
 40
0.731627
 40
0.731627
 10
1.008915
 20
3.349712
 30
0.0
 10
1.011404
 20
3.371066
 30
0.0
 10
1.016158
 20
3.411866
 30
0.0
 10
1.063304
 20
3.457642
 30
0.0
 10
1.125079
 20
3.470254
 30
0.0
 10
1.187334
 20
3.457642
 30
0.0
 10
1.233059
 20
3.411851
 30
0.0
 10
1.245663
 20
3.349714
 30
0.0
 10
1.233057
 20
3.287578
 30
0.0
 10
1.187335
 20
3.241786
 30
0.0
 10
1.125079
 20
3.229168
 30
0.0
 10
1.063303
 20
3.241786
 30
0.0
 10
1.016161
 20
3.287562
 30
0.0
 10
1.011404
 20
3.328360
 30
0.0
 10
1.008915
 20
3.349712
 30
0.0
 11
1.008915
 21
3.349712
 31
0.0
 11
1.023554
 21
3.410828
 31
0.0
 11
1.064030
 21
3.451286
 31
0.0
 11
1.125179
 21
3.465920
 31
0.0
 11
1.186280
 21
3.451286
 31
0.0
 11
1.226712
 21
3.410828
 31
0.0
 11
1.241332
 21
3.349712
 31
0.0
 11
1.226712
 21
3.288602
 31
0.0
 11
1.186280
 21
3.248141
 31
0.0
 11
1.125179
 21
3.233504
 31
0.0
 11
1.064030
 21
3.248141
 31
0.0
 11
1.023554
 21
3.288602
 31
0.0
 11
1.008915
 21
3.349712
 31
0.0
  0
LINE
  5
17e
100
AcDbEntity
  8
text
 62
1
100
AcDbLine
 10
1.078693
 20
3.030027
 30
0.0
 11
1.171623
 21
3.030027
 31
0.0
  0
LINE
  5
17f
100
AcDbEntity
  8
text
 62
1
100
AcDbLine
 10
1.125179
 20
2.983541
 30
0.0
 11
1.125179
 21
3.076527
 31
0.0
  0
SPLINE
  5
180
100
AcDbEntity
  8
text
 62
1
100
AcDbSpline
 70
0
 71
3
 72
19
 73
15
 74
13
 40
0.000000
 40
0.000000
 40
0.000000
 40
0.000000
 40
0.062845
 40
0.120074
 40
0.182949
 40
0.245779
 40
0.302976
 40
0.365816
 40
0.428650
 40
0.485850
 40
0.548681
 40
0.611557
 40
0.668788
 40
0.731627
 40
0.731627
 40
0.731627
 40
0.731627
 10
1.008915
 20
3.030027
 30
0.0
 10
1.011404
 20
3.051381
 30
0.0
 10
1.016158
 20
3.092181
 30
0.0
 10
1.063304
 20
3.137957
 30
0.0
 10
1.125079
 20
3.150569
 30
0.0
 10
1.187334
 20
3.137957
 30
0.0
 10
1.233059
 20
3.092166
 30
0.0
 10
1.245663
 20
3.030029
 30
0.0
 10
1.233057
 20
2.967892
 30
0.0
 10
1.187335
 20
2.922101
 30
0.0
 10
1.125079
 20
2.909483
 30
0.0
 10
1.063303
 20
2.922101
 30
0.0
 10
1.016161
 20
2.967877
 30
0.0
 10
1.011404
 20
3.008675
 30
0.0
 10
1.008915
 20
3.030027
 30
0.0
 11
1.008915
 21
3.030027
 31
0.0
 11
1.023554
 21
3.091143
 31
0.0
 11
1.064030
 21
3.131601
 31
0.0
 11
1.125179
 21
3.146235
 31
0.0
 11
1.186280
 21
3.131601
 31
0.0
 11
1.226712
 21
3.091143
 31
0.0
 11
1.241332
 21
3.030027
 31
0.0
 11
1.226712
 21
2.968917
 31
0.0
 11
1.186280
 21
2.928456
 31
0.0
 11
1.125179
 21
2.913819
 31
0.0
 11
1.064030
 21
2.928456
 31
0.0
 11
1.023554
 21
2.968917
 31
0.0
 11
1.008915
 21
3.030027
 31
0.0
  0
LINE
  5
181
100
AcDbEntity
  8
text
 62
1
100
AcDbLine
 10
1.078693
 20
2.702862
 30
0.0
 11
1.171623
 21
2.702862
 31
0.0
  0
LINE
  5
182
100
AcDbEntity
  8
text
 62
1
100
AcDbLine
 10
1.125179
 20
2.656375
 30
0.0
 11
1.125179
 21
2.749362
 31
0.0
  0
SPLINE
  5
183
100
AcDbEntity
  8
text
 62
1
100
AcDbSpline
 70
0
 71
3
 72
19
 73
15
 74
13
 40
0.000000
 40
0.000000
 40
0.000000
 40
0.000000
 40
0.062845
 40
0.120074
 40
0.182949
 40
0.245779
 40
0.302976
 40
0.365816
 40
0.428650
 40
0.485850
 40
0.548681
 40
0.611557
 40
0.668788
 40
0.731627
 40
0.731627
 40
0.731627
 40
0.731627
 10
1.008915
 20
2.702862
 30
0.0
 10
1.011404
 20
2.724216
 30
0.0
 10
1.016158
 20
2.765016
 30
0.0
 10
1.063304
 20
2.810791
 30
0.0
 10
1.125079
 20
2.823403
 30
0.0
 10
1.187334
 20
2.810792
 30
0.0
 10
1.233059
 20
2.765000
 30
0.0
 10
1.245663
 20
2.702863
 30
0.0
 10
1.233057
 20
2.640727
 30
0.0
 10
1.187335
 20
2.594935
 30
0.0
 10
1.125079
 20
2.582318
 30
0.0
 10
1.063303
 20
2.594936
 30
0.0
 10
1.016161
 20
2.640712
 30
0.0
 10
1.011404
 20
2.681510
 30
0.0
 10
1.008915
 20
2.702862
 30
0.0
 11
1.008915
 21
2.702862
 31
0.0
 11
1.023554
 21
2.763977
 31
0.0
 11
1.064030
 21
2.804436
 31
0.0
 11
1.125179
 21
2.819070
 31
0.0
 11
1.186280
 21
2.804436
 31
0.0
 11
1.226712
 21
2.763977
 31
0.0
 11
1.241332
 21
2.702862
 31
0.0
 11
1.226712
 21
2.641752
 31
0.0
 11
1.186280
 21
2.601291
 31
0.0
 11
1.125179
 21
2.586653
 31
0.0
 11
1.064030
 21
2.601291
 31
0.0
 11
1.023554
 21
2.641752
 31
0.0
 11
1.008915
 21
2.702862
 31
0.0
  0
LINE
  5
184
100
AcDbEntity
  8
text
 62
1
100
AcDbLine
 10
1.078693
 20
2.379121
 30
0.0
 11
1.171623
 21
2.379121
 31
0.0
  0
LINE
  5
185
100
AcDbEntity
  8
text
 62
1
100
AcDbLine
 10
1.125179
 20
2.332635
 30
0.0
 11
1.125179
 21
2.425621
 31
0.0
  0
SPLINE
  5
186
100
AcDbEntity
  8
text
 62
1
100
AcDbSpline
 70
0
 71
3
 72
19
 73
15
 74
13
 40
0.000000
 40
0.000000
 40
0.000000
 40
0.000000
 40
0.062845
 40
0.120074
 40
0.182949
 40
0.245779
 40
0.302976
 40
0.365816
 40
0.428650
 40
0.485850
 40
0.548681
 40
0.611557
 40
0.668788
 40
0.731627
 40
0.731627
 40
0.731627
 40
0.731627
 10
1.008915
 20
2.379121
 30
0.0
 10
1.011404
 20
2.400476
 30
0.0
 10
1.016158
 20
2.441276
 30
0.0
 10
1.063304
 20
2.487051
 30
0.0
 10
1.125079
 20
2.499663
 30
0.0
 10
1.187334
 20
2.487052
 30
0.0
 10
1.233059
 20
2.441260
 30
0.0
 10
1.245663
 20
2.379123
 30
0.0
 10
1.233057
 20
2.316987
 30
0.0
 10
1.187335
 20
2.271195
 30
0.0
 10
1.125079
 20
2.258578
 30
0.0
 10
1.063303
 20
2.271195
 30
0.0
 10
1.016161
 20
2.316972
 30
0.0
 10
1.011404
 20
2.357770
 30
0.0
 10
1.008915
 20
2.379121
 30
0.0
 11
1.008915
 21
2.379121
 31
0.0
 11
1.023554
 21
2.440237
 31
0.0
 11
1.064030
 21
2.480696
 31
0.0
 11
1.125179
 21
2.495330
 31
0.0
 11
1.186280
 21
2.480696
 31
0.0
 11
1.226712
 21
2.440237
 31
0.0
 11
1.241332
 21
2.379121
 31
0.0
 11
1.226712
 21
2.318012
 31
0.0
 11
1.186280
 21
2.277551
 31
0.0
 11
1.125179
 21
2.262913
 31
0.0
 11
1.064030
 21
2.277551
 31
0.0
 11
1.023554
 21
2.318012
 31
0.0
 11
1.008915
 21
2.379121
 31
0.0
  0
LINE
  5
187
100
AcDbEntity
  8
text
 62
1
100
AcDbLine
 10
1.078693
 20
2.050499
 30
0.0
 11
1.171623
 21
2.050499
 31
0.0
  0
LINE
  5
188
100
AcDbEntity
  8
text
 62
1
100
AcDbLine
 10
1.125179
 20
2.004013
 30
0.0
 11
1.125179
 21
2.096999
 31
0.0
  0
SPLINE
  5
189
100
AcDbEntity
  8
text
 62
1
100
AcDbSpline
 70
0
 71
3
 72
19
 73
15
 74
13
 40
0.000000
 40
0.000000
 40
0.000000
 40
0.000000
 40
0.062845
 40
0.120074
 40
0.182949
 40
0.245779
 40
0.302976
 40
0.365816
 40
0.428650
 40
0.485850
 40
0.548681
 40
0.611557
 40
0.668788
 40
0.731627
 40
0.731627
 40
0.731627
 40
0.731627
 10
1.008915
 20
2.050499
 30
0.0
 10
1.011404
 20
2.071853
 30
0.0
 10
1.016158
 20
2.112654
 30
0.0
 10
1.063304
 20
2.158429
 30
0.0
 10
1.125079
 20
2.171041
 30
0.0
 10
1.187334
 20
2.158430
 30
0.0
 10
1.233059
 20
2.112638
 30
0.0
 10
1.245663
 20
2.050501
 30
0.0
 10
1.233057
 20
1.988365
 30
0.0
 10
1.187335
 20
1.942573
 30
0.0
 10
1.125079
 20
1.929956
 30
0.0
 10
1.063303
 20
1.942573
 30
0.0
 10
1.016161
 20
1.988349
 30
0.0
 10
1.011404
 20
2.029148
 30
0.0
 10
1.008915
 20
2.050499
 30
0.0
 11
1.008915
 21
2.050499
 31
0.0
 11
1.023554
 21
2.111615
 31
0.0
 11
1.064030
 21
2.152073
 31
0.0
 11
1.125179
 21
2.166708
 31
0.0
 11
1.186280
 21
2.152073
 31
0.0
 11
1.226712
 21
2.111615
 31
0.0
 11
1.241332
 21
2.050499
 31
0.0
 11
1.226712
 21
1.989390
 31
0.0
 11
1.186280
 21
1.948928
 31
0.0
 11
1.125179
 21
1.934291
 31
0.0
 11
1.064030
 21
1.948928
 31
0.0
 11
1.023554
 21
1.989390
 31
0.0
 11
1.008915
 21
2.050499
 31
0.0
  0
LINE
  5
18a
100
AcDbEntity
  8
text
 62
1
100
AcDbLine
 10
1.078693
 20
1.724043
 30
0.0
 11
1.171623
 21
1.724043
 31
0.0
  0
LINE
  5
18b
100
AcDbEntity
  8
text
 62
1
100
AcDbLine
 10
1.125179
 20
1.677557
 30
0.0
 11
1.125179
 21
1.770543
 31
0.0
  0
SPLINE
  5
18c
100
AcDbEntity
  8
text
 62
1
100
AcDbSpline
 70
0
 71
3
 72
19
 73
15
 74
13
 40
0.000000
 40
0.000000
 40
0.000000
 40
0.000000
 40
0.062845
 40
0.120074
 40
0.182949
 40
0.245779
 40
0.302976
 40
0.365816
 40
0.428650
 40
0.485850
 40
0.548681
 40
0.611557
 40
0.668788
 40
0.731627
 40
0.731627
 40
0.731627
 40
0.731627
 10
1.008915
 20
1.724043
 30
0.0
 10
1.011404
 20
1.745397
 30
0.0
 10
1.016158
 20
1.786197
 30
0.0
 10
1.063304
 20
1.831973
 30
0.0
 10
1.125079
 20
1.844585
 30
0.0
 10
1.187334
 20
1.831973
 30
0.0
 10
1.233059
 20
1.786182
 30
0.0
 10
1.245663
 20
1.724044
 30
0.0
 10
1.233057
 20
1.661908
 30
0.0
 10
1.187335
 20
1.616116
 30
0.0
 10
1.125079
 20
1.603499
 30
0.0
 10
1.063303
 20
1.616117
 30
0.0
 10
1.016161
 20
1.661893
 30
0.0
 10
1.011404
 20
1.702691
 30
0.0
 10
1.008915
 20
1.724043
 30
0.0
 11
1.008915
 21
1.724043
 31
0.0
 11
1.023554
 21
1.785158
 31
0.0
 11
1.064030
 21
1.825617
 31
0.0
 11
1.125179
 21
1.840251
 31
0.0
 11
1.186280
 21
1.825617
 31
0.0
 11
1.226712
 21
1.785158
 31
0.0
 11
1.241332
 21
1.724043
 31
0.0
 11
1.226712
 21
1.662933
 31
0.0
 11
1.186280
 21
1.622472
 31
0.0
 11
1.125179
 21
1.607834
 31
0.0
 11
1.064030
 21
1.622472
 31
0.0
 11
1.023554
 21
1.662933
 31
0.0
 11
1.008915
 21
1.724043
 31
0.0
  0
LINE
  5
18d
100
AcDbEntity
  8
text
 62
1
100
AcDbLine
 10
1.078693
 20
1.402530
 30
0.0
 11
1.171623
 21
1.402530
 31
0.0
  0
LINE
  5
18e
100
AcDbEntity
  8
text
 62
1
100
AcDbLine
 10
1.125179
 20
1.356044
 30
0.0
 11
1.125179
 21
1.449030
 31
0.0
  0
SPLINE
  5
18f
100
AcDbEntity
  8
text
 62
1
100
AcDbSpline
 70
0
 71
3
 72
19
 73
15
 74
13
 40
0.000000
 40
0.000000
 40
0.000000
 40
0.000000
 40
0.062845
 40
0.120074
 40
0.182949
 40
0.245779
 40
0.302976
 40
0.365816
 40
0.428650
 40
0.485850
 40
0.548681
 40
0.611557
 40
0.668788
 40
0.731627
 40
0.731627
 40
0.731627
 40
0.731627
 10
1.008915
 20
1.402530
 30
0.0
 10
1.011404
 20
1.423884
 30
0.0
 10
1.016158
 20
1.464684
 30
0.0
 10
1.063304
 20
1.510460
 30
0.0
 10
1.125079
 20
1.523072
 30
0.0
 10
1.187334
 20
1.510460
 30
0.0
 10
1.233059
 20
1.464669
 30
0.0
 10
1.245663
 20
1.402532
 30
0.0
 10
1.233057
 20
1.340395
 30
0.0
 10
1.187335
 20
1.294603
 30
0.0
 10
1.125079
 20
1.281986
 30
0.0
 10
1.063303
 20
1.294604
 30
0.0
 10
1.016161
 20
1.340380
 30
0.0
 10
1.011404
 20
1.381178
 30
0.0
 10
1.008915
 20
1.402530
 30
0.0
 11
1.008915
 21
1.402530
 31
0.0
 11
1.023554
 21
1.463646
 31
0.0
 11
1.064030
 21
1.504104
 31
0.0
 11
1.125179
 21
1.518738
 31
0.0
 11
1.186280
 21
1.504104
 31
0.0
 11
1.226712
 21
1.463646
 31
0.0
 11
1.241332
 21
1.402530
 31
0.0
 11
1.226712
 21
1.341420
 31
0.0
 11
1.186280
 21
1.300959
 31
0.0
 11
1.125179
 21
1.286321
 31
0.0
 11
1.064030
 21
1.300959
 31
0.0
 11
1.023554
 21
1.341420
 31
0.0
 11
1.008915
 21
1.402530
 31
0.0
  0
LINE
  5
190
100
AcDbEntity
  8
text
 62
1
100
AcDbLine
 10
0.537277
 20
4.172914
 30
0.0
 11
0.630208
 21
4.172914
 31
0.0
  0
LINE
  5
191
100
AcDbEntity
  8
text
 62
1
100
AcDbLine
 10
0.583763
 20
4.126428
 30
0.0
 11
0.583763
 21
4.219414
 31
0.0
  0
SPLINE
  5
192
100
AcDbEntity
  8
text
 62
1
100
AcDbSpline
 70
0
 71
3
 72
19
 73
15
 74
13
 40
0.000000
 40
0.000000
 40
0.000000
 40
0.000000
 40
0.062845
 40
0.120074
 40
0.182949
 40
0.245779
 40
0.302976
 40
0.365816
 40
0.428650
 40
0.485850
 40
0.548681
 40
0.611557
 40
0.668788
 40
0.731627
 40
0.731627
 40
0.731627
 40
0.731627
 10
0.467499
 20
4.172914
 30
0.0
 10
0.469988
 20
4.194268
 30
0.0
 10
0.474743
 20
4.235068
 30
0.0
 10
0.521888
 20
4.280844
 30
0.0
 10
0.583663
 20
4.293456
 30
0.0
 10
0.645918
 20
4.280844
 30
0.0
 10
0.691643
 20
4.235053
 30
0.0
 10
0.704247
 20
4.172916
 30
0.0
 10
0.691641
 20
4.110780
 30
0.0
 10
0.645919
 20
4.064988
 30
0.0
 10
0.583663
 20
4.052370
 30
0.0
 10
0.521887
 20
4.064988
 30
0.0
 10
0.474745
 20
4.110764
 30
0.0
 10
0.469988
 20
4.151562
 30
0.0
 10
0.467499
 20
4.172914
 30
0.0
 11
0.467499
 21
4.172914
 31
0.0
 11
0.482139
 21
4.234030
 31
0.0
 11
0.522614
 21
4.274488
 31
0.0
 11
0.583763
 21
4.289122
 31
0.0
 11
0.644864
 21
4.274488
 31
0.0
 11
0.685296
 21
4.234030
 31
0.0
 11
0.699916
 21
4.172914
 31
0.0
 11
0.685296
 21
4.111804
 31
0.0
 11
0.644864
 21
4.071343
 31
0.0
 11
0.583763
 21
4.056706
 31
0.0
 11
0.522614
 21
4.071343
 31
0.0
 11
0.482139
 21
4.111804
 31
0.0
 11
0.467499
 21
4.172914
 31
0.0
  0
LINE
  5
193
100
AcDbEntity
  8
text
 62
1
100
AcDbLine
 10
0.537277
 20
2.861803
 30
0.0
 11
0.630208
 21
2.861803
 31
0.0
  0
LINE
  5
194
100
AcDbEntity
  8
text
 62
1
100
AcDbLine
 10
0.583763
 20
2.815317
 30
0.0
 11
0.583763
 21
2.908303
 31
0.0
  0
SPLINE
  5
195
100
AcDbEntity
  8
text
 62
1
100
AcDbSpline
 70
0
 71
3
 72
19
 73
15
 74
13
 40
0.000000
 40
0.000000
 40
0.000000
 40
0.000000
 40
0.062845
 40
0.120074
 40
0.182949
 40
0.245779
 40
0.302976
 40
0.365816
 40
0.428650
 40
0.485850
 40
0.548681
 40
0.611557
 40
0.668788
 40
0.731627
 40
0.731627
 40
0.731627
 40
0.731627
 10
0.467499
 20
2.861803
 30
0.0
 10
0.469988
 20
2.883157
 30
0.0
 10
0.474743
 20
2.923957
 30
0.0
 10
0.521888
 20
2.969733
 30
0.0
 10
0.583663
 20
2.982345
 30
0.0
 10
0.645918
 20
2.969733
 30
0.0
 10
0.691643
 20
2.923942
 30
0.0
 10
0.704247
 20
2.861805
 30
0.0
 10
0.691641
 20
2.799668
 30
0.0
 10
0.645919
 20
2.753877
 30
0.0
 10
0.583663
 20
2.741259
 30
0.0
 10
0.521887
 20
2.753877
 30
0.0
 10
0.474745
 20
2.799653
 30
0.0
 10
0.469988
 20
2.840451
 30
0.0
 10
0.467499
 20
2.861803
 30
0.0
 11
0.467499
 21
2.861803
 31
0.0
 11
0.482139
 21
2.922919
 31
0.0
 11
0.522614
 21
2.963377
 31
0.0
 11
0.583763
 21
2.978011
 31
0.0
 11
0.644864
 21
2.963377
 31
0.0
 11
0.685296
 21
2.922919
 31
0.0
 11
0.699916
 21
2.861803
 31
0.0
 11
0.685296
 21
2.800693
 31
0.0
 11
0.644864
 21
2.760232
 31
0.0
 11
0.583763
 21
2.745595
 31
0.0
 11
0.522614
 21
2.760232
 31
0.0
 11
0.482139
 21
2.800693
 31
0.0
 11
0.467499
 21
2.861803
 31
0.0
  0
LINE
  5
196
100
AcDbEntity
  8
text
 62
1
100
AcDbLine
 10
0.537277
 20
0.995136
 30
0.0
 11
0.630208
 21
0.995136
 31
0.0
  0
LINE
  5
197
100
AcDbEntity
  8
text
 62
1
100
AcDbLine
 10
0.583763
 20
0.948650
 30
0.0
 11
0.583763
 21
1.041636
 31
0.0
  0
SPLINE
  5
198
100
AcDbEntity
  8
text
 62
1
100
AcDbSpline
 70
0
 71
3
 72
19
 73
15
 74
13
 40
0.000000
 40
0.000000
 40
0.000000
 40
0.000000
 40
0.062845
 40
0.120074
 40
0.182949
 40
0.245779
 40
0.302976
 40
0.365816
 40
0.428650
 40
0.485850
 40
0.548681
 40
0.611557
 40
0.668788
 40
0.731627
 40
0.731627
 40
0.731627
 40
0.731627
 10
0.467499
 20
0.995136
 30
0.0
 10
0.469988
 20
1.016490
 30
0.0
 10
0.474743
 20
1.057290
 30
0.0
 10
0.521888
 20
1.103066
 30
0.0
 10
0.583663
 20
1.115678
 30
0.0
 10
0.645918
 20
1.103066
 30
0.0
 10
0.691643
 20
1.057275
 30
0.0
 10
0.704247
 20
0.995138
 30
0.0
 10
0.691641
 20
0.933002
 30
0.0
 10
0.645919
 20
0.887210
 30
0.0
 10
0.583663
 20
0.874592
 30
0.0
 10
0.521887
 20
0.887210
 30
0.0
 10
0.474745
 20
0.932986
 30
0.0
 10
0.469988
 20
0.973785
 30
0.0
 10
0.467499
 20
0.995136
 30
0.0
 11
0.467499
 21
0.995136
 31
0.0
 11
0.482139
 21
1.056252
 31
0.0
 11
0.522614
 21
1.096710
 31
0.0
 11
0.583763
 21
1.111345
 31
0.0
 11
0.644864
 21
1.096710
 31
0.0
 11
0.685296
 21
1.056252
 31
0.0
 11
0.699916
 21
0.995136
 31
0.0
 11
0.685296
 21
0.934027
 31
0.0
 11
0.644864
 21
0.893565
 31
0.0
 11
0.583763
 21
0.878928
 31
0.0
 11
0.522614
 21
0.893565
 31
0.0
 11
0.482139
 21
0.934027
 31
0.0
 11
0.467499
 21
0.995136
 31
0.0
  0
LINE
  5
199
100
AcDbEntity
  8
text
 62
1
100
AcDbLine
 10
0.537277
 20
1.950692
 30
0.0
 11
0.630208
 21
1.950692
 31
0.0
  0
LINE
  5
19a
100
AcDbEntity
  8
text
 62
1
100
AcDbLine
 10
0.583763
 20
1.904206
 30
0.0
 11
0.583763
 21
1.997192
 31
0.0
  0
LINE
  5
19b
100
AcDbEntity
  8
text
 62
1
100
AcDbLine
 10
2.907849
 20
0.294622
 30
0.0
 11
2.283516
 21
0.294622
 31
0.0
  0
LINE
  5
19c
100
AcDbEntity
  8
text
 62
1
100
AcDbLine
 10
2.283516
 20
0.294622
 30
0.0
 11
2.283516
 21
5.349854
 31
0.0
  0
LINE
  5
19d
100
AcDbEntity
  8
text
 62
1
100
AcDbLine
 10
2.283516
 20
5.349854
 30
0.0
 11
4.012367
 21
5.349854
 31
0.0
  0
LINE
  5
19e
100
AcDbEntity
  8
text
 62
1
100
AcDbLine
 10
4.012367
 20
5.349854
 30
0.0
 11
4.012367
 21
0.294622
 31
0.0
  0
LINE
  5
19f
100
AcDbEntity
  8
text
 62
1
100
AcDbLine
 10
4.012367
 20
0.294622
 30
0.0
 11
2.283516
 21
0.294622
 31
0.0
  0
SPLINE
  5
1a0
100
AcDbEntity
  8
text
 62
1
100
AcDbSpline
 70
0
 71
3
 72
19
 73
15
 74
13
 40
0.000000
 40
0.000000
 40
0.000000
 40
0.000000
 40
0.062845
 40
0.120074
 40
0.182949
 40
0.245779
 40
0.302976
 40
0.365816
 40
0.428650
 40
0.485850
 40
0.548681
 40
0.611557
 40
0.668788
 40
0.731627
 40
0.731627
 40
0.731627
 40
0.731627
 10
0.467499
 20
1.950692
 30
0.0
 10
0.469988
 20
1.972046
 30
0.0
 10
0.474743
 20
2.012846
 30
0.0
 10
0.521888
 20
2.058622
 30
0.0
 10
0.583663
 20
2.071234
 30
0.0
 10
0.645918
 20
2.058622
 30
0.0
 10
0.691643
 20
2.012831
 30
0.0
 10
0.704247
 20
1.950694
 30
0.0
 10
0.691641
 20
1.888557
 30
0.0
 10
0.645919
 20
1.842765
 30
0.0
 10
0.583663
 20
1.830148
 30
0.0
 10
0.521887
 20
1.842766
 30
0.0
 10
0.474745
 20
1.888542
 30
0.0
 10
0.469988
 20
1.929340
 30
0.0
 10
0.467499
 20
1.950692
 30
0.0
 11
0.467499
 21
1.950692
 31
0.0
 11
0.482139
 21
2.011808
 31
0.0
 11
0.522614
 21
2.052266
 31
0.0
 11
0.583763
 21
2.066900
 31
0.0
 11
0.644864
 21
2.052266
 31
0.0
 11
0.685296
 21
2.011808
 31
0.0
 11
0.699916
 21
1.950692
 31
0.0
 11
0.685296
 21
1.889582
 31
0.0
 11
0.644864
 21
1.849121
 31
0.0
 11
0.583763
 21
1.834483
 31
0.0
 11
0.522614
 21
1.849121
 31
0.0
 11
0.482139
 21
1.889582
 31
0.0
 11
0.467499
 21
1.950692
 31
0.0
  0
LINE
  5
1a1
100
AcDbEntity
  8
text
 62
1
100
AcDbLine
 10
3.837503
 20
5.225265
 30
0.0
 11
3.837503
 21
5.225265
 31
0.0
  0
SPLINE
  5
1a2
100
AcDbEntity
  8
text
 62
1
100
AcDbSpline
 70
0
 71
3
 72
19
 73
15
 74
13
 40
0.000000
 40
0.000000
 40
0.000000
 40
0.000000
 40
0.004968
 40
0.010009
 40
0.015421
 40
0.020828
 40
0.025852
 40
0.030816
 40
0.035784
 40
0.040812
 40
0.046220
 40
0.051633
 40
0.056679
 40
0.061650
 40
0.061650
 40
0.061650
 40
0.061650
 10
3.837503
 20
5.225265
 30
0.0
 10
3.837203
 20
5.223590
 30
0.0
 10
3.836600
 20
5.220215
 30
0.0
 10
3.832387
 20
5.216674
 30
0.0
 10
3.827099
 20
5.215401
 30
0.0
 10
3.821747
 20
5.216669
 30
0.0
 10
3.817737
 20
5.220222
 30
0.0
 10
3.816201
 20
5.225266
 30
0.0
 10
3.817738
 20
5.230311
 30
0.0
 10
3.821745
 20
5.233871
 30
0.0
 10
3.827099
 20
5.235145
 30
0.0
 10
3.832389
 20
5.233866
 30
0.0
 10
3.836600
 20
5.230318
 30
0.0
 10
3.837203
 20
5.226941
 30
0.0
 10
3.837503
 20
5.225265
 30
0.0
 11
3.837503
 21
5.225265
 31
0.0
 11
3.836080
 21
5.220505
 31
0.0
 11
3.832342
 21
5.217122
 31
0.0
 11
3.827086
 21
5.215834
 31
0.0
 11
3.821834
 21
5.217122
 31
0.0
 11
3.818120
 21
5.220505
 31
0.0
 11
3.816711
 21
5.225265
 31
0.0
 11
3.818120
 21
5.230028
 31
0.0
 11
3.821834
 21
5.233418
 31
0.0
 11
3.827086
 21
5.234709
 31
0.0
 11
3.832342
 21
5.233418
 31
0.0
 11
3.836080
 21
5.230028
 31
0.0
 11
3.837503
 21
5.225265
 31
0.0
  0
LINE
  5
1a3
100
AcDbEntity
  8
text
 62
1
100
AcDbLine
 10
2.571275
 20
0.413885
 30
0.0
 11
2.571275
 21
0.413885
 31
0.0
  0
SPLINE
  5
1a4
100
AcDbEntity
  8
text
 62
1
100
AcDbSpline
 70
0
 71
3
 72
19
 73
15
 74
13
 40
0.000000
 40
0.000000
 40
0.000000
 40
0.000000
 40
0.003531
 40
0.007403
 40
0.011798
 40
0.016178
 40
0.020063
 40
0.023598
 40
0.027124
 40
0.031006
 40
0.035387
 40
0.039781
 40
0.043651
 40
0.047173
 40
0.047173
 40
0.047173
 40
0.047173
 10
2.571275
 20
0.413885
 30
0.0
 10
2.571012
 20
0.412698
 30
0.0
 10
2.570462
 20
0.410211
 30
0.0
 10
2.566971
 20
0.407817
 30
0.0
 10
2.562777
 20
0.406962
 30
0.0
 10
2.558513
 20
0.407824
 30
0.0
 10
2.555199
 20
0.410207
 30
0.0
 10
2.553773
 20
0.413882
 30
0.0
 10
2.555201
 20
0.417554
 30
0.0
 10
2.558514
 20
0.419931
 30
0.0
 10
2.562777
 20
0.420794
 30
0.0
 10
2.566970
 20
0.419938
 30
0.0
 10
2.570459
 20
0.417550
 30
0.0
 10
2.571012
 20
0.415068
 30
0.0
 10
2.571275
 20
0.413885
 30
0.0
 11
2.571275
 21
0.413885
 31
0.0
 11
2.570114
 21
0.410550
 31
0.0
 11
2.567061
 21
0.408169
 31
0.0
 11
2.562761
 21
0.407260
 31
0.0
 11
2.558476
 21
0.408169
 31
0.0
 11
2.555407
 21
0.410550
 31
0.0
 11
2.554233
 21
0.413885
 31
0.0
 11
2.555407
 21
0.417210
 31
0.0
 11
2.558476
 21
0.419587
 31
0.0
 11
2.562761
 21
0.420496
 31
0.0
 11
2.567061
 21
0.419587
 31
0.0
 11
2.570114
 21
0.417210
 31
0.0
 11
2.571275
 21
0.413885
 31
0.0
  0
LINE
  5
1a5
100
AcDbEntity
  8
text
 62
1
100
AcDbLine
 10
3.545359
 20
4.331841
 30
0.0
 11
3.638290
 21
4.331841
 31
0.0
  0
LINE
  5
1a6
100
AcDbEntity
  8
text
 62
1
100
AcDbLine
 10
3.591846
 20
4.285355
 30
0.0
 11
3.591846
 21
4.378341
 31
0.0
  0
SPLINE
  5
1a7
100
AcDbEntity
  8
text
 62
1
100
AcDbSpline
 70
0
 71
3
 72
19
 73
15
 74
13
 40
0.000000
 40
0.000000
 40
0.000000
 40
0.000000
 40
0.062845
 40
0.120074
 40
0.182949
 40
0.245779
 40
0.302976
 40
0.365816
 40
0.428650
 40
0.485850
 40
0.548681
 40
0.611557
 40
0.668788
 40
0.731627
 40
0.731627
 40
0.731627
 40
0.731627
 10
3.475582
 20
4.331841
 30
0.0
 10
3.478070
 20
4.353195
 30
0.0
 10
3.482825
 20
4.393995
 30
0.0
 10
3.529971
 20
4.439771
 30
0.0
 10
3.591746
 20
4.452383
 30
0.0
 10
3.654001
 20
4.439771
 30
0.0
 10
3.699726
 20
4.393980
 30
0.0
 10
3.712329
 20
4.331843
 30
0.0
 10
3.699723
 20
4.269706
 30
0.0
 10
3.654002
 20
4.223915
 30
0.0
 10
3.591746
 20
4.211297
 30
0.0
 10
3.529970
 20
4.223915
 30
0.0
 10
3.482827
 20
4.269691
 30
0.0
 10
3.478071
 20
4.310489
 30
0.0
 10
3.475582
 20
4.331841
 30
0.0
 11
3.475582
 21
4.331841
 31
0.0
 11
3.490221
 21
4.392957
 31
0.0
 11
3.530697
 21
4.433415
 31
0.0
 11
3.591846
 21
4.448049
 31
0.0
 11
3.652947
 21
4.433415
 31
0.0
 11
3.693378
 21
4.392957
 31
0.0
 11
3.707998
 21
4.331841
 31
0.0
 11
3.693378
 21
4.270731
 31
0.0
 11
3.652947
 21
4.230270
 31
0.0
 11
3.591846
 21
4.215633
 31
0.0
 11
3.530697
 21
4.230270
 31
0.0
 11
3.490221
 21
4.270731
 31
0.0
 11
3.475582
 21
4.331841
 31
0.0
  0
LINE
  5
1a8
100
AcDbEntity
  8
text
 62
1
100
AcDbLine
 10
3.559499
 20
4.706247
 30
0.0
 11
3.652430
 21
4.706247
 31
0.0
  0
LINE
  5
1a9
100
AcDbEntity
  8
text
 62
1
100
AcDbLine
 10
3.605985
 20
4.659761
 30
0.0
 11
3.605985
 21
4.752747
 31
0.0
  0
SPLINE
  5
1aa
100
AcDbEntity
  8
text
 62
1
100
AcDbSpline
 70
0
 71
3
 72
19
 73
15
 74
13
 40
0.000000
 40
0.000000
 40
0.000000
 40
0.000000
 40
0.062845
 40
0.120074
 40
0.182949
 40
0.245779
 40
0.302976
 40
0.365816
 40
0.428650
 40
0.485850
 40
0.548681
 40
0.611557
 40
0.668788
 40
0.731627
 40
0.731627
 40
0.731627
 40
0.731627
 10
3.489721
 20
4.706247
 30
0.0
 10
3.492210
 20
4.727601
 30
0.0
 10
3.496965
 20
4.768402
 30
0.0
 10
3.544110
 20
4.814177
 30
0.0
 10
3.605885
 20
4.826789
 30
0.0
 10
3.668141
 20
4.814178
 30
0.0
 10
3.713866
 20
4.768386
 30
0.0
 10
3.726469
 20
4.706249
 30
0.0
 10
3.713863
 20
4.644113
 30
0.0
 10
3.668142
 20
4.598321
 30
0.0
 10
3.605885
 20
4.585704
 30
0.0
 10
3.544110
 20
4.598321
 30
0.0
 10
3.496967
 20
4.644097
 30
0.0
 10
3.492211
 20
4.684896
 30
0.0
 10
3.489721
 20
4.706247
 30
0.0
 11
3.489721
 21
4.706247
 31
0.0
 11
3.504361
 21
4.767363
 31
0.0
 11
3.544837
 21
4.807821
 31
0.0
 11
3.605985
 21
4.822456
 31
0.0
 11
3.667087
 21
4.807821
 31
0.0
 11
3.707518
 21
4.767363
 31
0.0
 11
3.722138
 21
4.706247
 31
0.0
 11
3.707518
 21
4.645138
 31
0.0
 11
3.667087
 21
4.604676
 31
0.0
 11
3.605985
 21
4.590039
 31
0.0
 11
3.544837
 21
4.604676
 31
0.0
 11
3.504361
 21
4.645138
 31
0.0
 11
3.489721
 21
4.706247
 31
0.0
  0
LINE
  5
1ab
100
AcDbEntity
  8
text
 62
1
100
AcDbLine
 10
3.545359
 20
4.002530
 30
0.0
 11
3.638290
 21
4.002530
 31
0.0
  0
LINE
  5
1ac
100
AcDbEntity
  8
text
 62
1
100
AcDbLine
 10
3.591846
 20
3.956044
 30
0.0
 11
3.591846
 21
4.049030
 31
0.0
  0
SPLINE
  5
1ad
100
AcDbEntity
  8
text
 62
1
100
AcDbSpline
 70
0
 71
3
 72
19
 73
15
 74
13
 40
0.000000
 40
0.000000
 40
0.000000
 40
0.000000
 40
0.062845
 40
0.120074
 40
0.182949
 40
0.245779
 40
0.302976
 40
0.365816
 40
0.428650
 40
0.485850
 40
0.548681
 40
0.611557
 40
0.668788
 40
0.731627
 40
0.731627
 40
0.731627
 40
0.731627
 10
3.475582
 20
4.002530
 30
0.0
 10
3.478070
 20
4.023884
 30
0.0
 10
3.482825
 20
4.064684
 30
0.0
 10
3.529971
 20
4.110460
 30
0.0
 10
3.591746
 20
4.123072
 30
0.0
 10
3.654001
 20
4.110460
 30
0.0
 10
3.699726
 20
4.064669
 30
0.0
 10
3.712329
 20
4.002532
 30
0.0
 10
3.699723
 20
3.940395
 30
0.0
 10
3.654002
 20
3.894603
 30
0.0
 10
3.591746
 20
3.881986
 30
0.0
 10
3.529970
 20
3.894604
 30
0.0
 10
3.482827
 20
3.940380
 30
0.0
 10
3.478071
 20
3.981178
 30
0.0
 10
3.475582
 20
4.002530
 30
0.0
 11
3.475582
 21
4.002530
 31
0.0
 11
3.490221
 21
4.063646
 31
0.0
 11
3.530697
 21
4.104104
 31
0.0
 11
3.591846
 21
4.118738
 31
0.0
 11
3.652947
 21
4.104104
 31
0.0
 11
3.693378
 21
4.063646
 31
0.0
 11
3.707998
 21
4.002530
 31
0.0
 11
3.693378
 21
3.941420
 31
0.0
 11
3.652947
 21
3.900959
 31
0.0
 11
3.591846
 21
3.886321
 31
0.0
 11
3.530697
 21
3.900959
 31
0.0
 11
3.490221
 21
3.941420
 31
0.0
 11
3.475582
 21
4.002530
 31
0.0
  0
LINE
  5
1ae
100
AcDbEntity
  8
text
 62
1
100
AcDbLine
 10
3.559499
 20
0.999318
 30
0.0
 11
3.652430
 21
0.999318
 31
0.0
  0
LINE
  5
1af
100
AcDbEntity
  8
text
 62
1
100
AcDbLine
 10
3.605985
 20
0.952832
 30
0.0
 11
3.605985
 21
1.045818
 31
0.0
  0
SPLINE
  5
1b0
100
AcDbEntity
  8
text
 62
1
100
AcDbSpline
 70
0
 71
3
 72
19
 73
15
 74
13
 40
0.000000
 40
0.000000
 40
0.000000
 40
0.000000
 40
0.062845
 40
0.120074
 40
0.182949
 40
0.245779
 40
0.302976
 40
0.365816
 40
0.428650
 40
0.485850
 40
0.548681
 40
0.611557
 40
0.668788
 40
0.731627
 40
0.731627
 40
0.731627
 40
0.731627
 10
3.489721
 20
0.999318
 30
0.0
 10
3.492210
 20
1.020672
 30
0.0
 10
3.496965
 20
1.061473
 30
0.0
 10
3.544110
 20
1.107248
 30
0.0
 10
3.605885
 20
1.119860
 30
0.0
 10
3.668141
 20
1.107249
 30
0.0
 10
3.713866
 20
1.061457
 30
0.0
 10
3.726469
 20
0.999320
 30
0.0
 10
3.713863
 20
0.937184
 30
0.0
 10
3.668142
 20
0.891392
 30
0.0
 10
3.605885
 20
0.878775
 30
0.0
 10
3.544110
 20
0.891392
 30
0.0
 10
3.496967
 20
0.937168
 30
0.0
 10
3.492211
 20
0.977967
 30
0.0
 10
3.489721
 20
0.999318
 30
0.0
 11
3.489721
 21
0.999318
 31
0.0
 11
3.504361
 21
1.060434
 31
0.0
 11
3.544837
 21
1.100892
 31
0.0
 11
3.605985
 21
1.115527
 31
0.0
 11
3.667087
 21
1.100892
 31
0.0
 11
3.707518
 21
1.060434
 31
0.0
 11
3.722138
 21
0.999318
 31
0.0
 11
3.707518
 21
0.938209
 31
0.0
 11
3.667087
 21
0.897747
 31
0.0
 11
3.605985
 21
0.883110
 31
0.0
 11
3.544837
 21
0.897747
 31
0.0
 11
3.504361
 21
0.938209
 31
0.0
 11
3.489721
 21
0.999318
 31
0.0
  0
LINE
  5
1b1
100
AcDbEntity
  8
text
 62
1
100
AcDbLine
 10
3.545359
 20
3.676484
 30
0.0
 11
3.638290
 21
3.676484
 31
0.0
  0
LINE
  5
1b2
100
AcDbEntity
  8
text
 62
1
100
AcDbLine
 10
3.591846
 20
3.629998
 30
0.0
 11
3.591846
 21
3.722984
 31
0.0
  0
SPLINE
  5
1b3
100
AcDbEntity
  8
text
 62
1
100
AcDbSpline
 70
0
 71
3
 72
19
 73
15
 74
13
 40
0.000000
 40
0.000000
 40
0.000000
 40
0.000000
 40
0.062845
 40
0.120074
 40
0.182949
 40
0.245779
 40
0.302976
 40
0.365816
 40
0.428650
 40
0.485850
 40
0.548681
 40
0.611557
 40
0.668788
 40
0.731627
 40
0.731627
 40
0.731627
 40
0.731627
 10
3.475582
 20
3.676484
 30
0.0
 10
3.478070
 20
3.697838
 30
0.0
 10
3.482825
 20
3.738638
 30
0.0
 10
3.529971
 20
3.784414
 30
0.0
 10
3.591746
 20
3.797026
 30
0.0
 10
3.654001
 20
3.784414
 30
0.0
 10
3.699726
 20
3.738623
 30
0.0
 10
3.712329
 20
3.676485
 30
0.0
 10
3.699723
 20
3.614349
 30
0.0
 10
3.654002
 20
3.568557
 30
0.0
 10
3.591746
 20
3.555940
 30
0.0
 10
3.529970
 20
3.568558
 30
0.0
 10
3.482827
 20
3.614334
 30
0.0
 10
3.478071
 20
3.655132
 30
0.0
 10
3.475582
 20
3.676484
 30
0.0
 11
3.475582
 21
3.676484
 31
0.0
 11
3.490221
 21
3.737599
 31
0.0
 11
3.530697
 21
3.778058
 31
0.0
 11
3.591846
 21
3.792692
 31
0.0
 11
3.652947
 21
3.778058
 31
0.0
 11
3.693378
 21
3.737599
 31
0.0
 11
3.707998
 21
3.676484
 31
0.0
 11
3.693378
 21
3.615374
 31
0.0
 11
3.652947
 21
3.574913
 31
0.0
 11
3.591846
 21
3.560275
 31
0.0
 11
3.530697
 21
3.574913
 31
0.0
 11
3.490221
 21
3.615374
 31
0.0
 11
3.475582
 21
3.676484
 31
0.0
  0
LINE
  5
1b4
100
AcDbEntity
  8
text
 62
1
100
AcDbLine
 10
3.545359
 20
3.349712
 30
0.0
 11
3.638290
 21
3.349712
 31
0.0
  0
LINE
  5
1b5
100
AcDbEntity
  8
text
 62
1
100
AcDbLine
 10
3.591846
 20
3.303226
 30
0.0
 11
3.591846
 21
3.396212
 31
0.0
  0
SPLINE
  5
1b6
100
AcDbEntity
  8
text
 62
1
100
AcDbSpline
 70
0
 71
3
 72
19
 73
15
 74
13
 40
0.000000
 40
0.000000
 40
0.000000
 40
0.000000
 40
0.062845
 40
0.120074
 40
0.182949
 40
0.245779
 40
0.302976
 40
0.365816
 40
0.428650
 40
0.485850
 40
0.548681
 40
0.611557
 40
0.668788
 40
0.731627
 40
0.731627
 40
0.731627
 40
0.731627
 10
3.475582
 20
3.349712
 30
0.0
 10
3.478070
 20
3.371066
 30
0.0
 10
3.482825
 20
3.411866
 30
0.0
 10
3.529971
 20
3.457642
 30
0.0
 10
3.591746
 20
3.470254
 30
0.0
 10
3.654001
 20
3.457642
 30
0.0
 10
3.699726
 20
3.411851
 30
0.0
 10
3.712329
 20
3.349714
 30
0.0
 10
3.699723
 20
3.287578
 30
0.0
 10
3.654002
 20
3.241786
 30
0.0
 10
3.591746
 20
3.229168
 30
0.0
 10
3.529970
 20
3.241786
 30
0.0
 10
3.482827
 20
3.287562
 30
0.0
 10
3.478071
 20
3.328360
 30
0.0
 10
3.475582
 20
3.349712
 30
0.0
 11
3.475582
 21
3.349712
 31
0.0
 11
3.490221
 21
3.410828
 31
0.0
 11
3.530697
 21
3.451286
 31
0.0
 11
3.591846
 21
3.465920
 31
0.0
 11
3.652947
 21
3.451286
 31
0.0
 11
3.693378
 21
3.410828
 31
0.0
 11
3.707998
 21
3.349712
 31
0.0
 11
3.693378
 21
3.288602
 31
0.0
 11
3.652947
 21
3.248141
 31
0.0
 11
3.591846
 21
3.233504
 31
0.0
 11
3.530697
 21
3.248141
 31
0.0
 11
3.490221
 21
3.288602
 31
0.0
 11
3.475582
 21
3.349712
 31
0.0
  0
LINE
  5
1b7
100
AcDbEntity
  8
text
 62
1
100
AcDbLine
 10
3.545359
 20
3.030027
 30
0.0
 11
3.638290
 21
3.030027
 31
0.0
  0
LINE
  5
1b8
100
AcDbEntity
  8
text
 62
1
100
AcDbLine
 10
3.591846
 20
2.983541
 30
0.0
 11
3.591846
 21
3.076527
 31
0.0
  0
SPLINE
  5
1b9
100
AcDbEntity
  8
text
 62
1
100
AcDbSpline
 70
0
 71
3
 72
19
 73
15
 74
13
 40
0.000000
 40
0.000000
 40
0.000000
 40
0.000000
 40
0.062845
 40
0.120074
 40
0.182949
 40
0.245779
 40
0.302976
 40
0.365816
 40
0.428650
 40
0.485850
 40
0.548681
 40
0.611557
 40
0.668788
 40
0.731627
 40
0.731627
 40
0.731627
 40
0.731627
 10
3.475582
 20
3.030027
 30
0.0
 10
3.478070
 20
3.051381
 30
0.0
 10
3.482825
 20
3.092181
 30
0.0
 10
3.529971
 20
3.137957
 30
0.0
 10
3.591746
 20
3.150569
 30
0.0
 10
3.654001
 20
3.137957
 30
0.0
 10
3.699726
 20
3.092166
 30
0.0
 10
3.712329
 20
3.030029
 30
0.0
 10
3.699723
 20
2.967892
 30
0.0
 10
3.654002
 20
2.922101
 30
0.0
 10
3.591746
 20
2.909483
 30
0.0
 10
3.529970
 20
2.922101
 30
0.0
 10
3.482827
 20
2.967877
 30
0.0
 10
3.478071
 20
3.008675
 30
0.0
 10
3.475582
 20
3.030027
 30
0.0
 11
3.475582
 21
3.030027
 31
0.0
 11
3.490221
 21
3.091143
 31
0.0
 11
3.530697
 21
3.131601
 31
0.0
 11
3.591846
 21
3.146235
 31
0.0
 11
3.652947
 21
3.131601
 31
0.0
 11
3.693378
 21
3.091143
 31
0.0
 11
3.707998
 21
3.030027
 31
0.0
 11
3.693378
 21
2.968917
 31
0.0
 11
3.652947
 21
2.928456
 31
0.0
 11
3.591846
 21
2.913819
 31
0.0
 11
3.530697
 21
2.928456
 31
0.0
 11
3.490221
 21
2.968917
 31
0.0
 11
3.475582
 21
3.030027
 31
0.0
  0
LINE
  5
1ba
100
AcDbEntity
  8
text
 62
1
100
AcDbLine
 10
3.545359
 20
2.702862
 30
0.0
 11
3.638290
 21
2.702862
 31
0.0
  0
LINE
  5
1bb
100
AcDbEntity
  8
text
 62
1
100
AcDbLine
 10
3.591846
 20
2.656375
 30
0.0
 11
3.591846
 21
2.749362
 31
0.0
  0
SPLINE
  5
1bc
100
AcDbEntity
  8
text
 62
1
100
AcDbSpline
 70
0
 71
3
 72
19
 73
15
 74
13
 40
0.000000
 40
0.000000
 40
0.000000
 40
0.000000
 40
0.062845
 40
0.120074
 40
0.182949
 40
0.245779
 40
0.302976
 40
0.365816
 40
0.428650
 40
0.485850
 40
0.548681
 40
0.611557
 40
0.668788
 40
0.731627
 40
0.731627
 40
0.731627
 40
0.731627
 10
3.475582
 20
2.702862
 30
0.0
 10
3.478070
 20
2.724216
 30
0.0
 10
3.482825
 20
2.765016
 30
0.0
 10
3.529971
 20
2.810791
 30
0.0
 10
3.591746
 20
2.823403
 30
0.0
 10
3.654001
 20
2.810792
 30
0.0
 10
3.699726
 20
2.765000
 30
0.0
 10
3.712329
 20
2.702863
 30
0.0
 10
3.699723
 20
2.640727
 30
0.0
 10
3.654002
 20
2.594935
 30
0.0
 10
3.591746
 20
2.582318
 30
0.0
 10
3.529970
 20
2.594936
 30
0.0
 10
3.482827
 20
2.640712
 30
0.0
 10
3.478071
 20
2.681510
 30
0.0
 10
3.475582
 20
2.702862
 30
0.0
 11
3.475582
 21
2.702862
 31
0.0
 11
3.490221
 21
2.763977
 31
0.0
 11
3.530697
 21
2.804436
 31
0.0
 11
3.591846
 21
2.819070
 31
0.0
 11
3.652947
 21
2.804436
 31
0.0
 11
3.693378
 21
2.763977
 31
0.0
 11
3.707998
 21
2.702862
 31
0.0
 11
3.693378
 21
2.641752
 31
0.0
 11
3.652947
 21
2.601291
 31
0.0
 11
3.591846
 21
2.586653
 31
0.0
 11
3.530697
 21
2.601291
 31
0.0
 11
3.490221
 21
2.641752
 31
0.0
 11
3.475582
 21
2.702862
 31
0.0
  0
LINE
  5
1bd
100
AcDbEntity
  8
text
 62
1
100
AcDbLine
 10
3.545359
 20
2.379121
 30
0.0
 11
3.638290
 21
2.379121
 31
0.0
  0
LINE
  5
1be
100
AcDbEntity
  8
text
 62
1
100
AcDbLine
 10
3.591846
 20
2.332635
 30
0.0
 11
3.591846
 21
2.425621
 31
0.0
  0
SPLINE
  5
1bf
100
AcDbEntity
  8
text
 62
1
100
AcDbSpline
 70
0
 71
3
 72
19
 73
15
 74
13
 40
0.000000
 40
0.000000
 40
0.000000
 40
0.000000
 40
0.062845
 40
0.120074
 40
0.182949
 40
0.245779
 40
0.302976
 40
0.365816
 40
0.428650
 40
0.485850
 40
0.548681
 40
0.611557
 40
0.668788
 40
0.731627
 40
0.731627
 40
0.731627
 40
0.731627
 10
3.475582
 20
2.379121
 30
0.0
 10
3.478070
 20
2.400476
 30
0.0
 10
3.482825
 20
2.441276
 30
0.0
 10
3.529971
 20
2.487051
 30
0.0
 10
3.591746
 20
2.499663
 30
0.0
 10
3.654001
 20
2.487052
 30
0.0
 10
3.699726
 20
2.441260
 30
0.0
 10
3.712329
 20
2.379123
 30
0.0
 10
3.699723
 20
2.316987
 30
0.0
 10
3.654002
 20
2.271195
 30
0.0
 10
3.591746
 20
2.258578
 30
0.0
 10
3.529970
 20
2.271195
 30
0.0
 10
3.482827
 20
2.316972
 30
0.0
 10
3.478071
 20
2.357770
 30
0.0
 10
3.475582
 20
2.379121
 30
0.0
 11
3.475582
 21
2.379121
 31
0.0
 11
3.490221
 21
2.440237
 31
0.0
 11
3.530697
 21
2.480696
 31
0.0
 11
3.591846
 21
2.495330
 31
0.0
 11
3.652947
 21
2.480696
 31
0.0
 11
3.693378
 21
2.440237
 31
0.0
 11
3.707998
 21
2.379121
 31
0.0
 11
3.693378
 21
2.318012
 31
0.0
 11
3.652947
 21
2.277551
 31
0.0
 11
3.591846
 21
2.262913
 31
0.0
 11
3.530697
 21
2.277551
 31
0.0
 11
3.490221
 21
2.318012
 31
0.0
 11
3.475582
 21
2.379121
 31
0.0
  0
LINE
  5
1c0
100
AcDbEntity
  8
text
 62
1
100
AcDbLine
 10
3.545359
 20
2.050499
 30
0.0
 11
3.638290
 21
2.050499
 31
0.0
  0
LINE
  5
1c1
100
AcDbEntity
  8
text
 62
1
100
AcDbLine
 10
3.591846
 20
2.004013
 30
0.0
 11
3.591846
 21
2.096999
 31
0.0
  0
SPLINE
  5
1c2
100
AcDbEntity
  8
text
 62
1
100
AcDbSpline
 70
0
 71
3
 72
19
 73
15
 74
13
 40
0.000000
 40
0.000000
 40
0.000000
 40
0.000000
 40
0.062845
 40
0.120074
 40
0.182949
 40
0.245779
 40
0.302976
 40
0.365816
 40
0.428650
 40
0.485850
 40
0.548681
 40
0.611557
 40
0.668788
 40
0.731627
 40
0.731627
 40
0.731627
 40
0.731627
 10
3.475582
 20
2.050499
 30
0.0
 10
3.478070
 20
2.071853
 30
0.0
 10
3.482825
 20
2.112654
 30
0.0
 10
3.529971
 20
2.158429
 30
0.0
 10
3.591746
 20
2.171041
 30
0.0
 10
3.654001
 20
2.158430
 30
0.0
 10
3.699726
 20
2.112638
 30
0.0
 10
3.712329
 20
2.050501
 30
0.0
 10
3.699723
 20
1.988365
 30
0.0
 10
3.654002
 20
1.942573
 30
0.0
 10
3.591746
 20
1.929956
 30
0.0
 10
3.529970
 20
1.942573
 30
0.0
 10
3.482827
 20
1.988349
 30
0.0
 10
3.478071
 20
2.029148
 30
0.0
 10
3.475582
 20
2.050499
 30
0.0
 11
3.475582
 21
2.050499
 31
0.0
 11
3.490221
 21
2.111615
 31
0.0
 11
3.530697
 21
2.152073
 31
0.0
 11
3.591846
 21
2.166708
 31
0.0
 11
3.652947
 21
2.152073
 31
0.0
 11
3.693378
 21
2.111615
 31
0.0
 11
3.707998
 21
2.050499
 31
0.0
 11
3.693378
 21
1.989390
 31
0.0
 11
3.652947
 21
1.948928
 31
0.0
 11
3.591846
 21
1.934291
 31
0.0
 11
3.530697
 21
1.948928
 31
0.0
 11
3.490221
 21
1.989390
 31
0.0
 11
3.475582
 21
2.050499
 31
0.0
  0
LINE
  5
1c3
100
AcDbEntity
  8
text
 62
1
100
AcDbLine
 10
3.545359
 20
1.724043
 30
0.0
 11
3.638290
 21
1.724043
 31
0.0
  0
LINE
  5
1c4
100
AcDbEntity
  8
text
 62
1
100
AcDbLine
 10
3.591846
 20
1.677557
 30
0.0
 11
3.591846
 21
1.770543
 31
0.0
  0
SPLINE
  5
1c5
100
AcDbEntity
  8
text
 62
1
100
AcDbSpline
 70
0
 71
3
 72
19
 73
15
 74
13
 40
0.000000
 40
0.000000
 40
0.000000
 40
0.000000
 40
0.062845
 40
0.120074
 40
0.182949
 40
0.245779
 40
0.302976
 40
0.365816
 40
0.428650
 40
0.485850
 40
0.548681
 40
0.611557
 40
0.668788
 40
0.731627
 40
0.731627
 40
0.731627
 40
0.731627
 10
3.475582
 20
1.724043
 30
0.0
 10
3.478070
 20
1.745397
 30
0.0
 10
3.482825
 20
1.786197
 30
0.0
 10
3.529971
 20
1.831973
 30
0.0
 10
3.591746
 20
1.844585
 30
0.0
 10
3.654001
 20
1.831973
 30
0.0
 10
3.699726
 20
1.786182
 30
0.0
 10
3.712329
 20
1.724044
 30
0.0
 10
3.699723
 20
1.661908
 30
0.0
 10
3.654002
 20
1.616116
 30
0.0
 10
3.591746
 20
1.603499
 30
0.0
 10
3.529970
 20
1.616117
 30
0.0
 10
3.482827
 20
1.661893
 30
0.0
 10
3.478071
 20
1.702691
 30
0.0
 10
3.475582
 20
1.724043
 30
0.0
 11
3.475582
 21
1.724043
 31
0.0
 11
3.490221
 21
1.785158
 31
0.0
 11
3.530697
 21
1.825617
 31
0.0
 11
3.591846
 21
1.840251
 31
0.0
 11
3.652947
 21
1.825617
 31
0.0
 11
3.693378
 21
1.785158
 31
0.0
 11
3.707998
 21
1.724043
 31
0.0
 11
3.693378
 21
1.662933
 31
0.0
 11
3.652947
 21
1.622472
 31
0.0
 11
3.591846
 21
1.607834
 31
0.0
 11
3.530697
 21
1.622472
 31
0.0
 11
3.490221
 21
1.662933
 31
0.0
 11
3.475582
 21
1.724043
 31
0.0
  0
LINE
  5
1c6
100
AcDbEntity
  8
text
 62
1
100
AcDbLine
 10
3.545359
 20
1.402530
 30
0.0
 11
3.638290
 21
1.402530
 31
0.0
  0
LINE
  5
1c7
100
AcDbEntity
  8
text
 62
1
100
AcDbLine
 10
3.591846
 20
1.356044
 30
0.0
 11
3.591846
 21
1.449030
 31
0.0
  0
SPLINE
  5
1c8
100
AcDbEntity
  8
text
 62
1
100
AcDbSpline
 70
0
 71
3
 72
19
 73
15
 74
13
 40
0.000000
 40
0.000000
 40
0.000000
 40
0.000000
 40
0.062845
 40
0.120074
 40
0.182949
 40
0.245779
 40
0.302976
 40
0.365816
 40
0.428650
 40
0.485850
 40
0.548681
 40
0.611557
 40
0.668788
 40
0.731627
 40
0.731627
 40
0.731627
 40
0.731627
 10
3.475582
 20
1.402530
 30
0.0
 10
3.478070
 20
1.423884
 30
0.0
 10
3.482825
 20
1.464684
 30
0.0
 10
3.529971
 20
1.510460
 30
0.0
 10
3.591746
 20
1.523072
 30
0.0
 10
3.654001
 20
1.510460
 30
0.0
 10
3.699726
 20
1.464669
 30
0.0
 10
3.712329
 20
1.402532
 30
0.0
 10
3.699723
 20
1.340395
 30
0.0
 10
3.654002
 20
1.294603
 30
0.0
 10
3.591746
 20
1.281986
 30
0.0
 10
3.529970
 20
1.294604
 30
0.0
 10
3.482827
 20
1.340380
 30
0.0
 10
3.478071
 20
1.381178
 30
0.0
 10
3.475582
 20
1.402530
 30
0.0
 11
3.475582
 21
1.402530
 31
0.0
 11
3.490221
 21
1.463646
 31
0.0
 11
3.530697
 21
1.504104
 31
0.0
 11
3.591846
 21
1.518738
 31
0.0
 11
3.652947
 21
1.504104
 31
0.0
 11
3.693378
 21
1.463646
 31
0.0
 11
3.707998
 21
1.402530
 31
0.0
 11
3.693378
 21
1.341420
 31
0.0
 11
3.652947
 21
1.300959
 31
0.0
 11
3.591846
 21
1.286321
 31
0.0
 11
3.530697
 21
1.300959
 31
0.0
 11
3.490221
 21
1.341420
 31
0.0
 11
3.475582
 21
1.402530
 31
0.0
  0
LINE
  5
1c9
100
AcDbEntity
  8
text
 62
1
100
AcDbLine
 10
3.034248
 20
4.331841
 30
0.0
 11
3.127179
 21
4.331841
 31
0.0
  0
LINE
  5
1ca
100
AcDbEntity
  8
text
 62
1
100
AcDbLine
 10
3.080734
 20
4.285355
 30
0.0
 11
3.080734
 21
4.378341
 31
0.0
  0
SPLINE
  5
1cb
100
AcDbEntity
  8
text
 62
1
100
AcDbSpline
 70
0
 71
3
 72
19
 73
15
 74
13
 40
0.000000
 40
0.000000
 40
0.000000
 40
0.000000
 40
0.062845
 40
0.120074
 40
0.182949
 40
0.245779
 40
0.302976
 40
0.365816
 40
0.428650
 40
0.485850
 40
0.548681
 40
0.611557
 40
0.668788
 40
0.731627
 40
0.731627
 40
0.731627
 40
0.731627
 10
2.964471
 20
4.331841
 30
0.0
 10
2.966959
 20
4.353195
 30
0.0
 10
2.971714
 20
4.393995
 30
0.0
 10
3.018859
 20
4.439771
 30
0.0
 10
3.080634
 20
4.452383
 30
0.0
 10
3.142890
 20
4.439771
 30
0.0
 10
3.188615
 20
4.393980
 30
0.0
 10
3.201218
 20
4.331843
 30
0.0
 10
3.188612
 20
4.269706
 30
0.0
 10
3.142891
 20
4.223915
 30
0.0
 10
3.080634
 20
4.211297
 30
0.0
 10
3.018859
 20
4.223915
 30
0.0
 10
2.971716
 20
4.269691
 30
0.0
 10
2.966960
 20
4.310489
 30
0.0
 10
2.964471
 20
4.331841
 30
0.0
 11
2.964471
 21
4.331841
 31
0.0
 11
2.979110
 21
4.392957
 31
0.0
 11
3.019586
 21
4.433415
 31
0.0
 11
3.080734
 21
4.448049
 31
0.0
 11
3.141836
 21
4.433415
 31
0.0
 11
3.182267
 21
4.392957
 31
0.0
 11
3.196887
 21
4.331841
 31
0.0
 11
3.182267
 21
4.270731
 31
0.0
 11
3.141836
 21
4.230270
 31
0.0
 11
3.080734
 21
4.215633
 31
0.0
 11
3.019586
 21
4.230270
 31
0.0
 11
2.979110
 21
4.270731
 31
0.0
 11
2.964471
 21
4.331841
 31
0.0
  0
LINE
  5
1cc
100
AcDbEntity
  8
text
 62
1
100
AcDbLine
 10
3.034248
 20
4.002530
 30
0.0
 11
3.127179
 21
4.002530
 31
0.0
  0
LINE
  5
1cd
100
AcDbEntity
  8
text
 62
1
100
AcDbLine
 10
3.080734
 20
3.956044
 30
0.0
 11
3.080734
 21
4.049030
 31
0.0
  0
SPLINE
  5
1ce
100
AcDbEntity
  8
text
 62
1
100
AcDbSpline
 70
0
 71
3
 72
19
 73
15
 74
13
 40
0.000000
 40
0.000000
 40
0.000000
 40
0.000000
 40
0.062845
 40
0.120074
 40
0.182949
 40
0.245779
 40
0.302976
 40
0.365816
 40
0.428650
 40
0.485850
 40
0.548681
 40
0.611557
 40
0.668788
 40
0.731627
 40
0.731627
 40
0.731627
 40
0.731627
 10
2.964471
 20
4.002530
 30
0.0
 10
2.966959
 20
4.023884
 30
0.0
 10
2.971714
 20
4.064684
 30
0.0
 10
3.018859
 20
4.110460
 30
0.0
 10
3.080634
 20
4.123072
 30
0.0
 10
3.142890
 20
4.110460
 30
0.0
 10
3.188615
 20
4.064669
 30
0.0
 10
3.201218
 20
4.002532
 30
0.0
 10
3.188612
 20
3.940395
 30
0.0
 10
3.142891
 20
3.894603
 30
0.0
 10
3.080634
 20
3.881986
 30
0.0
 10
3.018859
 20
3.894604
 30
0.0
 10
2.971716
 20
3.940380
 30
0.0
 10
2.966960
 20
3.981178
 30
0.0
 10
2.964471
 20
4.002530
 30
0.0
 11
2.964471
 21
4.002530
 31
0.0
 11
2.979110
 21
4.063646
 31
0.0
 11
3.019586
 21
4.104104
 31
0.0
 11
3.080734
 21
4.118738
 31
0.0
 11
3.141836
 21
4.104104
 31
0.0
 11
3.182267
 21
4.063646
 31
0.0
 11
3.196887
 21
4.002530
 31
0.0
 11
3.182267
 21
3.941420
 31
0.0
 11
3.141836
 21
3.900959
 31
0.0
 11
3.080734
 21
3.886321
 31
0.0
 11
3.019586
 21
3.900959
 31
0.0
 11
2.979110
 21
3.941420
 31
0.0
 11
2.964471
 21
4.002530
 31
0.0
  0
LINE
  5
1cf
100
AcDbEntity
  8
text
 62
1
100
AcDbLine
 10
3.034248
 20
3.676484
 30
0.0
 11
3.127179
 21
3.676484
 31
0.0
  0
LINE
  5
1d0
100
AcDbEntity
  8
text
 62
1
100
AcDbLine
 10
3.080734
 20
3.629998
 30
0.0
 11
3.080734
 21
3.722984
 31
0.0
  0
SPLINE
  5
1d1
100
AcDbEntity
  8
text
 62
1
100
AcDbSpline
 70
0
 71
3
 72
19
 73
15
 74
13
 40
0.000000
 40
0.000000
 40
0.000000
 40
0.000000
 40
0.062845
 40
0.120074
 40
0.182949
 40
0.245779
 40
0.302976
 40
0.365816
 40
0.428650
 40
0.485850
 40
0.548681
 40
0.611557
 40
0.668788
 40
0.731627
 40
0.731627
 40
0.731627
 40
0.731627
 10
2.964471
 20
3.676484
 30
0.0
 10
2.966959
 20
3.697838
 30
0.0
 10
2.971714
 20
3.738638
 30
0.0
 10
3.018859
 20
3.784414
 30
0.0
 10
3.080634
 20
3.797026
 30
0.0
 10
3.142890
 20
3.784414
 30
0.0
 10
3.188615
 20
3.738623
 30
0.0
 10
3.201218
 20
3.676485
 30
0.0
 10
3.188612
 20
3.614349
 30
0.0
 10
3.142891
 20
3.568557
 30
0.0
 10
3.080634
 20
3.555940
 30
0.0
 10
3.018859
 20
3.568558
 30
0.0
 10
2.971716
 20
3.614334
 30
0.0
 10
2.966960
 20
3.655132
 30
0.0
 10
2.964471
 20
3.676484
 30
0.0
 11
2.964471
 21
3.676484
 31
0.0
 11
2.979110
 21
3.737599
 31
0.0
 11
3.019586
 21
3.778058
 31
0.0
 11
3.080734
 21
3.792692
 31
0.0
 11
3.141836
 21
3.778058
 31
0.0
 11
3.182267
 21
3.737599
 31
0.0
 11
3.196887
 21
3.676484
 31
0.0
 11
3.182267
 21
3.615374
 31
0.0
 11
3.141836
 21
3.574913
 31
0.0
 11
3.080734
 21
3.560275
 31
0.0
 11
3.019586
 21
3.574913
 31
0.0
 11
2.979110
 21
3.615374
 31
0.0
 11
2.964471
 21
3.676484
 31
0.0
  0
LINE
  5
1d2
100
AcDbEntity
  8
text
 62
1
100
AcDbLine
 10
3.034248
 20
3.349712
 30
0.0
 11
3.127179
 21
3.349712
 31
0.0
  0
LINE
  5
1d3
100
AcDbEntity
  8
text
 62
1
100
AcDbLine
 10
3.080734
 20
3.303226
 30
0.0
 11
3.080734
 21
3.396212
 31
0.0
  0
SPLINE
  5
1d4
100
AcDbEntity
  8
text
 62
1
100
AcDbSpline
 70
0
 71
3
 72
19
 73
15
 74
13
 40
0.000000
 40
0.000000
 40
0.000000
 40
0.000000
 40
0.062845
 40
0.120074
 40
0.182949
 40
0.245779
 40
0.302976
 40
0.365816
 40
0.428650
 40
0.485850
 40
0.548681
 40
0.611557
 40
0.668788
 40
0.731627
 40
0.731627
 40
0.731627
 40
0.731627
 10
2.964471
 20
3.349712
 30
0.0
 10
2.966959
 20
3.371066
 30
0.0
 10
2.971714
 20
3.411866
 30
0.0
 10
3.018859
 20
3.457642
 30
0.0
 10
3.080634
 20
3.470254
 30
0.0
 10
3.142890
 20
3.457642
 30
0.0
 10
3.188615
 20
3.411851
 30
0.0
 10
3.201218
 20
3.349714
 30
0.0
 10
3.188612
 20
3.287578
 30
0.0
 10
3.142891
 20
3.241786
 30
0.0
 10
3.080634
 20
3.229168
 30
0.0
 10
3.018859
 20
3.241786
 30
0.0
 10
2.971716
 20
3.287562
 30
0.0
 10
2.966960
 20
3.328360
 30
0.0
 10
2.964471
 20
3.349712
 30
0.0
 11
2.964471
 21
3.349712
 31
0.0
 11
2.979110
 21
3.410828
 31
0.0
 11
3.019586
 21
3.451286
 31
0.0
 11
3.080734
 21
3.465920
 31
0.0
 11
3.141836
 21
3.451286
 31
0.0
 11
3.182267
 21
3.410828
 31
0.0
 11
3.196887
 21
3.349712
 31
0.0
 11
3.182267
 21
3.288602
 31
0.0
 11
3.141836
 21
3.248141
 31
0.0
 11
3.080734
 21
3.233504
 31
0.0
 11
3.019586
 21
3.248141
 31
0.0
 11
2.979110
 21
3.288602
 31
0.0
 11
2.964471
 21
3.349712
 31
0.0
  0
LINE
  5
1d5
100
AcDbEntity
  8
text
 62
1
100
AcDbLine
 10
3.034248
 20
3.030027
 30
0.0
 11
3.127179
 21
3.030027
 31
0.0
  0
LINE
  5
1d6
100
AcDbEntity
  8
text
 62
1
100
AcDbLine
 10
3.080734
 20
2.983541
 30
0.0
 11
3.080734
 21
3.076527
 31
0.0
  0
SPLINE
  5
1d7
100
AcDbEntity
  8
text
 62
1
100
AcDbSpline
 70
0
 71
3
 72
19
 73
15
 74
13
 40
0.000000
 40
0.000000
 40
0.000000
 40
0.000000
 40
0.062845
 40
0.120074
 40
0.182949
 40
0.245779
 40
0.302976
 40
0.365816
 40
0.428650
 40
0.485850
 40
0.548681
 40
0.611557
 40
0.668788
 40
0.731627
 40
0.731627
 40
0.731627
 40
0.731627
 10
2.964471
 20
3.030027
 30
0.0
 10
2.966959
 20
3.051381
 30
0.0
 10
2.971714
 20
3.092181
 30
0.0
 10
3.018859
 20
3.137957
 30
0.0
 10
3.080634
 20
3.150569
 30
0.0
 10
3.142890
 20
3.137957
 30
0.0
 10
3.188615
 20
3.092166
 30
0.0
 10
3.201218
 20
3.030029
 30
0.0
 10
3.188612
 20
2.967892
 30
0.0
 10
3.142891
 20
2.922101
 30
0.0
 10
3.080634
 20
2.909483
 30
0.0
 10
3.018859
 20
2.922101
 30
0.0
 10
2.971716
 20
2.967877
 30
0.0
 10
2.966960
 20
3.008675
 30
0.0
 10
2.964471
 20
3.030027
 30
0.0
 11
2.964471
 21
3.030027
 31
0.0
 11
2.979110
 21
3.091143
 31
0.0
 11
3.019586
 21
3.131601
 31
0.0
 11
3.080734
 21
3.146235
 31
0.0
 11
3.141836
 21
3.131601
 31
0.0
 11
3.182267
 21
3.091143
 31
0.0
 11
3.196887
 21
3.030027
 31
0.0
 11
3.182267
 21
2.968917
 31
0.0
 11
3.141836
 21
2.928456
 31
0.0
 11
3.080734
 21
2.913819
 31
0.0
 11
3.019586
 21
2.928456
 31
0.0
 11
2.979110
 21
2.968917
 31
0.0
 11
2.964471
 21
3.030027
 31
0.0
  0
LINE
  5
1d8
100
AcDbEntity
  8
text
 62
1
100
AcDbLine
 10
3.034248
 20
2.702862
 30
0.0
 11
3.127179
 21
2.702862
 31
0.0
  0
LINE
  5
1d9
100
AcDbEntity
  8
text
 62
1
100
AcDbLine
 10
3.080734
 20
2.656375
 30
0.0
 11
3.080734
 21
2.749362
 31
0.0
  0
SPLINE
  5
1da
100
AcDbEntity
  8
text
 62
1
100
AcDbSpline
 70
0
 71
3
 72
19
 73
15
 74
13
 40
0.000000
 40
0.000000
 40
0.000000
 40
0.000000
 40
0.062845
 40
0.120074
 40
0.182949
 40
0.245779
 40
0.302976
 40
0.365816
 40
0.428650
 40
0.485850
 40
0.548681
 40
0.611557
 40
0.668788
 40
0.731627
 40
0.731627
 40
0.731627
 40
0.731627
 10
2.964471
 20
2.702862
 30
0.0
 10
2.966959
 20
2.724216
 30
0.0
 10
2.971714
 20
2.765016
 30
0.0
 10
3.018859
 20
2.810791
 30
0.0
 10
3.080634
 20
2.823403
 30
0.0
 10
3.142890
 20
2.810792
 30
0.0
 10
3.188615
 20
2.765000
 30
0.0
 10
3.201218
 20
2.702863
 30
0.0
 10
3.188612
 20
2.640727
 30
0.0
 10
3.142891
 20
2.594935
 30
0.0
 10
3.080634
 20
2.582318
 30
0.0
 10
3.018859
 20
2.594936
 30
0.0
 10
2.971716
 20
2.640712
 30
0.0
 10
2.966960
 20
2.681510
 30
0.0
 10
2.964471
 20
2.702862
 30
0.0
 11
2.964471
 21
2.702862
 31
0.0
 11
2.979110
 21
2.763977
 31
0.0
 11
3.019586
 21
2.804436
 31
0.0
 11
3.080734
 21
2.819070
 31
0.0
 11
3.141836
 21
2.804436
 31
0.0
 11
3.182267
 21
2.763977
 31
0.0
 11
3.196887
 21
2.702862
 31
0.0
 11
3.182267
 21
2.641752
 31
0.0
 11
3.141836
 21
2.601291
 31
0.0
 11
3.080734
 21
2.586653
 31
0.0
 11
3.019586
 21
2.601291
 31
0.0
 11
2.979110
 21
2.641752
 31
0.0
 11
2.964471
 21
2.702862
 31
0.0
  0
LINE
  5
1db
100
AcDbEntity
  8
text
 62
1
100
AcDbLine
 10
3.034248
 20
2.379121
 30
0.0
 11
3.127179
 21
2.379121
 31
0.0
  0
LINE
  5
1dc
100
AcDbEntity
  8
text
 62
1
100
AcDbLine
 10
3.080734
 20
2.332635
 30
0.0
 11
3.080734
 21
2.425621
 31
0.0
  0
SPLINE
  5
1dd
100
AcDbEntity
  8
text
 62
1
100
AcDbSpline
 70
0
 71
3
 72
19
 73
15
 74
13
 40
0.000000
 40
0.000000
 40
0.000000
 40
0.000000
 40
0.062845
 40
0.120074
 40
0.182949
 40
0.245779
 40
0.302976
 40
0.365816
 40
0.428650
 40
0.485850
 40
0.548681
 40
0.611557
 40
0.668788
 40
0.731627
 40
0.731627
 40
0.731627
 40
0.731627
 10
2.964471
 20
2.379121
 30
0.0
 10
2.966959
 20
2.400476
 30
0.0
 10
2.971714
 20
2.441276
 30
0.0
 10
3.018859
 20
2.487051
 30
0.0
 10
3.080634
 20
2.499663
 30
0.0
 10
3.142890
 20
2.487052
 30
0.0
 10
3.188615
 20
2.441260
 30
0.0
 10
3.201218
 20
2.379123
 30
0.0
 10
3.188612
 20
2.316987
 30
0.0
 10
3.142891
 20
2.271195
 30
0.0
 10
3.080634
 20
2.258578
 30
0.0
 10
3.018859
 20
2.271195
 30
0.0
 10
2.971716
 20
2.316972
 30
0.0
 10
2.966960
 20
2.357770
 30
0.0
 10
2.964471
 20
2.379121
 30
0.0
 11
2.964471
 21
2.379121
 31
0.0
 11
2.979110
 21
2.440237
 31
0.0
 11
3.019586
 21
2.480696
 31
0.0
 11
3.080734
 21
2.495330
 31
0.0
 11
3.141836
 21
2.480696
 31
0.0
 11
3.182267
 21
2.440237
 31
0.0
 11
3.196887
 21
2.379121
 31
0.0
 11
3.182267
 21
2.318012
 31
0.0
 11
3.141836
 21
2.277551
 31
0.0
 11
3.080734
 21
2.262913
 31
0.0
 11
3.019586
 21
2.277551
 31
0.0
 11
2.979110
 21
2.318012
 31
0.0
 11
2.964471
 21
2.379121
 31
0.0
  0
LINE
  5
1de
100
AcDbEntity
  8
text
 62
1
100
AcDbLine
 10
3.034248
 20
2.050499
 30
0.0
 11
3.127179
 21
2.050499
 31
0.0
  0
LINE
  5
1df
100
AcDbEntity
  8
text
 62
1
100
AcDbLine
 10
3.080734
 20
2.004013
 30
0.0
 11
3.080734
 21
2.096999
 31
0.0
  0
SPLINE
  5
1e0
100
AcDbEntity
  8
text
 62
1
100
AcDbSpline
 70
0
 71
3
 72
19
 73
15
 74
13
 40
0.000000
 40
0.000000
 40
0.000000
 40
0.000000
 40
0.062845
 40
0.120074
 40
0.182949
 40
0.245779
 40
0.302976
 40
0.365816
 40
0.428650
 40
0.485850
 40
0.548681
 40
0.611557
 40
0.668788
 40
0.731627
 40
0.731627
 40
0.731627
 40
0.731627
 10
2.964471
 20
2.050499
 30
0.0
 10
2.966959
 20
2.071853
 30
0.0
 10
2.971714
 20
2.112654
 30
0.0
 10
3.018859
 20
2.158429
 30
0.0
 10
3.080634
 20
2.171041
 30
0.0
 10
3.142890
 20
2.158430
 30
0.0
 10
3.188615
 20
2.112638
 30
0.0
 10
3.201218
 20
2.050501
 30
0.0
 10
3.188612
 20
1.988365
 30
0.0
 10
3.142891
 20
1.942573
 30
0.0
 10
3.080634
 20
1.929956
 30
0.0
 10
3.018859
 20
1.942573
 30
0.0
 10
2.971716
 20
1.988349
 30
0.0
 10
2.966960
 20
2.029148
 30
0.0
 10
2.964471
 20
2.050499
 30
0.0
 11
2.964471
 21
2.050499
 31
0.0
 11
2.979110
 21
2.111615
 31
0.0
 11
3.019586
 21
2.152073
 31
0.0
 11
3.080734
 21
2.166708
 31
0.0
 11
3.141836
 21
2.152073
 31
0.0
 11
3.182267
 21
2.111615
 31
0.0
 11
3.196887
 21
2.050499
 31
0.0
 11
3.182267
 21
1.989390
 31
0.0
 11
3.141836
 21
1.948928
 31
0.0
 11
3.080734
 21
1.934291
 31
0.0
 11
3.019586
 21
1.948928
 31
0.0
 11
2.979110
 21
1.989390
 31
0.0
 11
2.964471
 21
2.050499
 31
0.0
  0
LINE
  5
1e1
100
AcDbEntity
  8
text
 62
1
100
AcDbLine
 10
3.034248
 20
1.724043
 30
0.0
 11
3.127179
 21
1.724043
 31
0.0
  0
LINE
  5
1e2
100
AcDbEntity
  8
text
 62
1
100
AcDbLine
 10
3.080734
 20
1.677557
 30
0.0
 11
3.080734
 21
1.770543
 31
0.0
  0
SPLINE
  5
1e3
100
AcDbEntity
  8
text
 62
1
100
AcDbSpline
 70
0
 71
3
 72
19
 73
15
 74
13
 40
0.000000
 40
0.000000
 40
0.000000
 40
0.000000
 40
0.062845
 40
0.120074
 40
0.182949
 40
0.245779
 40
0.302976
 40
0.365816
 40
0.428650
 40
0.485850
 40
0.548681
 40
0.611557
 40
0.668788
 40
0.731627
 40
0.731627
 40
0.731627
 40
0.731627
 10
2.964471
 20
1.724043
 30
0.0
 10
2.966959
 20
1.745397
 30
0.0
 10
2.971714
 20
1.786197
 30
0.0
 10
3.018859
 20
1.831973
 30
0.0
 10
3.080634
 20
1.844585
 30
0.0
 10
3.142890
 20
1.831973
 30
0.0
 10
3.188615
 20
1.786182
 30
0.0
 10
3.201218
 20
1.724044
 30
0.0
 10
3.188612
 20
1.661908
 30
0.0
 10
3.142891
 20
1.616116
 30
0.0
 10
3.080634
 20
1.603499
 30
0.0
 10
3.018859
 20
1.616117
 30
0.0
 10
2.971716
 20
1.661893
 30
0.0
 10
2.966960
 20
1.702691
 30
0.0
 10
2.964471
 20
1.724043
 30
0.0
 11
2.964471
 21
1.724043
 31
0.0
 11
2.979110
 21
1.785158
 31
0.0
 11
3.019586
 21
1.825617
 31
0.0
 11
3.080734
 21
1.840251
 31
0.0
 11
3.141836
 21
1.825617
 31
0.0
 11
3.182267
 21
1.785158
 31
0.0
 11
3.196887
 21
1.724043
 31
0.0
 11
3.182267
 21
1.662933
 31
0.0
 11
3.141836
 21
1.622472
 31
0.0
 11
3.080734
 21
1.607834
 31
0.0
 11
3.019586
 21
1.622472
 31
0.0
 11
2.979110
 21
1.662933
 31
0.0
 11
2.964471
 21
1.724043
 31
0.0
  0
LINE
  5
1e4
100
AcDbEntity
  8
text
 62
1
100
AcDbLine
 10
3.034248
 20
1.402530
 30
0.0
 11
3.127179
 21
1.402530
 31
0.0
  0
LINE
  5
1e5
100
AcDbEntity
  8
text
 62
1
100
AcDbLine
 10
3.080734
 20
1.356044
 30
0.0
 11
3.080734
 21
1.449030
 31
0.0
  0
SPLINE
  5
1e6
100
AcDbEntity
  8
text
 62
1
100
AcDbSpline
 70
0
 71
3
 72
19
 73
15
 74
13
 40
0.000000
 40
0.000000
 40
0.000000
 40
0.000000
 40
0.062845
 40
0.120074
 40
0.182949
 40
0.245779
 40
0.302976
 40
0.365816
 40
0.428650
 40
0.485850
 40
0.548681
 40
0.611557
 40
0.668788
 40
0.731627
 40
0.731627
 40
0.731627
 40
0.731627
 10
2.964471
 20
1.402530
 30
0.0
 10
2.966959
 20
1.423884
 30
0.0
 10
2.971714
 20
1.464684
 30
0.0
 10
3.018859
 20
1.510460
 30
0.0
 10
3.080634
 20
1.523072
 30
0.0
 10
3.142890
 20
1.510460
 30
0.0
 10
3.188615
 20
1.464669
 30
0.0
 10
3.201218
 20
1.402532
 30
0.0
 10
3.188612
 20
1.340395
 30
0.0
 10
3.142891
 20
1.294603
 30
0.0
 10
3.080634
 20
1.281986
 30
0.0
 10
3.018859
 20
1.294604
 30
0.0
 10
2.971716
 20
1.340380
 30
0.0
 10
2.966960
 20
1.381178
 30
0.0
 10
2.964471
 20
1.402530
 30
0.0
 11
2.964471
 21
1.402530
 31
0.0
 11
2.979110
 21
1.463646
 31
0.0
 11
3.019586
 21
1.504104
 31
0.0
 11
3.080734
 21
1.518738
 31
0.0
 11
3.141836
 21
1.504104
 31
0.0
 11
3.182267
 21
1.463646
 31
0.0
 11
3.196887
 21
1.402530
 31
0.0
 11
3.182267
 21
1.341420
 31
0.0
 11
3.141836
 21
1.300959
 31
0.0
 11
3.080734
 21
1.286321
 31
0.0
 11
3.019586
 21
1.300959
 31
0.0
 11
2.979110
 21
1.341420
 31
0.0
 11
2.964471
 21
1.402530
 31
0.0
  0
LINE
  5
1e7
100
AcDbEntity
  8
text
 62
1
100
AcDbLine
 10
2.492833
 20
4.172914
 30
0.0
 11
2.585763
 21
4.172914
 31
0.0
  0
LINE
  5
1e8
100
AcDbEntity
  8
text
 62
1
100
AcDbLine
 10
2.539319
 20
4.126428
 30
0.0
 11
2.539319
 21
4.219414
 31
0.0
  0
SPLINE
  5
1e9
100
AcDbEntity
  8
text
 62
1
100
AcDbSpline
 70
0
 71
3
 72
19
 73
15
 74
13
 40
0.000000
 40
0.000000
 40
0.000000
 40
0.000000
 40
0.062845
 40
0.120074
 40
0.182949
 40
0.245779
 40
0.302976
 40
0.365816
 40
0.428650
 40
0.485850
 40
0.548681
 40
0.611557
 40
0.668788
 40
0.731627
 40
0.731627
 40
0.731627
 40
0.731627
 10
2.423055
 20
4.172914
 30
0.0
 10
2.425543
 20
4.194268
 30
0.0
 10
2.430298
 20
4.235068
 30
0.0
 10
2.477444
 20
4.280844
 30
0.0
 10
2.539219
 20
4.293456
 30
0.0
 10
2.601474
 20
4.280844
 30
0.0
 10
2.647199
 20
4.235053
 30
0.0
 10
2.659803
 20
4.172916
 30
0.0
 10
2.647197
 20
4.110780
 30
0.0
 10
2.601475
 20
4.064988
 30
0.0
 10
2.539219
 20
4.052370
 30
0.0
 10
2.477443
 20
4.064988
 30
0.0
 10
2.430300
 20
4.110764
 30
0.0
 10
2.425544
 20
4.151562
 30
0.0
 10
2.423055
 20
4.172914
 30
0.0
 11
2.423055
 21
4.172914
 31
0.0
 11
2.437694
 21
4.234030
 31
0.0
 11
2.478170
 21
4.274488
 31
0.0
 11
2.539319
 21
4.289122
 31
0.0
 11
2.600420
 21
4.274488
 31
0.0
 11
2.640852
 21
4.234030
 31
0.0
 11
2.655471
 21
4.172914
 31
0.0
 11
2.640852
 21
4.111804
 31
0.0
 11
2.600420
 21
4.071343
 31
0.0
 11
2.539319
 21
4.056706
 31
0.0
 11
2.478170
 21
4.071343
 31
0.0
 11
2.437694
 21
4.111804
 31
0.0
 11
2.423055
 21
4.172914
 31
0.0
  0
LINE
  5
1ea
100
AcDbEntity
  8
text
 62
1
100
AcDbLine
 10
2.492833
 20
2.861803
 30
0.0
 11
2.585763
 21
2.861803
 31
0.0
  0
LINE
  5
1eb
100
AcDbEntity
  8
text
 62
1
100
AcDbLine
 10
2.539319
 20
2.815317
 30
0.0
 11
2.539319
 21
2.908303
 31
0.0
  0
SPLINE
  5
1ec
100
AcDbEntity
  8
text
 62
1
100
AcDbSpline
 70
0
 71
3
 72
19
 73
15
 74
13
 40
0.000000
 40
0.000000
 40
0.000000
 40
0.000000
 40
0.062845
 40
0.120074
 40
0.182949
 40
0.245779
 40
0.302976
 40
0.365816
 40
0.428650
 40
0.485850
 40
0.548681
 40
0.611557
 40
0.668788
 40
0.731627
 40
0.731627
 40
0.731627
 40
0.731627
 10
2.423055
 20
2.861803
 30
0.0
 10
2.425543
 20
2.883157
 30
0.0
 10
2.430298
 20
2.923957
 30
0.0
 10
2.477444
 20
2.969733
 30
0.0
 10
2.539219
 20
2.982345
 30
0.0
 10
2.601474
 20
2.969733
 30
0.0
 10
2.647199
 20
2.923942
 30
0.0
 10
2.659803
 20
2.861805
 30
0.0
 10
2.647197
 20
2.799668
 30
0.0
 10
2.601475
 20
2.753877
 30
0.0
 10
2.539219
 20
2.741259
 30
0.0
 10
2.477443
 20
2.753877
 30
0.0
 10
2.430300
 20
2.799653
 30
0.0
 10
2.425544
 20
2.840451
 30
0.0
 10
2.423055
 20
2.861803
 30
0.0
 11
2.423055
 21
2.861803
 31
0.0
 11
2.437694
 21
2.922919
 31
0.0
 11
2.478170
 21
2.963377
 31
0.0
 11
2.539319
 21
2.978011
 31
0.0
 11
2.600420
 21
2.963377
 31
0.0
 11
2.640852
 21
2.922919
 31
0.0
 11
2.655471
 21
2.861803
 31
0.0
 11
2.640852
 21
2.800693
 31
0.0
 11
2.600420
 21
2.760232
 31
0.0
 11
2.539319
 21
2.745595
 31
0.0
 11
2.478170
 21
2.760232
 31
0.0
 11
2.437694
 21
2.800693
 31
0.0
 11
2.423055
 21
2.861803
 31
0.0
  0
LINE
  5
1ed
100
AcDbEntity
  8
text
 62
1
100
AcDbLine
 10
2.492833
 20
0.995136
 30
0.0
 11
2.585763
 21
0.995136
 31
0.0
  0
LINE
  5
1ee
100
AcDbEntity
  8
text
 62
1
100
AcDbLine
 10
2.539319
 20
0.948650
 30
0.0
 11
2.539319
 21
1.041636
 31
0.0
  0
SPLINE
  5
1ef
100
AcDbEntity
  8
text
 62
1
100
AcDbSpline
 70
0
 71
3
 72
19
 73
15
 74
13
 40
0.000000
 40
0.000000
 40
0.000000
 40
0.000000
 40
0.062845
 40
0.120074
 40
0.182949
 40
0.245779
 40
0.302976
 40
0.365816
 40
0.428650
 40
0.485850
 40
0.548681
 40
0.611557
 40
0.668788
 40
0.731627
 40
0.731627
 40
0.731627
 40
0.731627
 10
2.423055
 20
0.995136
 30
0.0
 10
2.425543
 20
1.016490
 30
0.0
 10
2.430298
 20
1.057290
 30
0.0
 10
2.477444
 20
1.103066
 30
0.0
 10
2.539219
 20
1.115678
 30
0.0
 10
2.601474
 20
1.103066
 30
0.0
 10
2.647199
 20
1.057275
 30
0.0
 10
2.659803
 20
0.995138
 30
0.0
 10
2.647197
 20
0.933002
 30
0.0
 10
2.601475
 20
0.887210
 30
0.0
 10
2.539219
 20
0.874592
 30
0.0
 10
2.477443
 20
0.887210
 30
0.0
 10
2.430300
 20
0.932986
 30
0.0
 10
2.425544
 20
0.973785
 30
0.0
 10
2.423055
 20
0.995136
 30
0.0
 11
2.423055
 21
0.995136
 31
0.0
 11
2.437694
 21
1.056252
 31
0.0
 11
2.478170
 21
1.096710
 31
0.0
 11
2.539319
 21
1.111345
 31
0.0
 11
2.600420
 21
1.096710
 31
0.0
 11
2.640852
 21
1.056252
 31
0.0
 11
2.655471
 21
0.995136
 31
0.0
 11
2.640852
 21
0.934027
 31
0.0
 11
2.600420
 21
0.893565
 31
0.0
 11
2.539319
 21
0.878928
 31
0.0
 11
2.478170
 21
0.893565
 31
0.0
 11
2.437694
 21
0.934027
 31
0.0
 11
2.423055
 21
0.995136
 31
0.0
  0
LINE
  5
1f0
100
AcDbEntity
  8
text
 62
1
100
AcDbLine
 10
2.492833
 20
1.950692
 30
0.0
 11
2.585763
 21
1.950692
 31
0.0
  0
LINE
  5
1f1
100
AcDbEntity
  8
text
 62
1
100
AcDbLine
 10
2.539319
 20
1.904206
 30
0.0
 11
2.539319
 21
1.997192
 31
0.0
  0
LINE
  5
1f2
100
AcDbEntity
  8
text
 62
1
100
AcDbLine
 10
4.863405
 20
0.294622
 30
0.0
 11
4.239071
 21
0.294622
 31
0.0
  0
LINE
  5
1f3
100
AcDbEntity
  8
text
 62
1
100
AcDbLine
 10
4.239071
 20
0.294622
 30
0.0
 11
4.239071
 21
5.349854
 31
0.0
  0
LINE
  5
1f4
100
AcDbEntity
  8
text
 62
1
100
AcDbLine
 10
4.239071
 20
5.349854
 30
0.0
 11
5.967922
 21
5.349854
 31
0.0
  0
LINE
  5
1f5
100
AcDbEntity
  8
text
 62
1
100
AcDbLine
 10
5.967922
 20
5.349854
 30
0.0
 11
5.967922
 21
0.294622
 31
0.0
  0
LINE
  5
1f6
100
AcDbEntity
  8
text
 62
1
100
AcDbLine
 10
5.967922
 20
0.294622
 30
0.0
 11
4.239071
 21
0.294622
 31
0.0
  0
SPLINE
  5
1f7
100
AcDbEntity
  8
text
 62
1
100
AcDbSpline
 70
0
 71
3
 72
19
 73
15
 74
13
 40
0.000000
 40
0.000000
 40
0.000000
 40
0.000000
 40
0.062845
 40
0.120074
 40
0.182949
 40
0.245779
 40
0.302976
 40
0.365816
 40
0.428650
 40
0.485850
 40
0.548681
 40
0.611557
 40
0.668788
 40
0.731627
 40
0.731627
 40
0.731627
 40
0.731627
 10
2.423055
 20
1.950692
 30
0.0
 10
2.425543
 20
1.972046
 30
0.0
 10
2.430298
 20
2.012846
 30
0.0
 10
2.477444
 20
2.058622
 30
0.0
 10
2.539219
 20
2.071234
 30
0.0
 10
2.601474
 20
2.058622
 30
0.0
 10
2.647199
 20
2.012831
 30
0.0
 10
2.659803
 20
1.950694
 30
0.0
 10
2.647197
 20
1.888557
 30
0.0
 10
2.601475
 20
1.842765
 30
0.0
 10
2.539219
 20
1.830148
 30
0.0
 10
2.477443
 20
1.842766
 30
0.0
 10
2.430300
 20
1.888542
 30
0.0
 10
2.425544
 20
1.929340
 30
0.0
 10
2.423055
 20
1.950692
 30
0.0
 11
2.423055
 21
1.950692
 31
0.0
 11
2.437694
 21
2.011808
 31
0.0
 11
2.478170
 21
2.052266
 31
0.0
 11
2.539319
 21
2.066900
 31
0.0
 11
2.600420
 21
2.052266
 31
0.0
 11
2.640852
 21
2.011808
 31
0.0
 11
2.655471
 21
1.950692
 31
0.0
 11
2.640852
 21
1.889582
 31
0.0
 11
2.600420
 21
1.849121
 31
0.0
 11
2.539319
 21
1.834483
 31
0.0
 11
2.478170
 21
1.849121
 31
0.0
 11
2.437694
 21
1.889582
 31
0.0
 11
2.423055
 21
1.950692
 31
0.0
  0
LINE
  5
1f8
100
AcDbEntity
  8
text
 62
1
100
AcDbLine
 10
5.793058
 20
5.225265
 30
0.0
 11
5.793058
 21
5.225265
 31
0.0
  0
SPLINE
  5
1f9
100
AcDbEntity
  8
text
 62
1
100
AcDbSpline
 70
0
 71
3
 72
19
 73
15
 74
13
 40
0.000000
 40
0.000000
 40
0.000000
 40
0.000000
 40
0.004968
 40
0.010009
 40
0.015421
 40
0.020828
 40
0.025852
 40
0.030816
 40
0.035784
 40
0.040812
 40
0.046220
 40
0.051633
 40
0.056679
 40
0.061650
 40
0.061650
 40
0.061650
 40
0.061650
 10
5.793058
 20
5.225265
 30
0.0
 10
5.792759
 20
5.223590
 30
0.0
 10
5.792156
 20
5.220215
 30
0.0
 10
5.787943
 20
5.216674
 30
0.0
 10
5.782655
 20
5.215401
 30
0.0
 10
5.777302
 20
5.216669
 30
0.0
 10
5.773292
 20
5.220222
 30
0.0
 10
5.771756
 20
5.225266
 30
0.0
 10
5.773293
 20
5.230311
 30
0.0
 10
5.777300
 20
5.233871
 30
0.0
 10
5.782655
 20
5.235145
 30
0.0
 10
5.787945
 20
5.233866
 30
0.0
 10
5.792155
 20
5.230318
 30
0.0
 10
5.792759
 20
5.226941
 30
0.0
 10
5.793058
 20
5.225265
 30
0.0
 11
5.793058
 21
5.225265
 31
0.0
 11
5.791635
 21
5.220505
 31
0.0
 11
5.787898
 21
5.217122
 31
0.0
 11
5.782641
 21
5.215834
 31
0.0
 11
5.777390
 21
5.217122
 31
0.0
 11
5.773675
 21
5.220505
 31
0.0
 11
5.772266
 21
5.225265
 31
0.0
 11
5.773675
 21
5.230028
 31
0.0
 11
5.777390
 21
5.233418
 31
0.0
 11
5.782641
 21
5.234709
 31
0.0
 11
5.787898
 21
5.233418
 31
0.0
 11
5.791635
 21
5.230028
 31
0.0
 11
5.793058
 21
5.225265
 31
0.0
  0
LINE
  5
1fa
100
AcDbEntity
  8
text
 62
1
100
AcDbLine
 10
4.526830
 20
0.413885
 30
0.0
 11
4.526830
 21
0.413885
 31
0.0
  0
SPLINE
  5
1fb
100
AcDbEntity
  8
text
 62
1
100
AcDbSpline
 70
0
 71
3
 72
19
 73
15
 74
13
 40
0.000000
 40
0.000000
 40
0.000000
 40
0.000000
 40
0.003531
 40
0.007403
 40
0.011798
 40
0.016178
 40
0.020063
 40
0.023598
 40
0.027124
 40
0.031006
 40
0.035387
 40
0.039781
 40
0.043651
 40
0.047173
 40
0.047173
 40
0.047173
 40
0.047173
 10
4.526830
 20
0.413885
 30
0.0
 10
4.526568
 20
0.412698
 30
0.0
 10
4.526017
 20
0.410211
 30
0.0
 10
4.522526
 20
0.407817
 30
0.0
 10
4.518333
 20
0.406962
 30
0.0
 10
4.514069
 20
0.407824
 30
0.0
 10
4.510754
 20
0.410207
 30
0.0
 10
4.509328
 20
0.413882
 30
0.0
 10
4.510756
 20
0.417554
 30
0.0
 10
4.514070
 20
0.419931
 30
0.0
 10
4.518333
 20
0.420794
 30
0.0
 10
4.522525
 20
0.419938
 30
0.0
 10
4.526015
 20
0.417550
 30
0.0
 10
4.526567
 20
0.415068
 30
0.0
 10
4.526830
 20
0.413885
 30
0.0
 11
4.526830
 21
0.413885
 31
0.0
 11
4.525669
 21
0.410550
 31
0.0
 11
4.522616
 21
0.408169
 31
0.0
 11
4.518316
 21
0.407260
 31
0.0
 11
4.514031
 21
0.408169
 31
0.0
 11
4.510963
 21
0.410550
 31
0.0
 11
4.509789
 21
0.413885
 31
0.0
 11
4.510963
 21
0.417210
 31
0.0
 11
4.514031
 21
0.419587
 31
0.0
 11
4.518316
 21
0.420496
 31
0.0
 11
4.522616
 21
0.419587
 31
0.0
 11
4.525669
 21
0.417210
 31
0.0
 11
4.526830
 21
0.413885
 31
0.0
  0
LINE
  5
1fc
100
AcDbEntity
  8
text
 62
1
100
AcDbLine
 10
5.500915
 20
4.331841
 30
0.0
 11
5.593846
 21
4.331841
 31
0.0
  0
LINE
  5
1fd
100
AcDbEntity
  8
text
 62
1
100
AcDbLine
 10
5.547401
 20
4.285355
 30
0.0
 11
5.547401
 21
4.378341
 31
0.0
  0
SPLINE
  5
1fe
100
AcDbEntity
  8
text
 62
1
100
AcDbSpline
 70
0
 71
3
 72
19
 73
15
 74
13
 40
0.000000
 40
0.000000
 40
0.000000
 40
0.000000
 40
0.062845
 40
0.120074
 40
0.182949
 40
0.245779
 40
0.302976
 40
0.365816
 40
0.428650
 40
0.485850
 40
0.548681
 40
0.611557
 40
0.668788
 40
0.731627
 40
0.731627
 40
0.731627
 40
0.731627
 10
5.431137
 20
4.331841
 30
0.0
 10
5.433626
 20
4.353195
 30
0.0
 10
5.438381
 20
4.393995
 30
0.0
 10
5.485526
 20
4.439771
 30
0.0
 10
5.547301
 20
4.452383
 30
0.0
 10
5.609556
 20
4.439771
 30
0.0
 10
5.655281
 20
4.393980
 30
0.0
 10
5.667885
 20
4.331843
 30
0.0
 10
5.655279
 20
4.269706
 30
0.0
 10
5.609557
 20
4.223915
 30
0.0
 10
5.547301
 20
4.211297
 30
0.0
 10
5.485525
 20
4.223915
 30
0.0
 10
5.438383
 20
4.269691
 30
0.0
 10
5.433626
 20
4.310489
 30
0.0
 10
5.431137
 20
4.331841
 30
0.0
 11
5.431137
 21
4.331841
 31
0.0
 11
5.445777
 21
4.392957
 31
0.0
 11
5.486252
 21
4.433415
 31
0.0
 11
5.547401
 21
4.448049
 31
0.0
 11
5.608502
 21
4.433415
 31
0.0
 11
5.648934
 21
4.392957
 31
0.0
 11
5.663554
 21
4.331841
 31
0.0
 11
5.648934
 21
4.270731
 31
0.0
 11
5.608502
 21
4.230270
 31
0.0
 11
5.547401
 21
4.215633
 31
0.0
 11
5.486252
 21
4.230270
 31
0.0
 11
5.445777
 21
4.270731
 31
0.0
 11
5.431137
 21
4.331841
 31
0.0
  0
LINE
  5
1ff
100
AcDbEntity
  8
text
 62
1
100
AcDbLine
 10
5.515055
 20
4.706247
 30
0.0
 11
5.607985
 21
4.706247
 31
0.0
  0
LINE
  5
200
100
AcDbEntity
  8
text
 62
1
100
AcDbLine
 10
5.561541
 20
4.659761
 30
0.0
 11
5.561541
 21
4.752747
 31
0.0
  0
SPLINE
  5
201
100
AcDbEntity
  8
text
 62
1
100
AcDbSpline
 70
0
 71
3
 72
19
 73
15
 74
13
 40
0.000000
 40
0.000000
 40
0.000000
 40
0.000000
 40
0.062845
 40
0.120074
 40
0.182949
 40
0.245779
 40
0.302976
 40
0.365816
 40
0.428650
 40
0.485850
 40
0.548681
 40
0.611557
 40
0.668788
 40
0.731627
 40
0.731627
 40
0.731627
 40
0.731627
 10
5.445277
 20
4.706247
 30
0.0
 10
5.447766
 20
4.727601
 30
0.0
 10
5.452520
 20
4.768402
 30
0.0
 10
5.499666
 20
4.814177
 30
0.0
 10
5.561441
 20
4.826789
 30
0.0
 10
5.623696
 20
4.814178
 30
0.0
 10
5.669421
 20
4.768386
 30
0.0
 10
5.682025
 20
4.706249
 30
0.0
 10
5.669419
 20
4.644113
 30
0.0
 10
5.623697
 20
4.598321
 30
0.0
 10
5.561441
 20
4.585704
 30
0.0
 10
5.499665
 20
4.598321
 30
0.0
 10
5.452523
 20
4.644097
 30
0.0
 10
5.447766
 20
4.684896
 30
0.0
 10
5.445277
 20
4.706247
 30
0.0
 11
5.445277
 21
4.706247
 31
0.0
 11
5.459916
 21
4.767363
 31
0.0
 11
5.500392
 21
4.807821
 31
0.0
 11
5.561541
 21
4.822456
 31
0.0
 11
5.622642
 21
4.807821
 31
0.0
 11
5.663074
 21
4.767363
 31
0.0
 11
5.677694
 21
4.706247
 31
0.0
 11
5.663074
 21
4.645138
 31
0.0
 11
5.622642
 21
4.604676
 31
0.0
 11
5.561541
 21
4.590039
 31
0.0
 11
5.500392
 21
4.604676
 31
0.0
 11
5.459916
 21
4.645138
 31
0.0
 11
5.445277
 21
4.706247
 31
0.0
  0
LINE
  5
202
100
AcDbEntity
  8
text
 62
1
100
AcDbLine
 10
5.500915
 20
4.002530
 30
0.0
 11
5.593846
 21
4.002530
 31
0.0
  0
LINE
  5
203
100
AcDbEntity
  8
text
 62
1
100
AcDbLine
 10
5.547401
 20
3.956044
 30
0.0
 11
5.547401
 21
4.049030
 31
0.0
  0
SPLINE
  5
204
100
AcDbEntity
  8
text
 62
1
100
AcDbSpline
 70
0
 71
3
 72
19
 73
15
 74
13
 40
0.000000
 40
0.000000
 40
0.000000
 40
0.000000
 40
0.062845
 40
0.120074
 40
0.182949
 40
0.245779
 40
0.302976
 40
0.365816
 40
0.428650
 40
0.485850
 40
0.548681
 40
0.611557
 40
0.668788
 40
0.731627
 40
0.731627
 40
0.731627
 40
0.731627
 10
5.431137
 20
4.002530
 30
0.0
 10
5.433626
 20
4.023884
 30
0.0
 10
5.438381
 20
4.064684
 30
0.0
 10
5.485526
 20
4.110460
 30
0.0
 10
5.547301
 20
4.123072
 30
0.0
 10
5.609556
 20
4.110460
 30
0.0
 10
5.655281
 20
4.064669
 30
0.0
 10
5.667885
 20
4.002532
 30
0.0
 10
5.655279
 20
3.940395
 30
0.0
 10
5.609557
 20
3.894603
 30
0.0
 10
5.547301
 20
3.881986
 30
0.0
 10
5.485525
 20
3.894604
 30
0.0
 10
5.438383
 20
3.940380
 30
0.0
 10
5.433626
 20
3.981178
 30
0.0
 10
5.431137
 20
4.002530
 30
0.0
 11
5.431137
 21
4.002530
 31
0.0
 11
5.445777
 21
4.063646
 31
0.0
 11
5.486252
 21
4.104104
 31
0.0
 11
5.547401
 21
4.118738
 31
0.0
 11
5.608502
 21
4.104104
 31
0.0
 11
5.648934
 21
4.063646
 31
0.0
 11
5.663554
 21
4.002530
 31
0.0
 11
5.648934
 21
3.941420
 31
0.0
 11
5.608502
 21
3.900959
 31
0.0
 11
5.547401
 21
3.886321
 31
0.0
 11
5.486252
 21
3.900959
 31
0.0
 11
5.445777
 21
3.941420
 31
0.0
 11
5.431137
 21
4.002530
 31
0.0
  0
LINE
  5
205
100
AcDbEntity
  8
text
 62
1
100
AcDbLine
 10
5.515055
 20
0.999318
 30
0.0
 11
5.607985
 21
0.999318
 31
0.0
  0
LINE
  5
206
100
AcDbEntity
  8
text
 62
1
100
AcDbLine
 10
5.561541
 20
0.952832
 30
0.0
 11
5.561541
 21
1.045818
 31
0.0
  0
SPLINE
  5
207
100
AcDbEntity
  8
text
 62
1
100
AcDbSpline
 70
0
 71
3
 72
19
 73
15
 74
13
 40
0.000000
 40
0.000000
 40
0.000000
 40
0.000000
 40
0.062845
 40
0.120074
 40
0.182949
 40
0.245779
 40
0.302976
 40
0.365816
 40
0.428650
 40
0.485850
 40
0.548681
 40
0.611557
 40
0.668788
 40
0.731627
 40
0.731627
 40
0.731627
 40
0.731627
 10
5.445277
 20
0.999318
 30
0.0
 10
5.447766
 20
1.020672
 30
0.0
 10
5.452520
 20
1.061473
 30
0.0
 10
5.499666
 20
1.107248
 30
0.0
 10
5.561441
 20
1.119860
 30
0.0
 10
5.623696
 20
1.107249
 30
0.0
 10
5.669421
 20
1.061457
 30
0.0
 10
5.682025
 20
0.999320
 30
0.0
 10
5.669419
 20
0.937184
 30
0.0
 10
5.623697
 20
0.891392
 30
0.0
 10
5.561441
 20
0.878775
 30
0.0
 10
5.499665
 20
0.891392
 30
0.0
 10
5.452523
 20
0.937168
 30
0.0
 10
5.447766
 20
0.977967
 30
0.0
 10
5.445277
 20
0.999318
 30
0.0
 11
5.445277
 21
0.999318
 31
0.0
 11
5.459916
 21
1.060434
 31
0.0
 11
5.500392
 21
1.100892
 31
0.0
 11
5.561541
 21
1.115527
 31
0.0
 11
5.622642
 21
1.100892
 31
0.0
 11
5.663074
 21
1.060434
 31
0.0
 11
5.677694
 21
0.999318
 31
0.0
 11
5.663074
 21
0.938209
 31
0.0
 11
5.622642
 21
0.897747
 31
0.0
 11
5.561541
 21
0.883110
 31
0.0
 11
5.500392
 21
0.897747
 31
0.0
 11
5.459916
 21
0.938209
 31
0.0
 11
5.445277
 21
0.999318
 31
0.0
  0
LINE
  5
208
100
AcDbEntity
  8
text
 62
1
100
AcDbLine
 10
5.500915
 20
3.676484
 30
0.0
 11
5.593846
 21
3.676484
 31
0.0
  0
LINE
  5
209
100
AcDbEntity
  8
text
 62
1
100
AcDbLine
 10
5.547401
 20
3.629998
 30
0.0
 11
5.547401
 21
3.722984
 31
0.0
  0
SPLINE
  5
20a
100
AcDbEntity
  8
text
 62
1
100
AcDbSpline
 70
0
 71
3
 72
19
 73
15
 74
13
 40
0.000000
 40
0.000000
 40
0.000000
 40
0.000000
 40
0.062845
 40
0.120074
 40
0.182949
 40
0.245779
 40
0.302976
 40
0.365816
 40
0.428650
 40
0.485850
 40
0.548681
 40
0.611557
 40
0.668788
 40
0.731627
 40
0.731627
 40
0.731627
 40
0.731627
 10
5.431137
 20
3.676484
 30
0.0
 10
5.433626
 20
3.697838
 30
0.0
 10
5.438381
 20
3.738638
 30
0.0
 10
5.485526
 20
3.784414
 30
0.0
 10
5.547301
 20
3.797026
 30
0.0
 10
5.609556
 20
3.784414
 30
0.0
 10
5.655281
 20
3.738623
 30
0.0
 10
5.667885
 20
3.676485
 30
0.0
 10
5.655279
 20
3.614349
 30
0.0
 10
5.609557
 20
3.568557
 30
0.0
 10
5.547301
 20
3.555940
 30
0.0
 10
5.485525
 20
3.568558
 30
0.0
 10
5.438383
 20
3.614334
 30
0.0
 10
5.433626
 20
3.655132
 30
0.0
 10
5.431137
 20
3.676484
 30
0.0
 11
5.431137
 21
3.676484
 31
0.0
 11
5.445777
 21
3.737599
 31
0.0
 11
5.486252
 21
3.778058
 31
0.0
 11
5.547401
 21
3.792692
 31
0.0
 11
5.608502
 21
3.778058
 31
0.0
 11
5.648934
 21
3.737599
 31
0.0
 11
5.663554
 21
3.676484
 31
0.0
 11
5.648934
 21
3.615374
 31
0.0
 11
5.608502
 21
3.574913
 31
0.0
 11
5.547401
 21
3.560275
 31
0.0
 11
5.486252
 21
3.574913
 31
0.0
 11
5.445777
 21
3.615374
 31
0.0
 11
5.431137
 21
3.676484
 31
0.0
  0
LINE
  5
20b
100
AcDbEntity
  8
text
 62
1
100
AcDbLine
 10
5.500915
 20
3.349712
 30
0.0
 11
5.593846
 21
3.349712
 31
0.0
  0
LINE
  5
20c
100
AcDbEntity
  8
text
 62
1
100
AcDbLine
 10
5.547401
 20
3.303226
 30
0.0
 11
5.547401
 21
3.396212
 31
0.0
  0
SPLINE
  5
20d
100
AcDbEntity
  8
text
 62
1
100
AcDbSpline
 70
0
 71
3
 72
19
 73
15
 74
13
 40
0.000000
 40
0.000000
 40
0.000000
 40
0.000000
 40
0.062845
 40
0.120074
 40
0.182949
 40
0.245779
 40
0.302976
 40
0.365816
 40
0.428650
 40
0.485850
 40
0.548681
 40
0.611557
 40
0.668788
 40
0.731627
 40
0.731627
 40
0.731627
 40
0.731627
 10
5.431137
 20
3.349712
 30
0.0
 10
5.433626
 20
3.371066
 30
0.0
 10
5.438381
 20
3.411866
 30
0.0
 10
5.485526
 20
3.457642
 30
0.0
 10
5.547301
 20
3.470254
 30
0.0
 10
5.609556
 20
3.457642
 30
0.0
 10
5.655281
 20
3.411851
 30
0.0
 10
5.667885
 20
3.349714
 30
0.0
 10
5.655279
 20
3.287578
 30
0.0
 10
5.609557
 20
3.241786
 30
0.0
 10
5.547301
 20
3.229168
 30
0.0
 10
5.485525
 20
3.241786
 30
0.0
 10
5.438383
 20
3.287562
 30
0.0
 10
5.433626
 20
3.328360
 30
0.0
 10
5.431137
 20
3.349712
 30
0.0
 11
5.431137
 21
3.349712
 31
0.0
 11
5.445777
 21
3.410828
 31
0.0
 11
5.486252
 21
3.451286
 31
0.0
 11
5.547401
 21
3.465920
 31
0.0
 11
5.608502
 21
3.451286
 31
0.0
 11
5.648934
 21
3.410828
 31
0.0
 11
5.663554
 21
3.349712
 31
0.0
 11
5.648934
 21
3.288602
 31
0.0
 11
5.608502
 21
3.248141
 31
0.0
 11
5.547401
 21
3.233504
 31
0.0
 11
5.486252
 21
3.248141
 31
0.0
 11
5.445777
 21
3.288602
 31
0.0
 11
5.431137
 21
3.349712
 31
0.0
  0
LINE
  5
20e
100
AcDbEntity
  8
text
 62
1
100
AcDbLine
 10
5.500915
 20
3.030027
 30
0.0
 11
5.593846
 21
3.030027
 31
0.0
  0
LINE
  5
20f
100
AcDbEntity
  8
text
 62
1
100
AcDbLine
 10
5.547401
 20
2.983541
 30
0.0
 11
5.547401
 21
3.076527
 31
0.0
  0
SPLINE
  5
210
100
AcDbEntity
  8
text
 62
1
100
AcDbSpline
 70
0
 71
3
 72
19
 73
15
 74
13
 40
0.000000
 40
0.000000
 40
0.000000
 40
0.000000
 40
0.062845
 40
0.120074
 40
0.182949
 40
0.245779
 40
0.302976
 40
0.365816
 40
0.428650
 40
0.485850
 40
0.548681
 40
0.611557
 40
0.668788
 40
0.731627
 40
0.731627
 40
0.731627
 40
0.731627
 10
5.431137
 20
3.030027
 30
0.0
 10
5.433626
 20
3.051381
 30
0.0
 10
5.438381
 20
3.092181
 30
0.0
 10
5.485526
 20
3.137957
 30
0.0
 10
5.547301
 20
3.150569
 30
0.0
 10
5.609556
 20
3.137957
 30
0.0
 10
5.655281
 20
3.092166
 30
0.0
 10
5.667885
 20
3.030029
 30
0.0
 10
5.655279
 20
2.967892
 30
0.0
 10
5.609557
 20
2.922101
 30
0.0
 10
5.547301
 20
2.909483
 30
0.0
 10
5.485525
 20
2.922101
 30
0.0
 10
5.438383
 20
2.967877
 30
0.0
 10
5.433626
 20
3.008675
 30
0.0
 10
5.431137
 20
3.030027
 30
0.0
 11
5.431137
 21
3.030027
 31
0.0
 11
5.445777
 21
3.091143
 31
0.0
 11
5.486252
 21
3.131601
 31
0.0
 11
5.547401
 21
3.146235
 31
0.0
 11
5.608502
 21
3.131601
 31
0.0
 11
5.648934
 21
3.091143
 31
0.0
 11
5.663554
 21
3.030027
 31
0.0
 11
5.648934
 21
2.968917
 31
0.0
 11
5.608502
 21
2.928456
 31
0.0
 11
5.547401
 21
2.913819
 31
0.0
 11
5.486252
 21
2.928456
 31
0.0
 11
5.445777
 21
2.968917
 31
0.0
 11
5.431137
 21
3.030027
 31
0.0
  0
LINE
  5
211
100
AcDbEntity
  8
text
 62
1
100
AcDbLine
 10
5.500915
 20
2.702862
 30
0.0
 11
5.593846
 21
2.702862
 31
0.0
  0
LINE
  5
212
100
AcDbEntity
  8
text
 62
1
100
AcDbLine
 10
5.547401
 20
2.656375
 30
0.0
 11
5.547401
 21
2.749362
 31
0.0
  0
SPLINE
  5
213
100
AcDbEntity
  8
text
 62
1
100
AcDbSpline
 70
0
 71
3
 72
19
 73
15
 74
13
 40
0.000000
 40
0.000000
 40
0.000000
 40
0.000000
 40
0.062845
 40
0.120074
 40
0.182949
 40
0.245779
 40
0.302976
 40
0.365816
 40
0.428650
 40
0.485850
 40
0.548681
 40
0.611557
 40
0.668788
 40
0.731627
 40
0.731627
 40
0.731627
 40
0.731627
 10
5.431137
 20
2.702862
 30
0.0
 10
5.433626
 20
2.724216
 30
0.0
 10
5.438381
 20
2.765016
 30
0.0
 10
5.485526
 20
2.810791
 30
0.0
 10
5.547301
 20
2.823403
 30
0.0
 10
5.609556
 20
2.810792
 30
0.0
 10
5.655281
 20
2.765000
 30
0.0
 10
5.667885
 20
2.702863
 30
0.0
 10
5.655279
 20
2.640727
 30
0.0
 10
5.609557
 20
2.594935
 30
0.0
 10
5.547301
 20
2.582318
 30
0.0
 10
5.485525
 20
2.594936
 30
0.0
 10
5.438383
 20
2.640712
 30
0.0
 10
5.433626
 20
2.681510
 30
0.0
 10
5.431137
 20
2.702862
 30
0.0
 11
5.431137
 21
2.702862
 31
0.0
 11
5.445777
 21
2.763977
 31
0.0
 11
5.486252
 21
2.804436
 31
0.0
 11
5.547401
 21
2.819070
 31
0.0
 11
5.608502
 21
2.804436
 31
0.0
 11
5.648934
 21
2.763977
 31
0.0
 11
5.663554
 21
2.702862
 31
0.0
 11
5.648934
 21
2.641752
 31
0.0
 11
5.608502
 21
2.601291
 31
0.0
 11
5.547401
 21
2.586653
 31
0.0
 11
5.486252
 21
2.601291
 31
0.0
 11
5.445777
 21
2.641752
 31
0.0
 11
5.431137
 21
2.702862
 31
0.0
  0
LINE
  5
214
100
AcDbEntity
  8
text
 62
1
100
AcDbLine
 10
5.500915
 20
2.379121
 30
0.0
 11
5.593846
 21
2.379121
 31
0.0
  0
LINE
  5
215
100
AcDbEntity
  8
text
 62
1
100
AcDbLine
 10
5.547401
 20
2.332635
 30
0.0
 11
5.547401
 21
2.425621
 31
0.0
  0
SPLINE
  5
216
100
AcDbEntity
  8
text
 62
1
100
AcDbSpline
 70
0
 71
3
 72
19
 73
15
 74
13
 40
0.000000
 40
0.000000
 40
0.000000
 40
0.000000
 40
0.062845
 40
0.120074
 40
0.182949
 40
0.245779
 40
0.302976
 40
0.365816
 40
0.428650
 40
0.485850
 40
0.548681
 40
0.611557
 40
0.668788
 40
0.731627
 40
0.731627
 40
0.731627
 40
0.731627
 10
5.431137
 20
2.379121
 30
0.0
 10
5.433626
 20
2.400476
 30
0.0
 10
5.438381
 20
2.441276
 30
0.0
 10
5.485526
 20
2.487051
 30
0.0
 10
5.547301
 20
2.499663
 30
0.0
 10
5.609556
 20
2.487052
 30
0.0
 10
5.655281
 20
2.441260
 30
0.0
 10
5.667885
 20
2.379123
 30
0.0
 10
5.655279
 20
2.316987
 30
0.0
 10
5.609557
 20
2.271195
 30
0.0
 10
5.547301
 20
2.258578
 30
0.0
 10
5.485525
 20
2.271195
 30
0.0
 10
5.438383
 20
2.316972
 30
0.0
 10
5.433626
 20
2.357770
 30
0.0
 10
5.431137
 20
2.379121
 30
0.0
 11
5.431137
 21
2.379121
 31
0.0
 11
5.445777
 21
2.440237
 31
0.0
 11
5.486252
 21
2.480696
 31
0.0
 11
5.547401
 21
2.495330
 31
0.0
 11
5.608502
 21
2.480696
 31
0.0
 11
5.648934
 21
2.440237
 31
0.0
 11
5.663554
 21
2.379121
 31
0.0
 11
5.648934
 21
2.318012
 31
0.0
 11
5.608502
 21
2.277551
 31
0.0
 11
5.547401
 21
2.262913
 31
0.0
 11
5.486252
 21
2.277551
 31
0.0
 11
5.445777
 21
2.318012
 31
0.0
 11
5.431137
 21
2.379121
 31
0.0
  0
LINE
  5
217
100
AcDbEntity
  8
text
 62
1
100
AcDbLine
 10
5.500915
 20
2.050499
 30
0.0
 11
5.593846
 21
2.050499
 31
0.0
  0
LINE
  5
218
100
AcDbEntity
  8
text
 62
1
100
AcDbLine
 10
5.547401
 20
2.004013
 30
0.0
 11
5.547401
 21
2.096999
 31
0.0
  0
SPLINE
  5
219
100
AcDbEntity
  8
text
 62
1
100
AcDbSpline
 70
0
 71
3
 72
19
 73
15
 74
13
 40
0.000000
 40
0.000000
 40
0.000000
 40
0.000000
 40
0.062845
 40
0.120074
 40
0.182949
 40
0.245779
 40
0.302976
 40
0.365816
 40
0.428650
 40
0.485850
 40
0.548681
 40
0.611557
 40
0.668788
 40
0.731627
 40
0.731627
 40
0.731627
 40
0.731627
 10
5.431137
 20
2.050499
 30
0.0
 10
5.433626
 20
2.071853
 30
0.0
 10
5.438381
 20
2.112654
 30
0.0
 10
5.485526
 20
2.158429
 30
0.0
 10
5.547301
 20
2.171041
 30
0.0
 10
5.609556
 20
2.158430
 30
0.0
 10
5.655281
 20
2.112638
 30
0.0
 10
5.667885
 20
2.050501
 30
0.0
 10
5.655279
 20
1.988365
 30
0.0
 10
5.609557
 20
1.942573
 30
0.0
 10
5.547301
 20
1.929956
 30
0.0
 10
5.485525
 20
1.942573
 30
0.0
 10
5.438383
 20
1.988349
 30
0.0
 10
5.433626
 20
2.029148
 30
0.0
 10
5.431137
 20
2.050499
 30
0.0
 11
5.431137
 21
2.050499
 31
0.0
 11
5.445777
 21
2.111615
 31
0.0
 11
5.486252
 21
2.152073
 31
0.0
 11
5.547401
 21
2.166708
 31
0.0
 11
5.608502
 21
2.152073
 31
0.0
 11
5.648934
 21
2.111615
 31
0.0
 11
5.663554
 21
2.050499
 31
0.0
 11
5.648934
 21
1.989390
 31
0.0
 11
5.608502
 21
1.948928
 31
0.0
 11
5.547401
 21
1.934291
 31
0.0
 11
5.486252
 21
1.948928
 31
0.0
 11
5.445777
 21
1.989390
 31
0.0
 11
5.431137
 21
2.050499
 31
0.0
  0
LINE
  5
21a
100
AcDbEntity
  8
text
 62
1
100
AcDbLine
 10
5.500915
 20
1.724043
 30
0.0
 11
5.593846
 21
1.724043
 31
0.0
  0
LINE
  5
21b
100
AcDbEntity
  8
text
 62
1
100
AcDbLine
 10
5.547401
 20
1.677557
 30
0.0
 11
5.547401
 21
1.770543
 31
0.0
  0
SPLINE
  5
21c
100
AcDbEntity
  8
text
 62
1
100
AcDbSpline
 70
0
 71
3
 72
19
 73
15
 74
13
 40
0.000000
 40
0.000000
 40
0.000000
 40
0.000000
 40
0.062845
 40
0.120074
 40
0.182949
 40
0.245779
 40
0.302976
 40
0.365816
 40
0.428650
 40
0.485850
 40
0.548681
 40
0.611557
 40
0.668788
 40
0.731627
 40
0.731627
 40
0.731627
 40
0.731627
 10
5.431137
 20
1.724043
 30
0.0
 10
5.433626
 20
1.745397
 30
0.0
 10
5.438381
 20
1.786197
 30
0.0
 10
5.485526
 20
1.831973
 30
0.0
 10
5.547301
 20
1.844585
 30
0.0
 10
5.609556
 20
1.831973
 30
0.0
 10
5.655281
 20
1.786182
 30
0.0
 10
5.667885
 20
1.724044
 30
0.0
 10
5.655279
 20
1.661908
 30
0.0
 10
5.609557
 20
1.616116
 30
0.0
 10
5.547301
 20
1.603499
 30
0.0
 10
5.485525
 20
1.616117
 30
0.0
 10
5.438383
 20
1.661893
 30
0.0
 10
5.433626
 20
1.702691
 30
0.0
 10
5.431137
 20
1.724043
 30
0.0
 11
5.431137
 21
1.724043
 31
0.0
 11
5.445777
 21
1.785158
 31
0.0
 11
5.486252
 21
1.825617
 31
0.0
 11
5.547401
 21
1.840251
 31
0.0
 11
5.608502
 21
1.825617
 31
0.0
 11
5.648934
 21
1.785158
 31
0.0
 11
5.663554
 21
1.724043
 31
0.0
 11
5.648934
 21
1.662933
 31
0.0
 11
5.608502
 21
1.622472
 31
0.0
 11
5.547401
 21
1.607834
 31
0.0
 11
5.486252
 21
1.622472
 31
0.0
 11
5.445777
 21
1.662933
 31
0.0
 11
5.431137
 21
1.724043
 31
0.0
  0
LINE
  5
21d
100
AcDbEntity
  8
text
 62
1
100
AcDbLine
 10
5.500915
 20
1.402530
 30
0.0
 11
5.593846
 21
1.402530
 31
0.0
  0
LINE
  5
21e
100
AcDbEntity
  8
text
 62
1
100
AcDbLine
 10
5.547401
 20
1.356044
 30
0.0
 11
5.547401
 21
1.449030
 31
0.0
  0
SPLINE
  5
21f
100
AcDbEntity
  8
text
 62
1
100
AcDbSpline
 70
0
 71
3
 72
19
 73
15
 74
13
 40
0.000000
 40
0.000000
 40
0.000000
 40
0.000000
 40
0.062845
 40
0.120074
 40
0.182949
 40
0.245779
 40
0.302976
 40
0.365816
 40
0.428650
 40
0.485850
 40
0.548681
 40
0.611557
 40
0.668788
 40
0.731627
 40
0.731627
 40
0.731627
 40
0.731627
 10
5.431137
 20
1.402530
 30
0.0
 10
5.433626
 20
1.423884
 30
0.0
 10
5.438381
 20
1.464684
 30
0.0
 10
5.485526
 20
1.510460
 30
0.0
 10
5.547301
 20
1.523072
 30
0.0
 10
5.609556
 20
1.510460
 30
0.0
 10
5.655281
 20
1.464669
 30
0.0
 10
5.667885
 20
1.402532
 30
0.0
 10
5.655279
 20
1.340395
 30
0.0
 10
5.609557
 20
1.294603
 30
0.0
 10
5.547301
 20
1.281986
 30
0.0
 10
5.485525
 20
1.294604
 30
0.0
 10
5.438383
 20
1.340380
 30
0.0
 10
5.433626
 20
1.381178
 30
0.0
 10
5.431137
 20
1.402530
 30
0.0
 11
5.431137
 21
1.402530
 31
0.0
 11
5.445777
 21
1.463646
 31
0.0
 11
5.486252
 21
1.504104
 31
0.0
 11
5.547401
 21
1.518738
 31
0.0
 11
5.608502
 21
1.504104
 31
0.0
 11
5.648934
 21
1.463646
 31
0.0
 11
5.663554
 21
1.402530
 31
0.0
 11
5.648934
 21
1.341420
 31
0.0
 11
5.608502
 21
1.300959
 31
0.0
 11
5.547401
 21
1.286321
 31
0.0
 11
5.486252
 21
1.300959
 31
0.0
 11
5.445777
 21
1.341420
 31
0.0
 11
5.431137
 21
1.402530
 31
0.0
  0
LINE
  5
220
100
AcDbEntity
  8
text
 62
1
100
AcDbLine
 10
4.989804
 20
4.331841
 30
0.0
 11
5.082734
 21
4.331841
 31
0.0
  0
LINE
  5
221
100
AcDbEntity
  8
text
 62
1
100
AcDbLine
 10
5.036290
 20
4.285355
 30
0.0
 11
5.036290
 21
4.378341
 31
0.0
  0
SPLINE
  5
222
100
AcDbEntity
  8
text
 62
1
100
AcDbSpline
 70
0
 71
3
 72
19
 73
15
 74
13
 40
0.000000
 40
0.000000
 40
0.000000
 40
0.000000
 40
0.062845
 40
0.120074
 40
0.182949
 40
0.245779
 40
0.302976
 40
0.365816
 40
0.428650
 40
0.485850
 40
0.548681
 40
0.611557
 40
0.668788
 40
0.731627
 40
0.731627
 40
0.731627
 40
0.731627
 10
4.920026
 20
4.331841
 30
0.0
 10
4.922515
 20
4.353195
 30
0.0
 10
4.927269
 20
4.393995
 30
0.0
 10
4.974415
 20
4.439771
 30
0.0
 10
5.036190
 20
4.452383
 30
0.0
 10
5.098445
 20
4.439771
 30
0.0
 10
5.144170
 20
4.393980
 30
0.0
 10
5.156774
 20
4.331843
 30
0.0
 10
5.144168
 20
4.269706
 30
0.0
 10
5.098446
 20
4.223915
 30
0.0
 10
5.036190
 20
4.211297
 30
0.0
 10
4.974414
 20
4.223915
 30
0.0
 10
4.927272
 20
4.269691
 30
0.0
 10
4.922515
 20
4.310489
 30
0.0
 10
4.920026
 20
4.331841
 30
0.0
 11
4.920026
 21
4.331841
 31
0.0
 11
4.934665
 21
4.392957
 31
0.0
 11
4.975141
 21
4.433415
 31
0.0
 11
5.036290
 21
4.448049
 31
0.0
 11
5.097391
 21
4.433415
 31
0.0
 11
5.137823
 21
4.392957
 31
0.0
 11
5.152443
 21
4.331841
 31
0.0
 11
5.137823
 21
4.270731
 31
0.0
 11
5.097391
 21
4.230270
 31
0.0
 11
5.036290
 21
4.215633
 31
0.0
 11
4.975141
 21
4.230270
 31
0.0
 11
4.934665
 21
4.270731
 31
0.0
 11
4.920026
 21
4.331841
 31
0.0
  0
LINE
  5
223
100
AcDbEntity
  8
text
 62
1
100
AcDbLine
 10
4.989804
 20
4.002530
 30
0.0
 11
5.082734
 21
4.002530
 31
0.0
  0
LINE
  5
224
100
AcDbEntity
  8
text
 62
1
100
AcDbLine
 10
5.036290
 20
3.956044
 30
0.0
 11
5.036290
 21
4.049030
 31
0.0
  0
SPLINE
  5
225
100
AcDbEntity
  8
text
 62
1
100
AcDbSpline
 70
0
 71
3
 72
19
 73
15
 74
13
 40
0.000000
 40
0.000000
 40
0.000000
 40
0.000000
 40
0.062845
 40
0.120074
 40
0.182949
 40
0.245779
 40
0.302976
 40
0.365816
 40
0.428650
 40
0.485850
 40
0.548681
 40
0.611557
 40
0.668788
 40
0.731627
 40
0.731627
 40
0.731627
 40
0.731627
 10
4.920026
 20
4.002530
 30
0.0
 10
4.922515
 20
4.023884
 30
0.0
 10
4.927269
 20
4.064684
 30
0.0
 10
4.974415
 20
4.110460
 30
0.0
 10
5.036190
 20
4.123072
 30
0.0
 10
5.098445
 20
4.110460
 30
0.0
 10
5.144170
 20
4.064669
 30
0.0
 10
5.156774
 20
4.002532
 30
0.0
 10
5.144168
 20
3.940395
 30
0.0
 10
5.098446
 20
3.894603
 30
0.0
 10
5.036190
 20
3.881986
 30
0.0
 10
4.974414
 20
3.894604
 30
0.0
 10
4.927272
 20
3.940380
 30
0.0
 10
4.922515
 20
3.981178
 30
0.0
 10
4.920026
 20
4.002530
 30
0.0
 11
4.920026
 21
4.002530
 31
0.0
 11
4.934665
 21
4.063646
 31
0.0
 11
4.975141
 21
4.104104
 31
0.0
 11
5.036290
 21
4.118738
 31
0.0
 11
5.097391
 21
4.104104
 31
0.0
 11
5.137823
 21
4.063646
 31
0.0
 11
5.152443
 21
4.002530
 31
0.0
 11
5.137823
 21
3.941420
 31
0.0
 11
5.097391
 21
3.900959
 31
0.0
 11
5.036290
 21
3.886321
 31
0.0
 11
4.975141
 21
3.900959
 31
0.0
 11
4.934665
 21
3.941420
 31
0.0
 11
4.920026
 21
4.002530
 31
0.0
  0
LINE
  5
226
100
AcDbEntity
  8
text
 62
1
100
AcDbLine
 10
4.989804
 20
3.676484
 30
0.0
 11
5.082734
 21
3.676484
 31
0.0
  0
LINE
  5
227
100
AcDbEntity
  8
text
 62
1
100
AcDbLine
 10
5.036290
 20
3.629998
 30
0.0
 11
5.036290
 21
3.722984
 31
0.0
  0
SPLINE
  5
228
100
AcDbEntity
  8
text
 62
1
100
AcDbSpline
 70
0
 71
3
 72
19
 73
15
 74
13
 40
0.000000
 40
0.000000
 40
0.000000
 40
0.000000
 40
0.062845
 40
0.120074
 40
0.182949
 40
0.245779
 40
0.302976
 40
0.365816
 40
0.428650
 40
0.485850
 40
0.548681
 40
0.611557
 40
0.668788
 40
0.731627
 40
0.731627
 40
0.731627
 40
0.731627
 10
4.920026
 20
3.676484
 30
0.0
 10
4.922515
 20
3.697838
 30
0.0
 10
4.927269
 20
3.738638
 30
0.0
 10
4.974415
 20
3.784414
 30
0.0
 10
5.036190
 20
3.797026
 30
0.0
 10
5.098445
 20
3.784414
 30
0.0
 10
5.144170
 20
3.738623
 30
0.0
 10
5.156774
 20
3.676485
 30
0.0
 10
5.144168
 20
3.614349
 30
0.0
 10
5.098446
 20
3.568557
 30
0.0
 10
5.036190
 20
3.555940
 30
0.0
 10
4.974414
 20
3.568558
 30
0.0
 10
4.927272
 20
3.614334
 30
0.0
 10
4.922515
 20
3.655132
 30
0.0
 10
4.920026
 20
3.676484
 30
0.0
 11
4.920026
 21
3.676484
 31
0.0
 11
4.934665
 21
3.737599
 31
0.0
 11
4.975141
 21
3.778058
 31
0.0
 11
5.036290
 21
3.792692
 31
0.0
 11
5.097391
 21
3.778058
 31
0.0
 11
5.137823
 21
3.737599
 31
0.0
 11
5.152443
 21
3.676484
 31
0.0
 11
5.137823
 21
3.615374
 31
0.0
 11
5.097391
 21
3.574913
 31
0.0
 11
5.036290
 21
3.560275
 31
0.0
 11
4.975141
 21
3.574913
 31
0.0
 11
4.934665
 21
3.615374
 31
0.0
 11
4.920026
 21
3.676484
 31
0.0
  0
LINE
  5
229
100
AcDbEntity
  8
text
 62
1
100
AcDbLine
 10
4.989804
 20
3.349712
 30
0.0
 11
5.082734
 21
3.349712
 31
0.0
  0
LINE
  5
22a
100
AcDbEntity
  8
text
 62
1
100
AcDbLine
 10
5.036290
 20
3.303226
 30
0.0
 11
5.036290
 21
3.396212
 31
0.0
  0
SPLINE
  5
22b
100
AcDbEntity
  8
text
 62
1
100
AcDbSpline
 70
0
 71
3
 72
19
 73
15
 74
13
 40
0.000000
 40
0.000000
 40
0.000000
 40
0.000000
 40
0.062845
 40
0.120074
 40
0.182949
 40
0.245779
 40
0.302976
 40
0.365816
 40
0.428650
 40
0.485850
 40
0.548681
 40
0.611557
 40
0.668788
 40
0.731627
 40
0.731627
 40
0.731627
 40
0.731627
 10
4.920026
 20
3.349712
 30
0.0
 10
4.922515
 20
3.371066
 30
0.0
 10
4.927269
 20
3.411866
 30
0.0
 10
4.974415
 20
3.457642
 30
0.0
 10
5.036190
 20
3.470254
 30
0.0
 10
5.098445
 20
3.457642
 30
0.0
 10
5.144170
 20
3.411851
 30
0.0
 10
5.156774
 20
3.349714
 30
0.0
 10
5.144168
 20
3.287578
 30
0.0
 10
5.098446
 20
3.241786
 30
0.0
 10
5.036190
 20
3.229168
 30
0.0
 10
4.974414
 20
3.241786
 30
0.0
 10
4.927272
 20
3.287562
 30
0.0
 10
4.922515
 20
3.328360
 30
0.0
 10
4.920026
 20
3.349712
 30
0.0
 11
4.920026
 21
3.349712
 31
0.0
 11
4.934665
 21
3.410828
 31
0.0
 11
4.975141
 21
3.451286
 31
0.0
 11
5.036290
 21
3.465920
 31
0.0
 11
5.097391
 21
3.451286
 31
0.0
 11
5.137823
 21
3.410828
 31
0.0
 11
5.152443
 21
3.349712
 31
0.0
 11
5.137823
 21
3.288602
 31
0.0
 11
5.097391
 21
3.248141
 31
0.0
 11
5.036290
 21
3.233504
 31
0.0
 11
4.975141
 21
3.248141
 31
0.0
 11
4.934665
 21
3.288602
 31
0.0
 11
4.920026
 21
3.349712
 31
0.0
  0
LINE
  5
22c
100
AcDbEntity
  8
text
 62
1
100
AcDbLine
 10
4.989804
 20
3.030027
 30
0.0
 11
5.082734
 21
3.030027
 31
0.0
  0
LINE
  5
22d
100
AcDbEntity
  8
text
 62
1
100
AcDbLine
 10
5.036290
 20
2.983541
 30
0.0
 11
5.036290
 21
3.076527
 31
0.0
  0
SPLINE
  5
22e
100
AcDbEntity
  8
text
 62
1
100
AcDbSpline
 70
0
 71
3
 72
19
 73
15
 74
13
 40
0.000000
 40
0.000000
 40
0.000000
 40
0.000000
 40
0.062845
 40
0.120074
 40
0.182949
 40
0.245779
 40
0.302976
 40
0.365816
 40
0.428650
 40
0.485850
 40
0.548681
 40
0.611557
 40
0.668788
 40
0.731627
 40
0.731627
 40
0.731627
 40
0.731627
 10
4.920026
 20
3.030027
 30
0.0
 10
4.922515
 20
3.051381
 30
0.0
 10
4.927269
 20
3.092181
 30
0.0
 10
4.974415
 20
3.137957
 30
0.0
 10
5.036190
 20
3.150569
 30
0.0
 10
5.098445
 20
3.137957
 30
0.0
 10
5.144170
 20
3.092166
 30
0.0
 10
5.156774
 20
3.030029
 30
0.0
 10
5.144168
 20
2.967892
 30
0.0
 10
5.098446
 20
2.922101
 30
0.0
 10
5.036190
 20
2.909483
 30
0.0
 10
4.974414
 20
2.922101
 30
0.0
 10
4.927272
 20
2.967877
 30
0.0
 10
4.922515
 20
3.008675
 30
0.0
 10
4.920026
 20
3.030027
 30
0.0
 11
4.920026
 21
3.030027
 31
0.0
 11
4.934665
 21
3.091143
 31
0.0
 11
4.975141
 21
3.131601
 31
0.0
 11
5.036290
 21
3.146235
 31
0.0
 11
5.097391
 21
3.131601
 31
0.0
 11
5.137823
 21
3.091143
 31
0.0
 11
5.152443
 21
3.030027
 31
0.0
 11
5.137823
 21
2.968917
 31
0.0
 11
5.097391
 21
2.928456
 31
0.0
 11
5.036290
 21
2.913819
 31
0.0
 11
4.975141
 21
2.928456
 31
0.0
 11
4.934665
 21
2.968917
 31
0.0
 11
4.920026
 21
3.030027
 31
0.0
  0
LINE
  5
22f
100
AcDbEntity
  8
text
 62
1
100
AcDbLine
 10
4.989804
 20
2.702862
 30
0.0
 11
5.082734
 21
2.702862
 31
0.0
  0
LINE
  5
230
100
AcDbEntity
  8
text
 62
1
100
AcDbLine
 10
5.036290
 20
2.656375
 30
0.0
 11
5.036290
 21
2.749362
 31
0.0
  0
SPLINE
  5
231
100
AcDbEntity
  8
text
 62
1
100
AcDbSpline
 70
0
 71
3
 72
19
 73
15
 74
13
 40
0.000000
 40
0.000000
 40
0.000000
 40
0.000000
 40
0.062845
 40
0.120074
 40
0.182949
 40
0.245779
 40
0.302976
 40
0.365816
 40
0.428650
 40
0.485850
 40
0.548681
 40
0.611557
 40
0.668788
 40
0.731627
 40
0.731627
 40
0.731627
 40
0.731627
 10
4.920026
 20
2.702862
 30
0.0
 10
4.922515
 20
2.724216
 30
0.0
 10
4.927269
 20
2.765016
 30
0.0
 10
4.974415
 20
2.810791
 30
0.0
 10
5.036190
 20
2.823403
 30
0.0
 10
5.098445
 20
2.810792
 30
0.0
 10
5.144170
 20
2.765000
 30
0.0
 10
5.156774
 20
2.702863
 30
0.0
 10
5.144168
 20
2.640727
 30
0.0
 10
5.098446
 20
2.594935
 30
0.0
 10
5.036190
 20
2.582318
 30
0.0
 10
4.974414
 20
2.594936
 30
0.0
 10
4.927272
 20
2.640712
 30
0.0
 10
4.922515
 20
2.681510
 30
0.0
 10
4.920026
 20
2.702862
 30
0.0
 11
4.920026
 21
2.702862
 31
0.0
 11
4.934665
 21
2.763977
 31
0.0
 11
4.975141
 21
2.804436
 31
0.0
 11
5.036290
 21
2.819070
 31
0.0
 11
5.097391
 21
2.804436
 31
0.0
 11
5.137823
 21
2.763977
 31
0.0
 11
5.152443
 21
2.702862
 31
0.0
 11
5.137823
 21
2.641752
 31
0.0
 11
5.097391
 21
2.601291
 31
0.0
 11
5.036290
 21
2.586653
 31
0.0
 11
4.975141
 21
2.601291
 31
0.0
 11
4.934665
 21
2.641752
 31
0.0
 11
4.920026
 21
2.702862
 31
0.0
  0
LINE
  5
232
100
AcDbEntity
  8
text
 62
1
100
AcDbLine
 10
4.989804
 20
2.379121
 30
0.0
 11
5.082734
 21
2.379121
 31
0.0
  0
LINE
  5
233
100
AcDbEntity
  8
text
 62
1
100
AcDbLine
 10
5.036290
 20
2.332635
 30
0.0
 11
5.036290
 21
2.425621
 31
0.0
  0
SPLINE
  5
234
100
AcDbEntity
  8
text
 62
1
100
AcDbSpline
 70
0
 71
3
 72
19
 73
15
 74
13
 40
0.000000
 40
0.000000
 40
0.000000
 40
0.000000
 40
0.062845
 40
0.120074
 40
0.182949
 40
0.245779
 40
0.302976
 40
0.365816
 40
0.428650
 40
0.485850
 40
0.548681
 40
0.611557
 40
0.668788
 40
0.731627
 40
0.731627
 40
0.731627
 40
0.731627
 10
4.920026
 20
2.379121
 30
0.0
 10
4.922515
 20
2.400476
 30
0.0
 10
4.927269
 20
2.441276
 30
0.0
 10
4.974415
 20
2.487051
 30
0.0
 10
5.036190
 20
2.499663
 30
0.0
 10
5.098445
 20
2.487052
 30
0.0
 10
5.144170
 20
2.441260
 30
0.0
 10
5.156774
 20
2.379123
 30
0.0
 10
5.144168
 20
2.316987
 30
0.0
 10
5.098446
 20
2.271195
 30
0.0
 10
5.036190
 20
2.258578
 30
0.0
 10
4.974414
 20
2.271195
 30
0.0
 10
4.927272
 20
2.316972
 30
0.0
 10
4.922515
 20
2.357770
 30
0.0
 10
4.920026
 20
2.379121
 30
0.0
 11
4.920026
 21
2.379121
 31
0.0
 11
4.934665
 21
2.440237
 31
0.0
 11
4.975141
 21
2.480696
 31
0.0
 11
5.036290
 21
2.495330
 31
0.0
 11
5.097391
 21
2.480696
 31
0.0
 11
5.137823
 21
2.440237
 31
0.0
 11
5.152443
 21
2.379121
 31
0.0
 11
5.137823
 21
2.318012
 31
0.0
 11
5.097391
 21
2.277551
 31
0.0
 11
5.036290
 21
2.262913
 31
0.0
 11
4.975141
 21
2.277551
 31
0.0
 11
4.934665
 21
2.318012
 31
0.0
 11
4.920026
 21
2.379121
 31
0.0
  0
LINE
  5
235
100
AcDbEntity
  8
text
 62
1
100
AcDbLine
 10
4.989804
 20
2.050499
 30
0.0
 11
5.082734
 21
2.050499
 31
0.0
  0
LINE
  5
236
100
AcDbEntity
  8
text
 62
1
100
AcDbLine
 10
5.036290
 20
2.004013
 30
0.0
 11
5.036290
 21
2.096999
 31
0.0
  0
SPLINE
  5
237
100
AcDbEntity
  8
text
 62
1
100
AcDbSpline
 70
0
 71
3
 72
19
 73
15
 74
13
 40
0.000000
 40
0.000000
 40
0.000000
 40
0.000000
 40
0.062845
 40
0.120074
 40
0.182949
 40
0.245779
 40
0.302976
 40
0.365816
 40
0.428650
 40
0.485850
 40
0.548681
 40
0.611557
 40
0.668788
 40
0.731627
 40
0.731627
 40
0.731627
 40
0.731627
 10
4.920026
 20
2.050499
 30
0.0
 10
4.922515
 20
2.071853
 30
0.0
 10
4.927269
 20
2.112654
 30
0.0
 10
4.974415
 20
2.158429
 30
0.0
 10
5.036190
 20
2.171041
 30
0.0
 10
5.098445
 20
2.158430
 30
0.0
 10
5.144170
 20
2.112638
 30
0.0
 10
5.156774
 20
2.050501
 30
0.0
 10
5.144168
 20
1.988365
 30
0.0
 10
5.098446
 20
1.942573
 30
0.0
 10
5.036190
 20
1.929956
 30
0.0
 10
4.974414
 20
1.942573
 30
0.0
 10
4.927272
 20
1.988349
 30
0.0
 10
4.922515
 20
2.029148
 30
0.0
 10
4.920026
 20
2.050499
 30
0.0
 11
4.920026
 21
2.050499
 31
0.0
 11
4.934665
 21
2.111615
 31
0.0
 11
4.975141
 21
2.152073
 31
0.0
 11
5.036290
 21
2.166708
 31
0.0
 11
5.097391
 21
2.152073
 31
0.0
 11
5.137823
 21
2.111615
 31
0.0
 11
5.152443
 21
2.050499
 31
0.0
 11
5.137823
 21
1.989390
 31
0.0
 11
5.097391
 21
1.948928
 31
0.0
 11
5.036290
 21
1.934291
 31
0.0
 11
4.975141
 21
1.948928
 31
0.0
 11
4.934665
 21
1.989390
 31
0.0
 11
4.920026
 21
2.050499
 31
0.0
  0
LINE
  5
238
100
AcDbEntity
  8
text
 62
1
100
AcDbLine
 10
4.989804
 20
1.724043
 30
0.0
 11
5.082734
 21
1.724043
 31
0.0
  0
LINE
  5
239
100
AcDbEntity
  8
text
 62
1
100
AcDbLine
 10
5.036290
 20
1.677557
 30
0.0
 11
5.036290
 21
1.770543
 31
0.0
  0
SPLINE
  5
23a
100
AcDbEntity
  8
text
 62
1
100
AcDbSpline
 70
0
 71
3
 72
19
 73
15
 74
13
 40
0.000000
 40
0.000000
 40
0.000000
 40
0.000000
 40
0.062845
 40
0.120074
 40
0.182949
 40
0.245779
 40
0.302976
 40
0.365816
 40
0.428650
 40
0.485850
 40
0.548681
 40
0.611557
 40
0.668788
 40
0.731627
 40
0.731627
 40
0.731627
 40
0.731627
 10
4.920026
 20
1.724043
 30
0.0
 10
4.922515
 20
1.745397
 30
0.0
 10
4.927269
 20
1.786197
 30
0.0
 10
4.974415
 20
1.831973
 30
0.0
 10
5.036190
 20
1.844585
 30
0.0
 10
5.098445
 20
1.831973
 30
0.0
 10
5.144170
 20
1.786182
 30
0.0
 10
5.156774
 20
1.724044
 30
0.0
 10
5.144168
 20
1.661908
 30
0.0
 10
5.098446
 20
1.616116
 30
0.0
 10
5.036190
 20
1.603499
 30
0.0
 10
4.974414
 20
1.616117
 30
0.0
 10
4.927272
 20
1.661893
 30
0.0
 10
4.922515
 20
1.702691
 30
0.0
 10
4.920026
 20
1.724043
 30
0.0
 11
4.920026
 21
1.724043
 31
0.0
 11
4.934665
 21
1.785158
 31
0.0
 11
4.975141
 21
1.825617
 31
0.0
 11
5.036290
 21
1.840251
 31
0.0
 11
5.097391
 21
1.825617
 31
0.0
 11
5.137823
 21
1.785158
 31
0.0
 11
5.152443
 21
1.724043
 31
0.0
 11
5.137823
 21
1.662933
 31
0.0
 11
5.097391
 21
1.622472
 31
0.0
 11
5.036290
 21
1.607834
 31
0.0
 11
4.975141
 21
1.622472
 31
0.0
 11
4.934665
 21
1.662933
 31
0.0
 11
4.920026
 21
1.724043
 31
0.0
  0
LINE
  5
23b
100
AcDbEntity
  8
text
 62
1
100
AcDbLine
 10
4.989804
 20
1.402530
 30
0.0
 11
5.082734
 21
1.402530
 31
0.0
  0
LINE
  5
23c
100
AcDbEntity
  8
text
 62
1
100
AcDbLine
 10
5.036290
 20
1.356044
 30
0.0
 11
5.036290
 21
1.449030
 31
0.0
  0
SPLINE
  5
23d
100
AcDbEntity
  8
text
 62
1
100
AcDbSpline
 70
0
 71
3
 72
19
 73
15
 74
13
 40
0.000000
 40
0.000000
 40
0.000000
 40
0.000000
 40
0.062845
 40
0.120074
 40
0.182949
 40
0.245779
 40
0.302976
 40
0.365816
 40
0.428650
 40
0.485850
 40
0.548681
 40
0.611557
 40
0.668788
 40
0.731627
 40
0.731627
 40
0.731627
 40
0.731627
 10
4.920026
 20
1.402530
 30
0.0
 10
4.922515
 20
1.423884
 30
0.0
 10
4.927269
 20
1.464684
 30
0.0
 10
4.974415
 20
1.510460
 30
0.0
 10
5.036190
 20
1.523072
 30
0.0
 10
5.098445
 20
1.510460
 30
0.0
 10
5.144170
 20
1.464669
 30
0.0
 10
5.156774
 20
1.402532
 30
0.0
 10
5.144168
 20
1.340395
 30
0.0
 10
5.098446
 20
1.294603
 30
0.0
 10
5.036190
 20
1.281986
 30
0.0
 10
4.974414
 20
1.294604
 30
0.0
 10
4.927272
 20
1.340380
 30
0.0
 10
4.922515
 20
1.381178
 30
0.0
 10
4.920026
 20
1.402530
 30
0.0
 11
4.920026
 21
1.402530
 31
0.0
 11
4.934665
 21
1.463646
 31
0.0
 11
4.975141
 21
1.504104
 31
0.0
 11
5.036290
 21
1.518738
 31
0.0
 11
5.097391
 21
1.504104
 31
0.0
 11
5.137823
 21
1.463646
 31
0.0
 11
5.152443
 21
1.402530
 31
0.0
 11
5.137823
 21
1.341420
 31
0.0
 11
5.097391
 21
1.300959
 31
0.0
 11
5.036290
 21
1.286321
 31
0.0
 11
4.975141
 21
1.300959
 31
0.0
 11
4.934665
 21
1.341420
 31
0.0
 11
4.920026
 21
1.402530
 31
0.0
  0
LINE
  5
23e
100
AcDbEntity
  8
text
 62
1
100
AcDbLine
 10
4.448388
 20
4.172914
 30
0.0
 11
4.541319
 21
4.172914
 31
0.0
  0
LINE
  5
23f
100
AcDbEntity
  8
text
 62
1
100
AcDbLine
 10
4.494874
 20
4.126428
 30
0.0
 11
4.494874
 21
4.219414
 31
0.0
  0
SPLINE
  5
240
100
AcDbEntity
  8
text
 62
1
100
AcDbSpline
 70
0
 71
3
 72
19
 73
15
 74
13
 40
0.000000
 40
0.000000
 40
0.000000
 40
0.000000
 40
0.062845
 40
0.120074
 40
0.182949
 40
0.245779
 40
0.302976
 40
0.365816
 40
0.428650
 40
0.485850
 40
0.548681
 40
0.611557
 40
0.668788
 40
0.731627
 40
0.731627
 40
0.731627
 40
0.731627
 10
4.378610
 20
4.172914
 30
0.0
 10
4.381099
 20
4.194268
 30
0.0
 10
4.385854
 20
4.235068
 30
0.0
 10
4.432999
 20
4.280844
 30
0.0
 10
4.494774
 20
4.293456
 30
0.0
 10
4.557030
 20
4.280844
 30
0.0
 10
4.602754
 20
4.235053
 30
0.0
 10
4.615358
 20
4.172916
 30
0.0
 10
4.602752
 20
4.110780
 30
0.0
 10
4.557030
 20
4.064988
 30
0.0
 10
4.494774
 20
4.052370
 30
0.0
 10
4.432998
 20
4.064988
 30
0.0
 10
4.385856
 20
4.110764
 30
0.0
 10
4.381100
 20
4.151562
 30
0.0
 10
4.378610
 20
4.172914
 30
0.0
 11
4.378610
 21
4.172914
 31
0.0
 11
4.393250
 21
4.234030
 31
0.0
 11
4.433726
 21
4.274488
 31
0.0
 11
4.494874
 21
4.289122
 31
0.0
 11
4.555976
 21
4.274488
 31
0.0
 11
4.596407
 21
4.234030
 31
0.0
 11
4.611027
 21
4.172914
 31
0.0
 11
4.596407
 21
4.111804
 31
0.0
 11
4.555976
 21
4.071343
 31
0.0
 11
4.494874
 21
4.056706
 31
0.0
 11
4.433726
 21
4.071343
 31
0.0
 11
4.393250
 21
4.111804
 31
0.0
 11
4.378610
 21
4.172914
 31
0.0
  0
LINE
  5
241
100
AcDbEntity
  8
text
 62
1
100
AcDbLine
 10
4.448388
 20
2.861803
 30
0.0
 11
4.541319
 21
2.861803
 31
0.0
  0
LINE
  5
242
100
AcDbEntity
  8
text
 62
1
100
AcDbLine
 10
4.494874
 20
2.815317
 30
0.0
 11
4.494874
 21
2.908303
 31
0.0
  0
SPLINE
  5
243
100
AcDbEntity
  8
text
 62
1
100
AcDbSpline
 70
0
 71
3
 72
19
 73
15
 74
13
 40
0.000000
 40
0.000000
 40
0.000000
 40
0.000000
 40
0.062845
 40
0.120074
 40
0.182949
 40
0.245779
 40
0.302976
 40
0.365816
 40
0.428650
 40
0.485850
 40
0.548681
 40
0.611557
 40
0.668788
 40
0.731627
 40
0.731627
 40
0.731627
 40
0.731627
 10
4.378610
 20
2.861803
 30
0.0
 10
4.381099
 20
2.883157
 30
0.0
 10
4.385854
 20
2.923957
 30
0.0
 10
4.432999
 20
2.969733
 30
0.0
 10
4.494774
 20
2.982345
 30
0.0
 10
4.557030
 20
2.969733
 30
0.0
 10
4.602754
 20
2.923942
 30
0.0
 10
4.615358
 20
2.861805
 30
0.0
 10
4.602752
 20
2.799668
 30
0.0
 10
4.557030
 20
2.753877
 30
0.0
 10
4.494774
 20
2.741259
 30
0.0
 10
4.432998
 20
2.753877
 30
0.0
 10
4.385856
 20
2.799653
 30
0.0
 10
4.381100
 20
2.840451
 30
0.0
 10
4.378610
 20
2.861803
 30
0.0
 11
4.378610
 21
2.861803
 31
0.0
 11
4.393250
 21
2.922919
 31
0.0
 11
4.433726
 21
2.963377
 31
0.0
 11
4.494874
 21
2.978011
 31
0.0
 11
4.555976
 21
2.963377
 31
0.0
 11
4.596407
 21
2.922919
 31
0.0
 11
4.611027
 21
2.861803
 31
0.0
 11
4.596407
 21
2.800693
 31
0.0
 11
4.555976
 21
2.760232
 31
0.0
 11
4.494874
 21
2.745595
 31
0.0
 11
4.433726
 21
2.760232
 31
0.0
 11
4.393250
 21
2.800693
 31
0.0
 11
4.378610
 21
2.861803
 31
0.0
  0
LINE
  5
244
100
AcDbEntity
  8
text
 62
1
100
AcDbLine
 10
4.448388
 20
0.995136
 30
0.0
 11
4.541319
 21
0.995136
 31
0.0
  0
LINE
  5
245
100
AcDbEntity
  8
text
 62
1
100
AcDbLine
 10
4.494874
 20
0.948650
 30
0.0
 11
4.494874
 21
1.041636
 31
0.0
  0
SPLINE
  5
246
100
AcDbEntity
  8
text
 62
1
100
AcDbSpline
 70
0
 71
3
 72
19
 73
15
 74
13
 40
0.000000
 40
0.000000
 40
0.000000
 40
0.000000
 40
0.062845
 40
0.120074
 40
0.182949
 40
0.245779
 40
0.302976
 40
0.365816
 40
0.428650
 40
0.485850
 40
0.548681
 40
0.611557
 40
0.668788
 40
0.731627
 40
0.731627
 40
0.731627
 40
0.731627
 10
4.378610
 20
0.995136
 30
0.0
 10
4.381099
 20
1.016490
 30
0.0
 10
4.385854
 20
1.057290
 30
0.0
 10
4.432999
 20
1.103066
 30
0.0
 10
4.494774
 20
1.115678
 30
0.0
 10
4.557030
 20
1.103066
 30
0.0
 10
4.602754
 20
1.057275
 30
0.0
 10
4.615358
 20
0.995138
 30
0.0
 10
4.602752
 20
0.933002
 30
0.0
 10
4.557030
 20
0.887210
 30
0.0
 10
4.494774
 20
0.874592
 30
0.0
 10
4.432998
 20
0.887210
 30
0.0
 10
4.385856
 20
0.932986
 30
0.0
 10
4.381100
 20
0.973785
 30
0.0
 10
4.378610
 20
0.995136
 30
0.0
 11
4.378610
 21
0.995136
 31
0.0
 11
4.393250
 21
1.056252
 31
0.0
 11
4.433726
 21
1.096710
 31
0.0
 11
4.494874
 21
1.111345
 31
0.0
 11
4.555976
 21
1.096710
 31
0.0
 11
4.596407
 21
1.056252
 31
0.0
 11
4.611027
 21
0.995136
 31
0.0
 11
4.596407
 21
0.934027
 31
0.0
 11
4.555976
 21
0.893565
 31
0.0
 11
4.494874
 21
0.878928
 31
0.0
 11
4.433726
 21
0.893565
 31
0.0
 11
4.393250
 21
0.934027
 31
0.0
 11
4.378610
 21
0.995136
 31
0.0
  0
LINE
  5
247
100
AcDbEntity
  8
text
 62
1
100
AcDbLine
 10
4.448388
 20
1.950692
 30
0.0
 11
4.541319
 21
1.950692
 31
0.0
  0
LINE
  5
248
100
AcDbEntity
  8
text
 62
1
100
AcDbLine
 10
4.494874
 20
1.904206
 30
0.0
 11
4.494874
 21
1.997192
 31
0.0
  0
SPLINE
  5
249
100
AcDbEntity
  8
text
 62
1
100
AcDbSpline
 70
0
 71
3
 72
19
 73
15
 74
13
 40
0.000000
 40
0.000000
 40
0.000000
 40
0.000000
 40
0.062845
 40
0.120074
 40
0.182949
 40
0.245779
 40
0.302976
 40
0.365816
 40
0.428650
 40
0.485850
 40
0.548681
 40
0.611557
 40
0.668788
 40
0.731627
 40
0.731627
 40
0.731627
 40
0.731627
 10
4.378610
 20
1.950692
 30
0.0
 10
4.381099
 20
1.972046
 30
0.0
 10
4.385854
 20
2.012846
 30
0.0
 10
4.432999
 20
2.058622
 30
0.0
 10
4.494774
 20
2.071234
 30
0.0
 10
4.557030
 20
2.058622
 30
0.0
 10
4.602754
 20
2.012831
 30
0.0
 10
4.615358
 20
1.950694
 30
0.0
 10
4.602752
 20
1.888557
 30
0.0
 10
4.557030
 20
1.842765
 30
0.0
 10
4.494774
 20
1.830148
 30
0.0
 10
4.432998
 20
1.842766
 30
0.0
 10
4.385856
 20
1.888542
 30
0.0
 10
4.381100
 20
1.929340
 30
0.0
 10
4.378610
 20
1.950692
 30
0.0
 11
4.378610
 21
1.950692
 31
0.0
 11
4.393250
 21
2.011808
 31
0.0
 11
4.433726
 21
2.052266
 31
0.0
 11
4.494874
 21
2.066900
 31
0.0
 11
4.555976
 21
2.052266
 31
0.0
 11
4.596407
 21
2.011808
 31
0.0
 11
4.611027
 21
1.950692
 31
0.0
 11
4.596407
 21
1.889582
 31
0.0
 11
4.555976
 21
1.849121
 31
0.0
 11
4.494874
 21
1.834483
 31
0.0
 11
4.433726
 21
1.849121
 31
0.0
 11
4.393250
 21
1.889582
 31
0.0
 11
4.378610
 21
1.950692
 31
0.0
  0
ENDSEC
  0
SECTION
  2
OBJECTS
  0
DICTIONARY
  5
C
330
0
100
AcDbDictionary
  3
ACAD_GROUP
350
D
  3
ACAD_MLINESTYLE
350
17
  0
DICTIONARY
  5
D
330
C
100
AcDbDictionary
  0
DICTIONARY
  5
1A
330
C
100
AcDbDictionary
  0
DICTIONARY
  5
17
330
C
100
AcDbDictionary
  3
STANDARD
350
18
  0
DICTIONARY
  5
19
330
C
100
AcDbDictionary
  0
ENDSEC
  0
EOF
